<svg xmlns="http://www.w3.org/2000/svg" version="1.1" xmlns:xlink="http://www.w3.org/1999/xlink" xmlns:svgjs="http://svgjs.com/svgjs" width="512" height="512" x="0" y="0" viewBox="0 0 32 32" style="enable-background:new 0 0 512 512" xml:space="preserve" class=""><g><path d="m12.1500244 5.4500122c-.5200195-.5200195-1.2600098-.7200317-1.9700317-.5500488-.7199707.1799927-1.2799683.7000122-1.5 1.4100342l-1.710022 5.4500122 5.4200439-.2600098c.2799683-.0200195.5499878.0999756.75.2999878s.3099976.4699707.289978.75l-.289978 6.289978 6.289978-.289978c.2800293-.0200195.5499878.0900269.75.289978.2000122.2000122.3099976.4700317.2999878.75l-.2600098 5.4500122 5.4800415-1.7199707c.7000122-.2200317 1.2299805-.7800293 1.3999634-1.4900513.1800537-.7199707-.0299683-1.4599609-.5499878-1.9799805z" fill="#ffffff" data-original="#000000" class=""></path><path d="m8.3400269 24.6900024c-.2900391.0199585-.5500488-.0900269-.75-.2900391-.2000122-.1999512-.3099976-.4699707-.3000488-.75l.3000488-6.2999878-2.0700073.1000366c-.1100464.0099487-.2200317 0-.3200073-.0400391l-3.1000366 9.8699951c-.2299805.75-.039978 1.5499878.5200195 2.1100464.3900146.3999635.9299926.6099855 1.4700317.6099855.2099609 0 .4199829-.0300293.6299438-.1000366l9.8500366-3.0899658c-.0300293-.1000366-.0499878-.210022-.039978-.3200073l.0999756-2.0900269z" fill="#ffffff" data-original="#000000" class=""></path><path d="m11.3900146 20.5999756c-.2000122-.2000122-.3099976-.4699707-.2999878-.75l.2999878-6.2999878-5.0599975.2399902-.5100098 1.6400146 2.7700195-.1300049c.2599487-.0100098.5499878.0999756.75.2999878.1999512.2000122.3099976.4700317.289978.75l-.289978 6.2900391 6.289978-.2900391c.2799683-.0200195.5599976.0900269.75.2900391.2000122.1999512.3099976.4699707.2999878.75l-.1300049 2.7999878 1.6400146-.5100098.2399902-5.0800171-6.289978.2900391c-.2800291.0199585-.5499876-.0900268-.7499999-.290039z" fill="#ffffff" data-original="#000000" class=""></path><path d="m21.3544922 11.6484375c.2558594 0 .5117188-.0976562.7070312-.2929688l3.9433594-3.9423828c.390625-.390625.390625-1.0234375 0-1.4140625s-1.0234375-.390625-1.4140625 0l-3.9433594 3.9423828c-.390625.390625-.390625 1.0234375 0 1.4140625.1953125.1953125.4511719.2929688.7070313.2929688z" fill="#ffffff" data-original="#000000" class=""></path><path d="m17.5068359 6.8007812c-.390625.390625-.390625 1.0234375 0 1.4140625.1953125.1953125.4511719.2929688.7070312.2929688s.5117188-.0976562.7070312-.2929688l.1894531-.1894531c1.5800781-1.5800781 1.5800781-4.1523438 0-5.7324219-.390625-.390625-1.0234375-.390625-1.4140625 0s-.390625 1.0234375 0 1.4140625c.8007812.8007812.8007812 2.1035156 0 2.9042969z" fill="#ffffff" data-original="#000000" class=""></path><path d="m29.7041016 12.8867188c-1.5761719-1.5761719-4.1416111-1.5761719-5.7216797.0019531l-.1953125.1962891c-.3896484.3916016-.3876953 1.0244141.0039062 1.4140625.1953125.1943359.4501953.2910156.7050781.2910156.2568359 0 .5136719-.0986328.7089844-.2949219l.1933594-.1943359c.7978516-.7978516 2.0957031-.7958984 2.8916016 0 .390625.390625 1.0234375.390625 1.4140625 0s.390625-1.0244141 0-1.4140625z" fill="#ffffff" data-original="#000000" class=""></path><path d="m14.7021484 4.9746094c.5527344 0 1-.4472656 1-1s-.4472656-1-1-1h-.0097656c-.5517578 0-.9951172.4472656-.9951172 1s.453125 1 1.0048828 1z" fill="#ffffff" data-original="#000000" class=""></path><path d="m28.0478516 16.3212891h-.0097656c-.5517578 0-.9951172.4472656-.9951172 1s.453125 1 1.0048828 1c.5527344 0 1-.4472656 1-1s-.4472657-1-1-1z" fill="#ffffff" data-original="#000000" class=""></path></g></svg>