<svg id="Capa_1" enable-background="new 0 0 512 512" height="512" viewBox="0 0 512 512" width="512" xmlns="http://www.w3.org/2000/svg"><g><path d="m75 201h170c8.284 0 15-6.716 15-15s-6.716-15-15-15h-170c-8.284 0-15 6.716-15 15s6.716 15 15 15z"/><path d="m75 261h130c8.284 0 15-6.716 15-15s-6.716-15-15-15h-130c-8.284 0-15 6.716-15 15s6.716 15 15 15z"/><path d="m75 321h130c8.284 0 15-6.716 15-15s-6.716-15-15-15h-130c-8.284 0-15 6.716-15 15s6.716 15 15 15z"/><path d="m245 351h-170c-8.284 0-15 6.716-15 15s6.716 15 15 15h170c8.284 0 15-6.716 15-15s-6.716-15-15-15z"/><path d="m507.606 265.394-60-60c-5.857-5.858-15.355-5.858-21.213 0s-5.858 15.355 0 21.213l34.394 34.393h-70.787v-146c0-3.978-1.58-7.793-4.394-10.606l-99.996-100c-2.812-2.813-6.628-4.394-10.606-4.394h-220.004c-30.327 0-55 24.673-55 55v402c0 30.327 24.673 55 55 55h280c30.327 0 55-24.673 55-55v-166h70.787l-34.394 34.394c-5.858 5.858-5.858 15.355 0 21.213 2.929 2.929 6.768 4.393 10.607 4.393s7.678-1.464 10.606-4.394l60-60c5.859-5.857 5.859-15.354 0-21.212zm-168.819-165.394h-48.787v-48.786zm21.213 357c0 13.785-11.215 25-25 25h-280c-13.785 0-25-11.215-25-25v-402c0-13.785 11.215-25 25-25h205v85c0 8.284 6.716 15 15 15h85v131h-103c-8.284 0-15 6.716-15 15s6.716 15 15 15h103z"/></g></svg>