<svg xmlns="http://www.w3.org/2000/svg" viewBox="0 0 608.31 430.56"><defs><style>.cls-1{isolation:isolate;}.cls-2,.cls-9{opacity:0.42;}.cls-3,.cls-9{fill:#eaeff8;}.cls-4{opacity:0.8;}.cls-5{fill:#8f3dc4;}.cls-6{fill:#ff508a;}.cls-7{fill:#ffd942;}.cls-8{fill:#723891;}.cls-10,.cls-21,.cls-23{opacity:0.4;}.cls-11,.cls-17{fill:#1c1c42;}.cls-12,.cls-17{opacity:0.2;}.cls-12{mix-blend-mode:multiply;}.cls-13,.cls-15,.cls-21{fill:#413e5e;}.cls-13,.cls-16{opacity:0.6;}.cls-14{fill:#2c2b4f;}.cls-16,.cls-18,.cls-19,.cls-22,.cls-23{fill:#575370;}.cls-19{opacity:0.5;}.cls-20,.cls-22{opacity:0.3;}.cls-24{fill:#ffb8bc;}.cls-25{fill:#8ac9ff;}.cls-26{fill:#b3dcff;}.cls-27{fill:#4a245e;}.cls-28{fill:#ff808c;}.cls-29{fill:#ffba99;}.cls-30{fill:none;stroke:#312220;stroke-linecap:round;stroke-linejoin:round;stroke-width:0.56px;}.cls-31{fill:#e83479;}</style></defs><title>Zasób 2</title><g class="cls-1"><g id="Warstwa_2" data-name="Warstwa 2"><g id="OBJECTS"><g class="cls-2"><path class="cls-3" d="M289.92,354A238.78,238.78,0,0,0,353,355.48c64.39-7.33,115.08-44.88,150-97.79,14.82-22.5,26.53-48.53,25.11-75.77-2.28-43.71-44.78-72-84.48-78.21-38.95-6-78,4.79-115.38,16.34-18.6,5.75-39.09,11.63-57.21,3.82-17.61-7.6-27.83-25.89-38-42.25C213.2,50,189.81,12.2,151.52,2.53c-25.68-6.48-54-.32-74.26,16.19C59.61,33.07,48.33,54.43,43.67,76.93s-3.07,46.09,2,68.71C62.55,221.85,121.87,282.71,188.83,319,220.38,336.07,254.79,348.58,289.92,354Z"/></g><g class="cls-4"><path class="cls-3" d="M447.22,195.42c5.91,25.91-5.45,53.14-1.16,79.38,1.26,7.72,3.86,15.18,5,22.92s.62,16.15-3.81,22.6c-4.09,6-11.06,9.45-18.16,10.82-4.26.82-8.82.94-12.8-.8-5.58-2.43-9.13-8.14-10.71-14-2.48-9.24-.86-19-.22-28.54s0-19.92-6-27.36c-3.87-4.78-9.66-7-13.89-11.44a35.26,35.26,0,0,1-9.17-18.15,23.93,23.93,0,0,1,.82-12.26,14.72,14.72,0,0,1,8.26-8.78c6.31-2.37,9.66,2.83,15.46,2.88,4.33,0,8-3.41,10-7.25s2.82-8.2,4.5-12.19c2-4.67,5.25-8.93,9.74-11.29s10.24-2.56,14.5.19S446.05,190.31,447.22,195.42Z"/><path class="cls-3" d="M151.58,342.22a5.75,5.75,0,0,1-1.25-2.65c-.43-2.53,1.21-5.09,3.44-6.36a8.48,8.48,0,0,1,5.15-1,11.31,11.31,0,0,1,6.15,3.07,8,8,0,0,1,2.42,3.49c.67,2.3-.7,4.29-2.54,5.54-3.41,2.32-7.56,1.81-11-.12A8.39,8.39,0,0,1,151.58,342.22Z"/><path class="cls-5" d="M432.5,241c3.7,8.56,9.47,16.3,10.81,25.7,1.75,12.34-4.46,25.66-2.42,37.94,1.78,10.7,13.66,26.92,24.75,30.2,14.22,4.22,30.36-7.74,34.42-21.11,2.42-8,2.67-16.24,2.36-24.29-1-26.22-8.39-52.36-25.91-70.86-5.24-5.53-11.57-10.43-19.39-12.09s-17.33.58-22.83,7C427.56,221.39,428.8,232.47,432.5,241Zm17.13-24.32a6.15,6.15,0,1,1,11.93,3c-.83,3.29-3.44,2.39-6.74,1.57S448.8,220,449.63,216.71Z"/><path class="cls-3" d="M236,335.58a27.79,27.79,0,0,1-24.21,13.36,30.8,30.8,0,0,1-24.39-13.57,17.87,17.87,0,0,1-3.36-8.74,9.63,9.63,0,0,1,3.55-8.37c3.06-2.23,7.32-1.88,10.91-.68s7,3.13,10.68,3.86,8.14-.11,10.15-3.33a35.5,35.5,0,0,0,1.59-3.49c4-8.14,14.87-6.83,18.65.67C242.58,321.21,239.11,330.22,236,335.58Z"/><path class="cls-3" d="M517,301.49a14.11,14.11,0,0,0,.82-1.47c5.5-11.16-4-30.31,11.36-35.93,2.44-.88,5.18-1,7.36-2.42,3.4-2.21,4.28-6.87,3.86-10.91s-1.82-8-1.68-12a16.54,16.54,0,0,1,11-14.71c5-1.68,10.95-1,15.06-4.3,3.65-2.94,4.58-8.21,3.94-12.86s-2.52-9-3.5-13.61a35.29,35.29,0,0,1,2.55-22.18c2.63-5.62,7.16-10.75,13.17-12.26,4-1,8.22-.34,12.19.77,1,.26,1.91.57,2.86.91a20.16,20.16,0,0,1,8.69,5.49c3.65,4.25,4.47,10.52,2.77,15.86s-5.65,9.77-10.34,12.84c-2.37,1.54-5.09,2.93-6.32,5.48-2.29,4.75,1.81,9.87,4,14.65,3,6.57,2.43,14.48-.75,21s-8.72,11.64-15,15.21c-5.88,3.33-13.29,6.42-14.53,13.06-.76,4.11,1.29,8.22,3.74,11.6s5.42,6.5,6.94,10.39a16.46,16.46,0,0,1-5.35,18.67c-3.87,2.86-8.79,3.83-13.55,4.51-7.79,1.11-14.49,2.76-15.13,12.12-.16,2.44.3,5-.53,7.28-1.58,4.36-7.07,5.9-11.69,5.51a21.41,21.41,0,0,1-15.23-8c-3.56-4.71-4.6-11.39-2-16.71C513.07,306.54,515.37,304.2,517,301.49Z"/><path class="cls-3" d="M571.83,357.54c-5.89,1.3-12.21,2.2-16.85,6.11-3.78,3.19-6.27,8.25-11,9.79-4.5,1.48-9.66-1.22-11.85-5.44s-1.73-9.49.29-13.81,5.44-7.84,9.11-10.86a68.1,68.1,0,0,1,21.71-12,31.27,31.27,0,0,1,14.85-1.1c3.61.62,7.25,2.11,9.51,5C596,346,580.58,355.61,571.83,357.54Z"/><path class="cls-6" d="M516.47,191.52a4.23,4.23,0,0,1-2.77,3.78,1.11,1.11,0,0,1-1.37-.75,1.13,1.13,0,0,1,.75-1.37,1.89,1.89,0,0,0,1.19-1.61,1.12,1.12,0,0,1,1.07-1.13,1.11,1.11,0,0,1,1.13,1.08Z"/><path class="cls-6" d="M511.32,192.67l-.95-.24a1.1,1.1,0,0,1,.53-2.14l1,.24a1.1,1.1,0,0,1-.53,2.14Z"/><path class="cls-6" d="M508.74,187.65a2.74,2.74,0,0,1-.12-2.65,1.1,1.1,0,0,1,1.92,1.09q.06-.17,0,0c-.08.29,0-.18,0,.13a.45.45,0,0,0,.1.27,1.1,1.1,0,1,1-1.89,1.13Z"/><path class="cls-6" d="M512.86,185.32a4.49,4.49,0,0,0,.64-1.77,1.14,1.14,0,0,1,1.08-1.13,1.11,1.11,0,0,1,1.13,1.08,7.07,7.07,0,0,1-.93,2.9c-.73,1.22-2.65.14-1.92-1.08Z"/><path class="cls-6" d="M510.29,180.17l.54-2.14a1.1,1.1,0,0,1,2.13.53c-.18.72-.35,1.43-.53,2.14a1.1,1.1,0,0,1-2.14-.53Z"/><path class="cls-6" d="M505.5,182.64a8.76,8.76,0,0,0-3.86-.54c-1.42.12-1.46-2.08-.05-2.2a10.18,10.18,0,0,1,4.44.61c1.32.49.8,2.63-.53,2.13Z"/><path class="cls-6" d="M503.41,178a5.78,5.78,0,0,1-.07-3.37c.39-1.36,2.53-.83,2.14.54a3.66,3.66,0,0,0,0,2.22c.45,1.35-1.67,2-2.12.61Z"/><path class="cls-6" d="M505.19,191.21a4.45,4.45,0,0,0-2.57,1.26,1.11,1.11,0,0,1-1.52-.38,1.14,1.14,0,0,1,.38-1.51,6.09,6.09,0,0,1,3.65-1.57c1.43,0,1.48,2.21.06,2.2Z"/><path class="cls-6" d="M501,187.33a4.59,4.59,0,0,0-2.4-.31,1.12,1.12,0,0,1-1.36-.75,1.1,1.1,0,0,1,.75-1.36,6.61,6.61,0,0,1,3.55.28,1.1,1.1,0,0,1-.54,2.14Z"/><path class="cls-6" d="M494.55,181.52l.48-3.16a1.11,1.11,0,0,1,1.34-.8,1.13,1.13,0,0,1,.8,1.34l-.48,3.15a1.11,1.11,0,0,1-1.34.81,1.13,1.13,0,0,1-.8-1.34Z"/><path class="cls-6" d="M498.5,177.33a1.1,1.1,0,0,1,.54-2.13,1.1,1.1,0,0,1-.54,2.13Z"/><path class="cls-6" d="M493.75,174.28l-2.86,1.3a1.13,1.13,0,0,1-1.51-.38,1.1,1.1,0,0,1,.38-1.51l2.86-1.3a1.13,1.13,0,0,1,1.51.38,1.1,1.1,0,0,1-.38,1.51Z"/><path class="cls-6" d="M492.37,183.24a7.47,7.47,0,0,1-1.76,3.14c-1,1-2.55-.5-1.58-1.54a5.19,5.19,0,0,0,1.2-2.13,1.1,1.1,0,0,1,2.14.53Z"/><path class="cls-6" d="M495.9,190.19c-.21.87-.43,1.74-.65,2.61a1.1,1.1,0,0,1-2.14-.53l.66-2.62a1.1,1.1,0,0,1,2.13.54Z"/><path class="cls-6" d="M503.4,194.24a29.5,29.5,0,0,0,4.41,1.34,1.1,1.1,0,0,1-.54,2.14,32.06,32.06,0,0,1-5-1.56c-1.31-.53-.21-2.44,1.09-1.92Z"/><path class="cls-6" d="M508.66,199.93c-.63,2.16-2.83,2.56-4.8,2.42a1.11,1.11,0,0,1-1.12-1.07,1.1,1.1,0,0,1,1.07-1.13c.79.06,2.41.27,2.71-.75.4-1.36,2.54-.83,2.14.53Z"/><path class="cls-6" d="M501.41,200.07a1.26,1.26,0,0,0-.85.88,1.1,1.1,0,0,1-2.14-.53A3.52,3.52,0,0,1,500.8,198a1.1,1.1,0,0,1,.61,2.12Z"/><path class="cls-6" d="M497.3,194.2a1.1,1.1,0,0,1,.53-2.14,1.1,1.1,0,0,1-.53,2.14Z"/><path class="cls-6" d="M512,199.92a1.1,1.1,0,0,1,.54-2.14,1.1,1.1,0,0,1-.54,2.14Z"/><path class="cls-6" d="M496.23,200.43a17.88,17.88,0,0,1-5.56.17c-1.41-.17-.86-2.31.53-2.13a14.18,14.18,0,0,0,4.41-.16c1.39-.27,2,1.85.62,2.12Z"/><path class="cls-6" d="M489.49,195.82a4.08,4.08,0,0,1-1.69-4.13,1.1,1.1,0,0,1,1.33-.8,1.12,1.12,0,0,1,.81,1.33,1.79,1.79,0,0,0,.63,1.68,1.12,1.12,0,0,1,.42,1.5,1.1,1.1,0,0,1-1.5.42Z"/><path class="cls-6" d="M484.52,189.5a4.45,4.45,0,0,1-1.91-3.37,1.09,1.09,0,0,1,1.07-1.12,1.1,1.1,0,0,1,1.13,1.07,2,2,0,0,0,.24.83,2.39,2.39,0,0,0,.13.21c.18.28-.11-.1.11.15l.17.18s.28.23.14.13a1.12,1.12,0,0,1,.42,1.5,1.1,1.1,0,0,1-1.5.42Z"/><path class="cls-6" d="M488.19,180.43l-.24,2a1.1,1.1,0,0,1-1.34.8,1.12,1.12,0,0,1-.8-1.33l.24-2a1.1,1.1,0,0,1,1.34-.8,1.11,1.11,0,0,1,.8,1.33Z"/><path class="cls-6" d="M480.38,182.13a1.1,1.1,0,0,1,.54-2.14,1.1,1.1,0,0,1-.54,2.14Z"/><path class="cls-6" d="M484.23,197a1.1,1.1,0,0,1,.53-2.14,1.1,1.1,0,0,1-.53,2.14Z"/><path class="cls-6" d="M494.07,202.88c1.81.56,2.55,2.29,3,4,.36,1.38-1.76,2-2.11.62-.21-.81-.49-2.19-1.42-2.48-1.35-.42-.82-2.56.54-2.13Z"/><path class="cls-6" d="M499.78,205.43a1.1,1.1,0,0,1,.54-2.14,1.1,1.1,0,0,1-.54,2.14Z"/><path class="cls-6" d="M486,206a1.1,1.1,0,0,1,.54-2.14A1.1,1.1,0,0,1,486,206Z"/><path class="cls-6" d="M484.77,199.89a7.4,7.4,0,0,0-3.45-2.4c-1.34-.43-.82-2.57.54-2.13a9.53,9.53,0,0,1,4.45,2.95c.9,1.09-.63,2.68-1.54,1.58Z"/><path class="cls-3" d="M145.45,326.46c-6.26,4.69-7.52,12.83-12.07,18.91-8.17,10.92-26.26,13-39.41,7.26-6.3-2.75-11.78-7-18.37-9.1C61.12,338.82,45.35,345,30,345.92c-5.09.29-10.42-.07-14.88-2.29S7.26,337,7.9,332.4c.91-6.61,9-10.18,16.25-11.72S39.56,318,43.9,312.59A32.8,32.8,0,0,0,46.72,308c4-7.15,10.76-13.34,19.25-15.8s18.72-.62,24.45,5.52c2.81,3,4.44,6.8,7.44,9.65,6.3,6,17.06,6.16,25.66,3.33s15.91-8.07,24-12,17.85-6.4,26.32-3.27c6,6.24,4.64,17-2.72,21.87S152.58,321.12,145.45,326.46Z"/><path class="cls-7" d="M454.42,266.1a4.22,4.22,0,0,1,1.06,4.57,1.1,1.1,0,0,1-1.46.55,1.12,1.12,0,0,1-.54-1.46,1.92,1.92,0,0,0-.46-1.95,1.13,1.13,0,0,1-.15-1.55,1.1,1.1,0,0,1,1.55-.16Z"/><path class="cls-7" d="M451.93,270.76l-.8.57a1.1,1.1,0,0,1-1.27-1.8l.8-.57a1.1,1.1,0,0,1,1.27,1.8Z"/><path class="cls-7" d="M446.45,269.45a2.76,2.76,0,0,1-2.08-1.64,1.09,1.09,0,0,1,.66-1.41,1.13,1.13,0,0,1,1.41.66c-.06-.1-.05-.09,0,0,.17.26-.14-.1.09.1a.52.52,0,0,0,.27.1,1.1,1.1,0,0,1,.9,1.27,1.11,1.11,0,0,1-1.27.9Z"/><path class="cls-7" d="M447.36,264.8a4.24,4.24,0,0,0-.92-1.64,1.13,1.13,0,0,1-.15-1.55,1.1,1.1,0,0,1,1.55-.15,6.83,6.83,0,0,1,1.6,2.59c.44,1.35-1.63,2.1-2.08.75Z"/><path class="cls-7" d="M441.78,263.39l-1.27-1.8a1.1,1.1,0,0,1,1.8-1.27l1.27,1.8a1.1,1.1,0,0,1-1.8,1.27Z"/><path class="cls-7" d="M440.54,268.64a8.72,8.72,0,0,0-2.93,2.57c-.83,1.16-2.53-.25-1.7-1.39a10.22,10.22,0,0,1,3.36-3c1.23-.68,2.51,1.12,1.27,1.8Z"/><path class="cls-7" d="M435.66,267.19a5.71,5.71,0,0,1-2.6-2.13c-.78-1.19,1-2.46,1.8-1.28a3.63,3.63,0,0,0,1.71,1.41c1.32.54.4,2.54-.91,2Z"/><path class="cls-7" d="M446.83,274.46a4.46,4.46,0,0,0-.71,2.77,1.11,1.11,0,0,1-1.28.9,1.13,1.13,0,0,1-.9-1.27,6.07,6.07,0,0,1,1.19-3.79c.93-1.08,2.64.32,1.7,1.39Z"/><path class="cls-7" d="M441.18,275.07a4.58,4.58,0,0,0-1.79,1.62,1.12,1.12,0,0,1-1.46.55,1.11,1.11,0,0,1-.54-1.46,6.67,6.67,0,0,1,2.52-2.51,1.12,1.12,0,0,1,1.54.27,1.1,1.1,0,0,1-.27,1.53Z"/><path class="cls-7" d="M432.55,276.21l-2.08-2.42a1.11,1.11,0,0,1,.26-1.54,1.13,1.13,0,0,1,1.54.27l2.08,2.42a1.1,1.1,0,0,1-.26,1.53,1.13,1.13,0,0,1-1.54-.26Z"/><path class="cls-7" d="M432,270.49a1.1,1.1,0,0,1-1.27-1.8,1.1,1.1,0,0,1,1.27,1.8Z"/><path class="cls-7" d="M426.54,272.1c-.29,1-.59,2-.88,3a1.12,1.12,0,0,1-1.27.9,1.1,1.1,0,0,1-.9-1.27c.29-1,.59-2,.88-3a1.12,1.12,0,0,1,1.27-.9,1.1,1.1,0,0,1,.9,1.27Z"/><path class="cls-7" d="M432.43,279a7.49,7.49,0,0,1,1.24,3.38,1.1,1.1,0,0,1-2.2.19,5,5,0,0,0-.84-2.3c-.78-1.18,1-2.45,1.8-1.27Z"/><path class="cls-7" d="M440,280.84c.52.73,1,1.46,1.55,2.2a1.1,1.1,0,0,1-1.8,1.27c-.51-.74-1-1.47-1.55-2.2a1.1,1.1,0,0,1,1.8-1.27Z"/><path class="cls-7" d="M448,277.79a28.6,28.6,0,0,0,3.88-2.47c1.14-.85,2.41.95,1.28,1.8a31.91,31.91,0,0,1-4.42,2.74c-1.25.66-2-1.42-.74-2.07Z"/><path class="cls-7" d="M455.71,277.51c1.23,1.88.1,3.82-1.29,5.22a1.13,1.13,0,0,1-1.55.15,1.11,1.11,0,0,1-.15-1.55c.55-.56,1.77-1.66,1.19-2.55-.77-1.19,1-2.46,1.8-1.27Z"/><path class="cls-7" d="M451.09,283.1a1.24,1.24,0,0,0,.12,1.22c.8,1.17-1,2.45-1.8,1.27a3.55,3.55,0,0,1-.33-3.41,1.11,1.11,0,0,1,2,.92Z"/><path class="cls-7" d="M444,282.39a1.1,1.1,0,0,1-1.27-1.8,1.1,1.1,0,0,1,1.27,1.8Z"/><path class="cls-7" d="M457.89,275a1.1,1.1,0,0,1-1.27-1.8,1.1,1.1,0,0,1,1.27,1.8Z"/><path class="cls-7" d="M448,287.26a17.39,17.39,0,0,1-3.49,4.33c-1.05,1-2.31-.85-1.27-1.8a14.07,14.07,0,0,0,2.75-3.44c.71-1.23,2.72-.32,2,.91Z"/><path class="cls-7" d="M440.1,289.37a4.08,4.08,0,0,1-4.24-1.41,1.11,1.11,0,0,1,.26-1.54,1.13,1.13,0,0,1,1.54.27,1.81,1.81,0,0,0,1.69.61,1.12,1.12,0,0,1,1.41.66,1.1,1.1,0,0,1-.66,1.41Z"/><path class="cls-7" d="M432.06,289a4.46,4.46,0,0,1-3.79-.74,1.1,1.1,0,1,1,1.39-1.71,2,2,0,0,0,.79.36l.24,0c.33,0-.15,0,.19,0h.24s.36-.07.19,0a1.14,1.14,0,0,1,1.42.67,1.11,1.11,0,0,1-.67,1.41Z"/><path class="cls-7" d="M427.58,280.33c.45.48.89,1,1.33,1.46a1.09,1.09,0,0,1-.26,1.53,1.13,1.13,0,0,1-1.54-.26c-.44-.49-.88-1-1.33-1.46a1.1,1.1,0,1,1,1.8-1.27Z"/><path class="cls-7" d="M423.78,287.35a1.1,1.1,0,0,1-1.28-1.8,1.1,1.1,0,0,1,1.28,1.8Z"/><path class="cls-7" d="M437.55,294.12a1.1,1.1,0,0,1-1.27-1.8,1.1,1.1,0,0,1,1.27,1.8Z"/><path class="cls-7" d="M448.44,290.49c1.61-1,3.4-.44,5,.34,1.27.63.36,2.63-.92,2-.74-.37-2-1.06-2.79-.55-1.2.75-2.48-1-1.27-1.8Z"/><path class="cls-7" d="M454.09,287.83a1.1,1.1,0,0,1-1.27-1.8,1.1,1.1,0,0,1,1.27,1.8Z"/><path class="cls-7" d="M445.55,298.66a1.1,1.1,0,0,1-1.27-1.8,1.1,1.1,0,0,1,1.27,1.8Z"/><path class="cls-7" d="M440.11,295.6a7.47,7.47,0,0,0-4.07,1.06c-1.2.73-2.48-1.06-1.27-1.8a9.38,9.38,0,0,1,5.15-1.45c1.4,0,1.61,2.22.19,2.19Z"/><path class="cls-5" d="M588.25,281.34a4.22,4.22,0,0,1,1.06,4.57,1.11,1.11,0,0,1-1.46.55,1.13,1.13,0,0,1-.55-1.46,1.9,1.9,0,0,0-.45-1.95,1.12,1.12,0,0,1-.15-1.55,1.1,1.1,0,0,1,1.55-.16Z"/><path class="cls-5" d="M585.76,286l-.8.57a1.1,1.1,0,0,1-1.27-1.8l.8-.57a1.1,1.1,0,0,1,1.27,1.8Z"/><path class="cls-5" d="M580.28,284.69a2.77,2.77,0,0,1-2.09-1.64,1.11,1.11,0,0,1,.67-1.41,1.13,1.13,0,0,1,1.41.66c-.06-.1,0-.09,0,0s-.14-.1.09.1a.49.49,0,0,0,.27.1,1.1,1.1,0,0,1,.9,1.27,1.11,1.11,0,0,1-1.27.9Z"/><path class="cls-5" d="M581.19,280a4.37,4.37,0,0,0-.92-1.64,1.13,1.13,0,0,1-.15-1.55,1.1,1.1,0,0,1,1.55-.15,7.09,7.09,0,0,1,1.6,2.59c.44,1.35-1.63,2.1-2.08.75Z"/><path class="cls-5" d="M575.61,278.63l-1.27-1.8a1.1,1.1,0,0,1,1.8-1.27l1.27,1.8a1.1,1.1,0,0,1-1.8,1.27Z"/><path class="cls-5" d="M574.37,283.88a8.72,8.72,0,0,0-2.93,2.57c-.84,1.16-2.53-.25-1.7-1.39a10.19,10.19,0,0,1,3.35-3c1.23-.68,2.52,1.12,1.28,1.8Z"/><path class="cls-5" d="M569.49,282.44a5.74,5.74,0,0,1-2.6-2.14c-.79-1.19,1-2.46,1.8-1.28a3.58,3.58,0,0,0,1.71,1.41c1.32.54.4,2.54-.91,2Z"/><path class="cls-5" d="M580.66,289.7a4.46,4.46,0,0,0-.72,2.77,1.09,1.09,0,0,1-1.27.9,1.13,1.13,0,0,1-.9-1.27,6,6,0,0,1,1.19-3.79c.93-1.08,2.64.32,1.7,1.39Z"/><path class="cls-5" d="M575,290.31a4.58,4.58,0,0,0-1.79,1.62,1.12,1.12,0,0,1-1.46.55,1.1,1.1,0,0,1-.55-1.46,6.77,6.77,0,0,1,2.53-2.51,1.12,1.12,0,0,1,1.54.27,1.1,1.1,0,0,1-.27,1.53Z"/><path class="cls-5" d="M566.38,291.45,564.3,289a1.1,1.1,0,0,1,.26-1.54,1.13,1.13,0,0,1,1.54.27l2.08,2.42a1.1,1.1,0,0,1-.27,1.53,1.12,1.12,0,0,1-1.53-.26Z"/><path class="cls-5" d="M565.78,285.73a1.1,1.1,0,0,1-1.27-1.8,1.1,1.1,0,0,1,1.27,1.8Z"/><path class="cls-5" d="M560.37,287.34c-.3,1-.59,2-.88,3a1.12,1.12,0,0,1-1.27.9,1.09,1.09,0,0,1-.9-1.27c.29-1,.58-2,.88-3a1.12,1.12,0,0,1,1.27-.9,1.1,1.1,0,0,1,.9,1.27Z"/><path class="cls-5" d="M566.26,294.23a7.36,7.36,0,0,1,1.23,3.38,1.1,1.1,0,0,1-2.19.19,5,5,0,0,0-.84-2.3c-.79-1.18,1-2.45,1.8-1.27Z"/><path class="cls-5" d="M573.84,296.08l1.55,2.2a1.1,1.1,0,0,1-1.8,1.27l-1.55-2.2a1.1,1.1,0,0,1,1.8-1.27Z"/><path class="cls-5" d="M581.79,293a28.1,28.1,0,0,0,3.89-2.47c1.14-.85,2.41.95,1.27,1.8a31.22,31.22,0,0,1-4.41,2.74c-1.26.66-2-1.42-.75-2.07Z"/><path class="cls-5" d="M589.54,292.75c1.22,1.88.09,3.82-1.29,5.22a1.13,1.13,0,0,1-1.55.15,1.1,1.1,0,0,1-.15-1.55c.55-.56,1.77-1.65,1.19-2.55-.77-1.19,1-2.46,1.8-1.27Z"/><path class="cls-5" d="M584.92,298.34a1.24,1.24,0,0,0,.11,1.22c.8,1.17-1,2.45-1.8,1.27a3.52,3.52,0,0,1-.32-3.41c.56-1.31,2.57-.39,2,.92Z"/><path class="cls-5" d="M577.79,297.63a1.1,1.1,0,0,1-1.28-1.8,1.1,1.1,0,0,1,1.28,1.8Z"/><path class="cls-5" d="M591.72,290.19a1.1,1.1,0,0,1-1.27-1.8,1.1,1.1,0,0,1,1.27,1.8Z"/><path class="cls-5" d="M581.81,302.5a17.62,17.62,0,0,1-3.49,4.34c-1.05,1-2.31-.86-1.27-1.81a14.07,14.07,0,0,0,2.75-3.44c.7-1.23,2.72-.32,2,.91Z"/><path class="cls-5" d="M573.92,304.61a4.07,4.07,0,0,1-4.23-1.41,1.11,1.11,0,0,1,.26-1.54,1.13,1.13,0,0,1,1.54.27,1.8,1.8,0,0,0,1.69.61,1.13,1.13,0,0,1,1.41.66,1.11,1.11,0,0,1-.67,1.41Z"/><path class="cls-5" d="M565.89,304.26a4.49,4.49,0,0,1-3.8-.74,1.11,1.11,0,0,1,1.4-1.71,2,2,0,0,0,.79.36l.23,0c.34.05-.14,0,.2,0H565s.36-.07.19,0a1.13,1.13,0,0,1,1.41.67,1.1,1.1,0,0,1-.66,1.41Z"/><path class="cls-5" d="M561.41,295.57l1.33,1.46a1.1,1.1,0,0,1-.27,1.53,1.12,1.12,0,0,1-1.53-.26l-1.33-1.46a1.1,1.1,0,1,1,1.8-1.27Z"/><path class="cls-5" d="M557.6,302.59a1.1,1.1,0,0,1-1.27-1.8,1.1,1.1,0,0,1,1.27,1.8Z"/><path class="cls-5" d="M571.38,309.36a1.1,1.1,0,0,1-1.28-1.8,1.1,1.1,0,0,1,1.28,1.8Z"/><path class="cls-5" d="M582.26,305.73c1.61-1,3.41-.44,5,.34,1.27.63.36,2.63-.92,2-.75-.37-2-1.06-2.79-.55-1.21.75-2.48-1-1.28-1.8Z"/><path class="cls-5" d="M587.92,303.07a1.1,1.1,0,0,1-1.27-1.8,1.1,1.1,0,0,1,1.27,1.8Z"/><path class="cls-5" d="M579.38,313.9a1.1,1.1,0,0,1-1.27-1.8,1.1,1.1,0,0,1,1.27,1.8Z"/><path class="cls-5" d="M573.93,310.84a7.44,7.44,0,0,0-4.06,1.06c-1.21.73-2.48-1.06-1.27-1.8a9.37,9.37,0,0,1,5.14-1.45c1.41,0,1.62,2.22.19,2.19Z"/><path class="cls-8" d="M78.58,298.28a16.18,16.18,0,0,0,.57-1.79c3.46-13.45-14.94-31.42,3-41.59,2.84-1.61,6.32-2.48,8.66-4.58,3.65-3.29,3.28-8.52,1.43-12.74s-4.89-8.09-6-12.48c-1.81-7,2.08-14.84,9.32-18.73,5.87-3.15,13.73-4,17.93-8.66,3.74-4.14,3.23-10,.92-14.86s-6.14-9-8.88-13.66a33.4,33.4,0,0,1-3.87-24.47c1.57-6.73,5.73-13.45,13-16.7,4.8-2.16,10.44-2.57,15.88-2.46,1.31,0,2.64.1,4,.21,4.62.38,9.16,1.34,12.92,3.55A17.55,17.55,0,0,1,156,145.58c-.46,6.19-4.1,12-9.14,16.56-2.54,2.29-5.58,4.52-6.33,7.58-1.41,5.71,5.5,10.1,9.87,14.63a24,24,0,0,1,5.79,22.7c-2,7.82-7.44,14.83-14.36,20.35-6.46,5.15-15,10.47-14.42,17.92.35,4.61,4.29,8.47,8.53,11.44s9,5.51,12.25,9.28a15.85,15.85,0,0,1-.87,21.46c-4,4.11-10,6.47-15.91,8.48-9.64,3.29-17.7,6.87-15.5,17.08.57,2.66,2,5.26,1.65,7.95-.62,5.1-7.16,8.23-13.22,9.05-7.7,1.05-16-.36-22.1-4.45s-9.56-11-8-17.38C75.11,304.77,77.3,301.64,78.58,298.28Z"/><path class="cls-3" d="M23.13,195.88c-3.8-5.81-2.15-14,3.82-18.83A18.54,18.54,0,0,1,31,174.57c5.75-2.61,13-2.74,18.34,0a13.19,13.19,0,0,1,5.1,4.38,18.49,18.49,0,0,1,2.25,7.13c.91,5.31.19,18.48,5.74,21.36,4,2.09,9.28,2,13.51,3.81,5.53,2.37,8.53,8.14,7,13.4-1.84,6.14-9.1,11.61-7.41,17.62,1.4,5,8.12,7,13.81,8.72,9.2,2.78,19,8.07,19.24,16.45.19,6.92-6,10.8-9.51,16.48-3.3,5.32-1.62,11,1,15.93,3.31,6.25,6.78,13.18-.4,19.14-4.19,3.49-10.08,5-15.78,5.85-8.09,1.15-16.59,1-23.8-1.84-9.7-3.83-18-16.24-12-25.61,2-3.1,5.11-6,5.14-9.47s-3-6.07-6.25-7.91-6.92-3.27-9.37-5.83a10,10,0,0,1-1.07-12.48c2.6-4,8-7,8.39-11.49.75-7.66-13.32-10.82-13.48-18.46-.11-5.31,6.66-9.34,7.93-14.61,1.06-4.44-2-8.64-5.7-11.73S25.64,199.71,23.13,195.88Z"/><path class="cls-5" d="M58.2,318.19A4.23,4.23,0,0,1,55.42,322a1.1,1.1,0,0,1-1.36-.75,1.13,1.13,0,0,1,.75-1.37A1.91,1.91,0,0,0,56,318.24a1.13,1.13,0,0,1,1.08-1.13,1.11,1.11,0,0,1,1.13,1.08Z"/><path class="cls-5" d="M53,319.34l-.95-.24a1.1,1.1,0,0,1,.54-2.14l.95.24a1.1,1.1,0,0,1-.54,2.14Z"/><path class="cls-5" d="M50.46,314.32a2.77,2.77,0,0,1-.11-2.65,1.1,1.1,0,0,1,1.5-.41,1.13,1.13,0,0,1,.42,1.5q.06-.17,0,0c-.09.29,0-.18,0,.13a.39.39,0,0,0,.1.27A1.11,1.11,0,0,1,52,314.7a1.13,1.13,0,0,1-1.52-.38Z"/><path class="cls-5" d="M54.58,312a4.36,4.36,0,0,0,.65-1.77,1.13,1.13,0,0,1,1.07-1.13c.54,0,1.2.48,1.13,1.08a6.78,6.78,0,0,1-.93,2.9c-.73,1.22-2.65.14-1.92-1.08Z"/><path class="cls-5" d="M52,306.83l.54-2.13a1.1,1.1,0,0,1,2.14.53l-.54,2.14a1.1,1.1,0,0,1-2.14-.54Z"/><path class="cls-5" d="M47.22,309.31a8.71,8.71,0,0,0-3.85-.54c-1.43.12-1.46-2.09-.06-2.2a10.19,10.19,0,0,1,4.45.6c1.32.5.79,2.64-.54,2.14Z"/><path class="cls-5" d="M45.14,304.67a5.78,5.78,0,0,1-.07-3.37,1.1,1.1,0,0,1,2.14.54,3.55,3.55,0,0,0,0,2.21c.45,1.36-1.67,2-2.12.62Z"/><path class="cls-5" d="M46.91,317.88a4.48,4.48,0,0,0-2.57,1.26,1.1,1.1,0,0,1-1.51-.38,1.13,1.13,0,0,1,.38-1.51,6.06,6.06,0,0,1,3.65-1.57,1.1,1.1,0,0,1,0,2.2Z"/><path class="cls-5" d="M42.77,314a4.59,4.59,0,0,0-2.4-.3,1.13,1.13,0,0,1-1.37-.75,1.1,1.1,0,0,1,.75-1.36,6.6,6.6,0,0,1,3.55.28,1.11,1.11,0,0,1,.8,1.33,1.09,1.09,0,0,1-1.33.8Z"/><path class="cls-5" d="M36.28,308.19l.48-3.16a1.09,1.09,0,0,1,1.33-.8,1.12,1.12,0,0,1,.8,1.34c-.15,1.05-.31,2.1-.47,3.15a1.1,1.1,0,0,1-1.34.8,1.12,1.12,0,0,1-.8-1.33Z"/><path class="cls-5" d="M40.23,304a1.1,1.1,0,0,1,.53-2.14,1.1,1.1,0,0,1-.53,2.14Z"/><path class="cls-5" d="M35.48,301l-2.86,1.3a1.12,1.12,0,0,1-1.51-.38,1.1,1.1,0,0,1,.38-1.51l2.85-1.3a1.12,1.12,0,0,1,1.51.38,1.1,1.1,0,0,1-.37,1.51Z"/><path class="cls-5" d="M34.09,309.91a7.47,7.47,0,0,1-1.76,3.14c-1,1-2.54-.5-1.57-1.54a5.22,5.22,0,0,0,1.2-2.14c.38-1.36,2.52-.83,2.13.54Z"/><path class="cls-5" d="M37.63,316.86,37,319.47a1.1,1.1,0,0,1-2.13-.53c.22-.88.43-1.75.65-2.62a1.1,1.1,0,0,1,2.14.54Z"/><path class="cls-5" d="M45.13,320.91a29,29,0,0,0,4.4,1.34,1.1,1.1,0,0,1-.53,2.14,33.18,33.18,0,0,1-5-1.56c-1.32-.53-.22-2.44,1.09-1.92Z"/><path class="cls-5" d="M50.39,326.6c-.63,2.16-2.84,2.56-4.8,2.42A1.12,1.12,0,0,1,44.46,328a1.11,1.11,0,0,1,1.08-1.13c.78.05,2.41.27,2.71-.76.4-1.36,2.54-.82,2.14.54Z"/><path class="cls-5" d="M43.14,326.74a1.22,1.22,0,0,0-.85.88,1.1,1.1,0,0,1-2.14-.53,3.51,3.51,0,0,1,2.37-2.47,1.11,1.11,0,0,1,.62,2.12Z"/><path class="cls-5" d="M39,320.87a1.1,1.1,0,0,1,.54-2.14,1.1,1.1,0,0,1-.54,2.14Z"/><path class="cls-5" d="M53.75,326.59a1.1,1.1,0,0,1,.53-2.14,1.1,1.1,0,0,1-.53,2.14Z"/><path class="cls-5" d="M38,327.09a17.58,17.58,0,0,1-5.56.18c-1.41-.17-.85-2.31.54-2.14a14.19,14.19,0,0,0,4.41-.15c1.38-.27,2,1.85.61,2.11Z"/><path class="cls-5" d="M31.21,322.49a4.09,4.09,0,0,1-1.69-4.13,1.1,1.1,0,1,1,2.14.53,1.82,1.82,0,0,0,.64,1.68,1.1,1.1,0,1,1-1.09,1.92Z"/><path class="cls-5" d="M26.24,316.17a4.48,4.48,0,0,1-1.91-3.37,1.12,1.12,0,0,1,1.08-1.13,1.13,1.13,0,0,1,1.13,1.08,2,2,0,0,0,.24.83l.12.2c.18.29-.1-.09.12.16l.17.18s.28.23.14.13a1.1,1.1,0,1,1-1.09,1.92Z"/><path class="cls-5" d="M29.92,307.1l-.25,2a1.08,1.08,0,0,1-1.33.8,1.11,1.11,0,0,1-.8-1.33l.24-2a1.1,1.1,0,0,1,1.34-.8,1.13,1.13,0,0,1,.8,1.33Z"/><path class="cls-5" d="M22.11,308.8a1.1,1.1,0,0,1,.53-2.14,1.1,1.1,0,0,1-.53,2.14Z"/><path class="cls-5" d="M26,323.65a1.1,1.1,0,0,1,.54-2.14,1.1,1.1,0,0,1-.54,2.14Z"/><path class="cls-5" d="M35.8,329.54c1.81.57,2.55,2.3,3,4,.35,1.38-1.76,2-2.12.62-.21-.81-.49-2.19-1.41-2.48-1.35-.42-.82-2.56.54-2.14Z"/><path class="cls-5" d="M41.51,332.1A1.1,1.1,0,0,1,42,330a1.1,1.1,0,0,1-.53,2.14Z"/><path class="cls-5" d="M27.73,332.68a1.1,1.1,0,0,1,.53-2.14,1.1,1.1,0,0,1-.53,2.14Z"/><path class="cls-5" d="M26.49,326.56a7.37,7.37,0,0,0-3.44-2.4c-1.35-.43-.82-2.57.53-2.14A9.52,9.52,0,0,1,28,325c.89,1.09-.64,2.67-1.55,1.58Z"/><path class="cls-7" d="M124.67,157.21A4.24,4.24,0,0,1,121.9,161a1.1,1.1,0,0,1-.62-2.12,1.92,1.92,0,0,0,1.19-1.61,1.13,1.13,0,0,1,1.08-1.13,1.1,1.1,0,0,1,1.12,1.07Z"/><path class="cls-7" d="M119.52,158.37l-1-.24a1.1,1.1,0,0,1,.53-2.14l1,.24a1.1,1.1,0,0,1-.53,2.14Z"/><path class="cls-7" d="M116.94,153.35a2.77,2.77,0,0,1-.12-2.65,1.1,1.1,0,1,1,1.92,1.08c0-.1,0-.1,0,0-.08.3,0-.17,0,.14a.47.47,0,0,0,.1.27,1.1,1.1,0,0,1-1.89,1.13Z"/><path class="cls-7" d="M121.06,151a4.44,4.44,0,0,0,.64-1.77,1.13,1.13,0,0,1,1.08-1.12,1.11,1.11,0,0,1,1.13,1.07,7.11,7.11,0,0,1-.93,2.91c-.73,1.21-2.65.14-1.92-1.09Z"/><path class="cls-7" d="M118.49,145.86l.54-2.14a1.1,1.1,0,0,1,2.13.54l-.53,2.14a1.1,1.1,0,0,1-2.14-.54Z"/><path class="cls-7" d="M113.7,148.34a8.76,8.76,0,0,0-3.86-.54c-1.42.12-1.46-2.09,0-2.21a10.33,10.33,0,0,1,4.44.61c1.32.49.8,2.64-.53,2.14Z"/><path class="cls-7" d="M111.62,143.7a5.7,5.7,0,0,1-.08-3.37c.39-1.37,2.53-.83,2.14.54a3.63,3.63,0,0,0,0,2.21c.45,1.35-1.67,2-2.11.62Z"/><path class="cls-7" d="M113.39,156.91a4.39,4.39,0,0,0-2.57,1.26,1.1,1.1,0,0,1-1.51-.38,1.12,1.12,0,0,1,.37-1.51,6,6,0,0,1,3.66-1.58c1.42,0,1.47,2.22,0,2.21Z"/><path class="cls-7" d="M109.24,153a4.59,4.59,0,0,0-2.4-.3,1.13,1.13,0,0,1-1.36-.75,1.1,1.1,0,0,1,.75-1.37,6.81,6.81,0,0,1,3.55.28,1.14,1.14,0,0,1,.8,1.34,1.11,1.11,0,0,1-1.34.8Z"/><path class="cls-7" d="M102.75,147.21l.48-3.15a1.1,1.1,0,0,1,1.34-.8,1.12,1.12,0,0,1,.8,1.33l-.48,3.16a1.11,1.11,0,0,1-1.34.8,1.13,1.13,0,0,1-.8-1.34Z"/><path class="cls-7" d="M106.7,143a1.1,1.1,0,0,1,.54-2.14,1.1,1.1,0,0,1-.54,2.14Z"/><path class="cls-7" d="M102,140l-2.86,1.29a1.13,1.13,0,0,1-1.51-.38,1.1,1.1,0,0,1,.38-1.51l2.86-1.29a1.13,1.13,0,0,1,1.51.38A1.1,1.1,0,0,1,102,140Z"/><path class="cls-7" d="M100.57,148.94a7.53,7.53,0,0,1-1.76,3.14c-1,1-2.55-.51-1.58-1.55a5,5,0,0,0,1.2-2.13,1.1,1.1,0,0,1,2.14.54Z"/><path class="cls-7" d="M104.1,155.89c-.21.87-.43,1.74-.65,2.61a1.1,1.1,0,0,1-2.14-.54l.66-2.61a1.1,1.1,0,0,1,2.13.54Z"/><path class="cls-7" d="M111.6,159.93a27.33,27.33,0,0,0,4.41,1.34,1.1,1.1,0,0,1-.54,2.14,32.06,32.06,0,0,1-5-1.56c-1.31-.52-.21-2.44,1.09-1.92Z"/><path class="cls-7" d="M116.86,165.63c-.63,2.15-2.83,2.56-4.79,2.42a1.13,1.13,0,0,1-1.13-1.08,1.09,1.09,0,0,1,1.07-1.12c.79.05,2.41.26,2.71-.76.4-1.36,2.54-.83,2.14.54Z"/><path class="cls-7" d="M109.61,165.76a1.27,1.27,0,0,0-.85.89,1.1,1.1,0,0,1-2.14-.54,3.54,3.54,0,0,1,2.38-2.47,1.1,1.1,0,0,1,.61,2.12Z"/><path class="cls-7" d="M105.5,159.9a1.1,1.1,0,0,1,.53-2.14,1.1,1.1,0,0,1-.53,2.14Z"/><path class="cls-7" d="M120.22,165.61a1.1,1.1,0,0,1,.54-2.14,1.1,1.1,0,0,1-.54,2.14Z"/><path class="cls-7" d="M104.43,166.12a17.58,17.58,0,0,1-5.56.18c-1.41-.17-.86-2.31.53-2.14a14.18,14.18,0,0,0,4.41-.16c1.39-.26,2,1.85.62,2.12Z"/><path class="cls-7" d="M97.69,161.51A4.07,4.07,0,0,1,96,157.38a1.11,1.11,0,0,1,1.34-.8,1.13,1.13,0,0,1,.8,1.34,1.77,1.77,0,0,0,.63,1.67,1.14,1.14,0,0,1,.42,1.51,1.1,1.1,0,0,1-1.5.41Z"/><path class="cls-7" d="M92.72,155.19a4.43,4.43,0,0,1-1.91-3.36,1.1,1.1,0,0,1,1.07-1.13A1.12,1.12,0,0,1,93,151.78a2.08,2.08,0,0,0,.24.83l.13.2c.18.29-.11-.1.12.16a1.29,1.29,0,0,0,.16.17s.29.23.14.13a1.13,1.13,0,0,1,.42,1.51,1.11,1.11,0,0,1-1.5.41Z"/><path class="cls-7" d="M96.39,146.13l-.24,2a1.1,1.1,0,0,1-1.34.8,1.14,1.14,0,0,1-.8-1.34l.24-2a1.11,1.11,0,0,1,1.34-.8,1.12,1.12,0,0,1,.8,1.34Z"/><path class="cls-7" d="M88.58,147.82a1.1,1.1,0,0,1,.54-2.14,1.1,1.1,0,0,1-.54,2.14Z"/><path class="cls-7" d="M92.43,162.68a1.1,1.1,0,0,1,.53-2.14,1.1,1.1,0,0,1-.53,2.14Z"/><path class="cls-7" d="M102.27,168.57c1.81.57,2.56,2.29,3,4,.36,1.38-1.76,2-2.11.61-.21-.8-.49-2.18-1.41-2.47-1.36-.42-.83-2.56.53-2.14Z"/><path class="cls-7" d="M108,171.12a1.1,1.1,0,0,1,.54-2.13,1.1,1.1,0,0,1-.54,2.13Z"/><path class="cls-7" d="M94.2,171.71a1.1,1.1,0,0,1,.54-2.14,1.1,1.1,0,0,1-.54,2.14Z"/><path class="cls-7" d="M93,165.58a7.45,7.45,0,0,0-3.45-2.39c-1.34-.44-.82-2.58.54-2.14a9.5,9.5,0,0,1,4.45,3c.9,1.08-.63,2.67-1.54,1.57Z"/></g><ellipse class="cls-9" cx="237.37" cy="390.28" rx="139.97" ry="22.01"/><ellipse class="cls-9" cx="452.08" cy="363.7" rx="61.93" ry="15.31"/><ellipse class="cls-9" cx="345.23" cy="66.56" rx="39.74" ry="33.81" transform="translate(0.33 134.78) rotate(-22.1)"/><g class="cls-10"><path class="cls-11" d="M179.13,242.34c-6.6-19.37-31.59-19.54-47.68-25.65-11.35-4.3-22.66-11.71-28.6-22.59-7.26-13.32-2.6-28.25,7.25-38.84a53,53,0,0,1,35.84-16.58c13.34-.64,26.12,4.39,36.74,12.22,22.78,16.79,34.07,43.34,48.29,66.85,6.69,11.06,14.2,22.32,24.5,30.36,9.1,7.09,20.06,10.37,31.42,11.55,29.17,3,58.21-5,85.8-13.53,28.31-8.76,56.75-18.67,86.62-20,24.33-1.1,69.44,3.43,66.36,37.21-1.3,14.24-11.51,25.17-23.91,31.24-10.86,5.31-23,5.4-34.05,10-7.8,3.29-13.49,9.81-12.78,18.7.82,10.3,8.56,19.1,16.4,25.13a62.74,62.74,0,0,0,30.15,12.36c9.32,1.2,22,1.08,30.14-4.38,6.38-4.29,5.52-11.79-.45-15.94-7.93-5.52-16.45-2-22.4,4.56-7.52,8.24-12.34,18.5-20.06,26.68a110.12,110.12,0,0,1-26.23,20.36,124.57,124.57,0,0,1-66,15.58,116.5,116.5,0,0,1-32.3-6c-13.57-4.62-26-11.93-38.4-19-22.19-12.63-47.58-26-74-20.14-21.23,4.7-37.23,20.75-52.76,34.86-19.65,17.86-41.33,33-69.19,31.92-6.21-.25-12.62-1.44-18-4.59-8.63-5-10.33-13.32-9.28-22.64.7-6.16,3.22-21.32,11.1-22.11l5.93,4.93a10.49,10.49,0,0,1-2.39,4.66,23.69,23.69,0,0,1-4.59,3.68,32.29,32.29,0,0,1-9.27,4.92c-13.88,4.14-30.46-1.25-43.69-5.53-10.86-3.51-22.1-6.77-33.61-6.86-9.6-.07-18.73,2.48-25.94,9-.36.33.17.86.53.53,21.79-19.72,53-1.78,76.85,3,11.72,2.33,23.92,3.38,34.24-3.55,3.6-2.42,7.71-5.05,8.59-9.65.57-2.93-.46-5.35-3.53-6-10.78-2.33-14.2,16.1-15,23-.55,4.94-.91,10.43,1.41,15,2.44,4.82,7.2,8.17,12.11,10.13,22.54,9,49.83-1.68,68-15.43s33-32.45,53.54-43c28.42-14.54,58.16-2.62,83.93,11.84,22,12.36,43.25,24.64,68.88,27.22a125.74,125.74,0,0,0,62.79-10,111,111,0,0,0,48.32-40.36c3.45-5.26,6.71-10.93,11.63-15,6.24-5.13,15.35-5.86,20.92.82,7.09,8.49-4.14,14.19-11.22,15.77A59.42,59.42,0,0,1,503,360.21a61.38,61.38,0,0,1-36.76-17.28c-10.22-10.24-16.47-28.2-.53-36.57,10.4-5.45,22.88-5.26,33.66-9.88,10.15-4.35,19.55-11.66,24.15-21.93,3.87-8.67,4.38-19.25,0-27.82-5.67-11.06-18.44-15.61-29.76-18.37-28.29-6.87-57.9-1.57-85.44,6.1-30,8.35-59.21,20.13-90.29,23.88-14.57,1.76-30.17,2.18-44.39-1.91-15.4-4.44-26.23-15.58-35.12-28.42-15.52-22.41-25.34-48.83-44.74-68.47-16.47-16.68-39.47-26.76-62.65-18.71-19.75,6.86-39.58,28.56-30.35,50.58,4,9.56,12.35,16.75,21.23,21.7,9.42,5.24,19.77,7.2,30,10.15,10.82,3.11,22.51,7.74,26.44,19.28.16.46.88.26.72-.2Z"/></g><path class="cls-11" d="M371.07,272.49,367,360.78a35.35,35.35,0,0,1-25.27,31.71h0a35.35,35.35,0,0,1-43.24-21.87l-24.63-68.1Z"/><g class="cls-12"><polygon class="cls-11" points="370.17 291.85 371.07 272.49 365.3 274.27 370.17 291.85"/><path class="cls-11" d="M312.48,363.59l-31.72-41.86,17.68,48.89a35.32,35.32,0,0,0,65.72,1.83C347.55,384,325.12,380.27,312.48,363.59Z"/></g><rect class="cls-11" x="166.28" y="208.51" width="145.52" height="107.38" transform="translate(71.2 -50.4) rotate(14.12)"/><rect class="cls-13" x="166.99" y="212.51" width="145.52" height="93.74" transform="translate(70.53 -50.66) rotate(14.12)"/><circle class="cls-14" cx="319.69" cy="278.62" r="51.74" transform="matrix(0.15, -0.99, 0.99, 0.15, -3.03, 553.72)"/><rect class="cls-11" x="316.09" y="208.81" width="37.18" height="13.13" rx="5.36" transform="translate(62.66 -75.15) rotate(14.12)"/><circle class="cls-11" cx="259.96" cy="312.79" r="30.69" transform="translate(-97.16 118.16) rotate(-21.68)"/><circle class="cls-14" cx="261.91" cy="305.06" r="30.69" transform="translate(-118.41 174.6) rotate(-30.42)"/><path class="cls-14" d="M300.85,234.94l7.46-15.45a17.35,17.35,0,0,1,15.16-9.78h0a42.18,42.18,0,0,1,24.9,7.39l2,1.38a17.31,17.31,0,0,1,7.52,14.69l-.39,16Z"/><path class="cls-15" d="M322.38,215a39.69,39.69,0,0,1,23.46,7l1.9,1.3a16.32,16.32,0,0,1,4.85,5.22,14.82,14.82,0,0,0-6-8.62l-1.73-1.18a36.12,36.12,0,0,0-21.33-6.33,14.82,14.82,0,0,0-12.72,7.88A16.27,16.27,0,0,1,322.38,215Z"/><circle class="cls-14" cx="318.09" cy="275.93" r="46.87"/><circle class="cls-16" cx="318.09" cy="275.93" r="46.87"/><ellipse class="cls-16" cx="318.9" cy="278.15" rx="44.92" ry="45.54" transform="translate(-28.66 519.54) rotate(-75.88)"/><path class="cls-17" d="M356,254.54A44.19,44.19,0,0,1,273,282.89,44.19,44.19,0,1,0,356,254.54Z"/><circle class="cls-11" cx="261.91" cy="305.06" r="23.91" transform="translate(-16.74 15.21) rotate(-3.22)"/><circle class="cls-15" cx="260.08" cy="302.01" r="18.9" transform="translate(-55.86 544.99) rotate(-86.83)"/><path class="cls-14" d="M333,258.64a10,10,0,1,1-7.28-12.18A10,10,0,0,1,333,258.64Z"/><path class="cls-15" d="M331.27,255.78A10,10,0,1,1,324,243.6,10,10,0,0,1,331.27,255.78Z"/><path class="cls-18" d="M315.36,254.25a7.84,7.84,0,0,1,14.53-1.76,7.85,7.85,0,1,0-14.76,4.09A7.76,7.76,0,0,1,315.36,254.25Z"/><path class="cls-14" d="M351.72,284.74a10,10,0,1,1-7.28-12.18A10,10,0,0,1,351.72,284.74Z"/><path class="cls-15" d="M350,281.88a10,10,0,1,1-7.28-12.18A10,10,0,0,1,350,281.88Z"/><path class="cls-18" d="M334.1,280.35a7.84,7.84,0,0,1,14.53-1.76,7.84,7.84,0,0,0-15.44-1.49,7.75,7.75,0,0,0,.68,5.58A7.76,7.76,0,0,1,334.1,280.35Z"/><circle class="cls-14" cx="296.3" cy="270.8" r="10.03" transform="translate(-96.63 188.75) rotate(-30.63)"/><circle class="cls-15" cx="294.59" cy="267.93" r="10.03" transform="translate(-95.41 187.48) rotate(-30.63)"/><path class="cls-18" d="M288.41,268.85a7.84,7.84,0,0,1,14.53-1.76,7.84,7.84,0,1,0-14.76,4.1A7.82,7.82,0,0,1,288.41,268.85Z"/><path class="cls-14" d="M322.45,300.5a10,10,0,1,1-7.28-12.18A10,10,0,0,1,322.45,300.5Z"/><path class="cls-15" d="M320.74,297.64a10,10,0,1,1-7.28-12.18A10,10,0,0,1,320.74,297.64Z"/><path class="cls-18" d="M304.83,296.11a7.83,7.83,0,0,1,14.52-1.76,7.84,7.84,0,1,0-14.75,4.1A7.79,7.79,0,0,1,304.83,296.11Z"/><path class="cls-19" d="M325.1,258.33a2.76,2.76,0,1,0-3.28,1.77A2.63,2.63,0,0,0,325.1,258.33Z"/><path class="cls-19" d="M341.71,285a2.76,2.76,0,1,0-3.28,1.76A2.64,2.64,0,0,0,341.71,285Z"/><path class="cls-19" d="M311.34,300.14a2.76,2.76,0,1,0-3.29,1.76A2.65,2.65,0,0,0,311.34,300.14Z"/><path class="cls-19" d="M292.88,273.18a1.94,1.94,0,1,0-2.3,1.23A1.84,1.84,0,0,0,292.88,273.18Z"/><path class="cls-18" d="M244.44,303.08a19,19,0,0,1,23-13.76,18.73,18.73,0,0,1,7.75,4,17.14,17.14,0,0,0-31.1,11.33C244.21,304.15,244.31,303.61,244.44,303.08Z"/><path class="cls-18" d="M278,301.78l.34.56,0-.28Z"/><g class="cls-20"><path class="cls-18" d="M273.83,306.94a15.83,15.83,0,0,1-21.11,7.51,15.65,15.65,0,0,1-5.69-4.57,14.32,14.32,0,0,0,27.33-4.19C274.2,306.11,274,306.53,273.83,306.94Z"/><path class="cls-18" d="M246.12,302.52c-.06-.17-.13-.34-.19-.52,0,.08,0,.16,0,.24A2.92,2.92,0,0,0,246.12,302.52Z"/></g><path class="cls-18" d="M329.48,238.81A40.24,40.24,0,0,1,341.39,244a37.16,37.16,0,0,0-14.92-7.67c-21.09-5.3-42.79,8.64-48.45,31.15-.3,1.18-.54,2.37-.73,3.56C284.06,247.52,307.07,233.17,329.48,238.81Z"/><polygon class="cls-18" points="348.85 252.38 348.86 252.39 348.85 252.39 348.85 252.38"/><path class="cls-11" d="M107.6,206.2,69.46,285.93a35.32,35.32,0,0,0,7.25,39.9h0A35.34,35.34,0,0,0,125.15,327l53.92-48.34Z"/><g class="cls-12"><polygon class="cls-11" points="99.24 223.68 107.6 206.2 111.85 210.51 99.24 223.68"/><path class="cls-11" d="M116.11,314.18l47.75-21.86L125.15,327a35.32,35.32,0,0,1-58.76-29.48C75.55,315.59,97.08,322.9,116.11,314.18Z"/></g><circle class="cls-14" cx="149.96" cy="235.92" r="51.74" transform="translate(-112.75 331.46) rotate(-77.54)"/><rect class="cls-11" x="148.1" y="166.55" width="37.18" height="13.13" rx="5.36" transform="translate(286.1 381.67) rotate(-165.88)"/><circle class="cls-11" cx="186.41" cy="294.29" r="30.69" transform="translate(-51.18 39.52) rotate(-10.65)"/><circle class="cls-14" cx="188.36" cy="286.56" r="30.69" transform="translate(-33.46 25.04) rotate(-6.99)"/><path class="cls-14" d="M187.24,206.36l.73-17.15a17.3,17.3,0,0,0-8.73-15.78h0a42.13,42.13,0,0,0-25.42-5.28l-2.43.26a17.36,17.36,0,0,0-13.58,9.39l-7.24,14.3Z"/><path class="cls-15" d="M177.71,178.6a39.76,39.76,0,0,0-24-5l-2.29.25a16.15,16.15,0,0,0-6.74,2.3,14.75,14.75,0,0,1,9.34-4.76l2.08-.23a36.09,36.09,0,0,1,21.79,4.53,14.82,14.82,0,0,1,7.48,13A16.28,16.28,0,0,0,177.71,178.6Z"/><circle class="cls-14" cx="148.36" cy="233.23" r="46.87" transform="translate(-121.69 292.22) rotate(-69.86)"/><circle class="cls-16" cx="148.36" cy="233.23" r="46.87" transform="translate(-121.69 292.22) rotate(-69.86)"/><ellipse class="cls-16" cx="149.17" cy="235.45" rx="44.92" ry="45.54" transform="translate(-115.56 322.66) rotate(-75.88)"/><path class="cls-17" d="M187,212a44.65,44.65,0,0,1-83.92,28.65A44.65,44.65,0,1,0,187,212Z"/><circle class="cls-11" cx="188.36" cy="286.56" r="23.91" transform="translate(-121.64 139.94) rotate(-31.37)"/><circle class="cls-15" cx="186.54" cy="283.51" r="18.9" transform="matrix(0.93, -0.36, 0.36, 0.93, -89.68, 86.33)"/><path class="cls-19" d="M154.8,215.49a2.76,2.76,0,1,1,2.06,3.1A2.64,2.64,0,0,1,154.8,215.49Z"/><ellipse class="cls-19" cx="130.2" cy="231.82" rx="2.51" ry="2.75" transform="translate(-126.38 301.53) rotate(-75.88)"/><path class="cls-19" d="M147.14,258.83a2.76,2.76,0,1,1,2.06,3.11A2.64,2.64,0,0,1,147.14,258.83Z"/><path class="cls-19" d="M176.16,243.81A1.94,1.94,0,1,1,177.6,246,1.85,1.85,0,0,1,176.16,243.81Z"/><path class="cls-14" d="M163,223.79l-5.38,3a3.23,3.23,0,0,1-3.53-.88l-3.32-5.19a3.23,3.23,0,0,1-.73-3l3.12-12.41A3.25,3.25,0,0,1,157.1,203l8.7,2.19a3.24,3.24,0,0,1,2.36,3.94L165,221.53A3.27,3.27,0,0,1,163,223.79Z"/><path class="cls-15" d="M161.09,221.88l-5.38,3a3.25,3.25,0,0,1-3.53-.89l-3.32-5.19a3.25,3.25,0,0,1-.73-3l3.12-12.41a3.26,3.26,0,0,1,3.95-2.36l8.7,2.19a3.25,3.25,0,0,1,2.36,4l-3.12,12.41A3.26,3.26,0,0,1,161.09,221.88Z"/><path class="cls-18" d="M152.25,220.2a3.26,3.26,0,0,1-.72-3L154.1,207a3.25,3.25,0,0,1,4-2.36l6.29,1.58a3,3,0,0,1,.5.18,3.21,3.21,0,0,0-2.26-2l-6.29-1.59a3.25,3.25,0,0,0-3.94,2.36l-2.58,10.25a3.21,3.21,0,0,0,.73,3l3.32,5.19a3.2,3.2,0,0,0,1.06.78Z"/><path class="cls-14" d="M156.73,248.68l-3.32-5.19a3.27,3.27,0,0,0-3.54-.89l-5.38,3a3.26,3.26,0,0,0-2,2.26l-3.12,12.41a3.25,3.25,0,0,0,2.36,4l8.7,2.19a3.26,3.26,0,0,0,4-2.36l3.12-12.41A3.25,3.25,0,0,0,156.73,248.68Z"/><path class="cls-15" d="M154.83,246.79l-3.32-5.18a3.24,3.24,0,0,0-3.54-.89l-5.38,3a3.26,3.26,0,0,0-2,2.26l-3.12,12.42a3.24,3.24,0,0,0,2.35,3.94l8.71,2.19a3.24,3.24,0,0,0,3.94-2.36l3.13-12.41A3.26,3.26,0,0,0,154.83,246.79Z"/><path class="cls-18" d="M146.24,244.09a3.26,3.26,0,0,0-2,2.26l-2.58,10.25a3.25,3.25,0,0,0,2.36,3.94l6.29,1.58a2.52,2.52,0,0,0,.53.08,3.21,3.21,0,0,1-3,.73l-6.29-1.58a3.25,3.25,0,0,1-2.36-3.94l2.58-10.25a3.26,3.26,0,0,1,2-2.26l5.38-3a3.28,3.28,0,0,1,1.31-.18Z"/><path class="cls-14" d="M162.75,243.94l-3-5.38a3.25,3.25,0,0,1,.89-3.54l5.19-3.32a3.24,3.24,0,0,1,2.95-.73l12.42,3.13a3.24,3.24,0,0,1,2.36,3.94l-2.19,8.7a3.25,3.25,0,0,1-4,2.36L165,246A3.24,3.24,0,0,1,162.75,243.94Z"/><path class="cls-15" d="M164.65,242l-3-5.38a3.24,3.24,0,0,1,.89-3.54l5.18-3.32a3.26,3.26,0,0,1,3-.73l12.41,3.13a3.24,3.24,0,0,1,2.36,3.94l-2.18,8.71a3.26,3.26,0,0,1-3.95,2.36l-12.42-3.13A3.26,3.26,0,0,1,164.65,242Z"/><path class="cls-18" d="M166.34,233.2a3.25,3.25,0,0,1,3-.73l10.24,2.58A3.25,3.25,0,0,1,181.9,239l-1.58,6.29a3.84,3.84,0,0,1-.19.51,3.26,3.26,0,0,0,2.05-2.27l1.58-6.28a3.26,3.26,0,0,0-2.36-4l-10.24-2.58a3.25,3.25,0,0,0-3,.73L163,234.76a3.39,3.39,0,0,0-.78,1.07Z"/><path class="cls-14" d="M137.86,237.68l5.18-3.32a3.24,3.24,0,0,0,.89-3.54l-3-5.38a3.26,3.26,0,0,0-2.27-2l-12.41-3.13a3.26,3.26,0,0,0-4,2.36l-2.19,8.71a3.25,3.25,0,0,0,2.36,3.94l12.42,3.13A3.27,3.27,0,0,0,137.86,237.68Z"/><path class="cls-15" d="M139.74,235.77l5.19-3.32a3.25,3.25,0,0,0,.89-3.53l-3-5.38a3.26,3.26,0,0,0-2.26-2l-12.41-3.12a3.25,3.25,0,0,0-4,2.36l-2.19,8.7a3.26,3.26,0,0,0,2.36,3.95l12.41,3.12A3.25,3.25,0,0,0,139.74,235.77Z"/><path class="cls-18" d="M142.44,227.19a3.22,3.22,0,0,0-2.26-2l-10.24-2.58a3.26,3.26,0,0,0-4,2.36l-1.58,6.29a3.08,3.08,0,0,0-.08.53,3.27,3.27,0,0,1-.73-3l1.58-6.29a3.26,3.26,0,0,1,3.95-2.36l10.24,2.58a3.2,3.2,0,0,1,2.26,2l3,5.38a3.09,3.09,0,0,1,.18,1.3Z"/><path class="cls-18" d="M170.9,284.58a19,19,0,0,1,30.78-9.73,17.14,17.14,0,0,0-31.11,11.32C170.66,285.64,170.76,285.11,170.9,284.58Z"/><path class="cls-18" d="M204.47,283.27c.11.19.24.38.34.57a2.85,2.85,0,0,0,0-.29Z"/><g class="cls-20"><path class="cls-18" d="M200.29,288.44a15.84,15.84,0,0,1-26.81,2.93,14.32,14.32,0,0,0,27.33-4.18C200.65,287.61,200.48,288,200.29,288.44Z"/><path class="cls-18" d="M172.57,284c-.06-.17-.13-.34-.18-.52l0,.24Z"/></g><path class="cls-18" d="M159.75,196.11a40.24,40.24,0,0,1,11.91,5.16,37.16,37.16,0,0,0-14.92-7.67c-21.09-5.31-42.78,8.64-48.45,31.15-.3,1.18-.54,2.37-.73,3.55C114.34,204.82,137.35,190.47,159.75,196.11Z"/><polygon class="cls-18" points="179.12 209.68 179.13 209.69 179.13 209.68 179.12 209.68"/><path class="cls-15" d="M266.47,231.56l-59.75-15a3.88,3.88,0,0,1-2.82-4.71h0a3.89,3.89,0,0,1,4.72-2.82l59.74,15a3.88,3.88,0,0,1,2.82,4.71h0A3.88,3.88,0,0,1,266.47,231.56Z"/><circle class="cls-21" cx="94.54" cy="262.34" r="6.28" transform="translate(-184.31 263.51) rotate(-70.42)"/><path class="cls-18" d="M172.85,211.07a2.88,2.88,0,1,0,3.49-2.08A2.88,2.88,0,0,0,172.85,211.07Z"/><path class="cls-15" d="M217.48,229.55a4.16,4.16,0,1,1-3-5.05A4.17,4.17,0,0,1,217.48,229.55Z"/><path class="cls-22" d="M193.65,278.46a3.89,3.89,0,1,0,4.72-2.81A3.89,3.89,0,0,0,193.65,278.46Z"/><rect class="cls-11" x="211.01" y="253.22" width="15.04" height="6" rx="0.91" transform="translate(69.12 -45.57) rotate(14.12)"/><rect class="cls-15" x="210.49" y="250.85" width="15.04" height="6" rx="0.91" transform="translate(68.52 -45.52) rotate(14.12)"/><path class="cls-18" d="M212.44,252.11a.92.92,0,0,1,1.11-.67l10.85,2.73a1,1,0,0,1,.28.14h0a.91.91,0,0,0-.66-1.11l-10.86-2.73a.92.92,0,0,0-1.11.66l-.65,2.59a.91.91,0,0,0,.39,1Z"/><rect class="cls-11" x="241.94" y="261.01" width="15.04" height="6" rx="0.91" transform="translate(71.95 -52.89) rotate(14.12)"/><rect class="cls-15" x="241.42" y="258.63" width="15.04" height="6" rx="0.91" transform="translate(71.36 -52.83) rotate(14.12)"/><path class="cls-18" d="M243.37,259.89a.92.92,0,0,1,1.11-.67L255.33,262a.82.82,0,0,1,.28.14h0A.91.91,0,0,0,255,261l-10.85-2.73a.92.92,0,0,0-1.11.66l-.65,2.59a.91.91,0,0,0,.38,1Z"/><rect class="cls-11" x="222.78" y="272.51" width="15.04" height="6" rx="0.91" transform="translate(74.18 -47.86) rotate(14.12)"/><rect class="cls-15" x="222.26" y="270.13" width="15.04" height="6" rx="0.91" transform="translate(73.58 -47.81) rotate(14.12)"/><path class="cls-18" d="M224.21,271.39a.91.91,0,0,1,1.11-.66l10.85,2.73a1,1,0,0,1,.28.13h0a.92.92,0,0,0-.67-1.11l-10.85-2.73a.91.91,0,0,0-1.11.66l-.65,2.59a.9.9,0,0,0,.38,1Z"/><circle class="cls-23" cx="153.69" cy="178.65" r="1.97"/><path class="cls-23" d="M323,220.86a1.61,1.61,0,1,1-1.17-2A1.6,1.6,0,0,1,323,220.86Z"/><path class="cls-21" d="M87.6,273.5a1.88,1.88,0,1,1-1.36-2.28A1.88,1.88,0,0,1,87.6,273.5Z"/><path class="cls-21" d="M340,360.35a7.84,7.84,0,1,1,5.69,9.52A7.83,7.83,0,0,1,340,360.35Z"/><path class="cls-21" d="M348.09,342.67a2.25,2.25,0,1,1,1.63,2.73A2.25,2.25,0,0,1,348.09,342.67Z"/><rect class="cls-24" x="444.26" y="347.66" width="10.62" height="14.76"/><polygon class="cls-24" points="423.15 347.66 412.53 347.66 410.02 362.41 420.65 362.41 423.15 347.66"/><path class="cls-24" d="M388.37,174.87l-18.62-18.62a.85.85,0,0,0-.87-.21l-3.74,1.21a.86.86,0,0,0-.49,1.22l14.2,26.74a6.79,6.79,0,0,0,10.48,1.93l6-5.27a.85.85,0,0,0,0-1.3l-6.89-5.64Z"/><path class="cls-24" d="M371.82,159.05s-.21-6.29-4.26-10c-2.68-2.46-7.41-3.53-10.3-1.33h0l11.93,17.79Z"/><path class="cls-24" d="M410.39,170.49l-22.39,4s-2.56,14.65-1.85,14.13,28.16-6,28.16-6Z"/><path class="cls-25" d="M432.35,177.85s-.42-12.12-11.43-11.18c-14.34,1.22-21.44,3.05-21.44,3.05l-1.11,20.57Z"/><path class="cls-26" d="M440.15,163.77l-18.57,2.74a3.87,3.87,0,0,0-3.3,3.79l-.44,61.7,47.57.12L462.07,176l-1.54-5.21a6.59,6.59,0,0,0-5.28-4.64Z"/><polygon class="cls-24" points="458.69 188.76 473.96 203.89 480.63 189.5 470.5 178.23 458.69 188.76"/><path class="cls-25" d="M452.38,177.81c-3.54-5.8,1.43-13.36,8.08-11.95a5.25,5.25,0,0,1,1.62.62c5.58,3.37,15.21,14.08,15.21,14.08l-15.53,12.61Z"/><path class="cls-24" d="M480,190l8.15-26.49L494,165.1,491.71,197s-1.94,15.21-17.75,6.9Z"/><path class="cls-24" d="M488.15,163.52s-2-6.54-.58-11.71a7.22,7.22,0,0,1,8.13-5.08h0l-1.87,21.17Z"/><path class="cls-27" d="M427.75,131s-7.36,6.92-.11,9.42Z"/><path class="cls-25" d="M432.61,142.89a6,6,0,0,1-5.68,6.22,5.9,5.9,0,0,1-6-5.85,6,6,0,0,1,5.68-6.21A5.9,5.9,0,0,1,432.61,142.89Z"/><path class="cls-24" d="M433.48,154.15l-.39,9.81c-.14,3.44,1.84,5.36,5.12,5.46h0c2.81.08,5.94-1.16,5.94-4.2L444,149.76Z"/><path class="cls-28" d="M433.2,164a17.4,17.4,0,0,0,10.8-11.2c.89-2.8-10.5.38-10.5.38Z"/><path class="cls-24" d="M438.29,157.15h0c-5.58.51-10.6-3.62-11.19-8.31L425.93,139a10.87,10.87,0,0,1,8.84-12.2h0c5.81-.94,12.29,3,13.24,9l.82,7.67A12.33,12.33,0,0,1,438.29,157.15Z"/><path class="cls-27" d="M420.73,127.8a12.58,12.58,0,0,1,5-4.3c3.9-1.9,8.21-1.3,12.4-1.35,4.94-.06,9.15,2.62,10.68,5.56a4.51,4.51,0,0,1,4.65,4.38c.73,6-6.5,15.94-6.5,15.94s-.81-7.8-.81-7.85a10.59,10.59,0,0,1-2.54-.79,4,4,0,0,1-1.42-1.74,9.16,9.16,0,0,1-.39-4.32,20.61,20.61,0,0,0-3.25,1.18c-4.8,2.06-10,3.62-15.16,3.18a5.24,5.24,0,0,1-2.28-.58,4.48,4.48,0,0,1-1.88-3.43A8.68,8.68,0,0,1,420.73,127.8Z"/><path class="cls-29" d="M453.68,144.92a3.94,3.94,0,1,1-4.05-3.94A4,4,0,0,1,453.68,144.92Z"/><path class="cls-30" d="M448.42,146.07s-.08-2.95,2.67-2.57"/><path class="cls-25" d="M442.94,143.34c-.95,4.38,1.19,8.55,5.67,9.53,3.18.69,4.87-2.66,5.82-7s-.85-8.48-4-9.17S443.89,139,442.94,143.34Z"/><path class="cls-26" d="M444.59,143.7c-.95,4.37.85,8.48,4,9.17s6.52-2.3,7.47-6.68-.86-8.48-4-9.17S445.54,139.32,444.59,143.7Z"/><path class="cls-26" d="M451.9,138.47a26.06,26.06,0,0,0-.15-7.85,11.7,11.7,0,0,0-9.52-9.66c-.37-.07-.75-.13-1.16-.18a7,7,0,0,0-4.2.6,5.31,5.31,0,0,0-.9.62s6.34.17,9.33,3.79c3.38,4.09,4.18,9.65,3.9,13.36Z"/><path class="cls-24" d="M448,165l-7.8-1.25-10.38,1.53s-.63,6,8.14,6.31S448,165,448,165Z"/><rect class="cls-27" x="419.22" y="232.12" width="44.66" height="5.09"/><polygon class="cls-27" points="419.22 237.21 409.25 354.35 424.44 354.35 440.32 272.04 438.86 237.21 419.22 237.21"/><polygon class="cls-8" points="433.51 237.21 463.88 232.12 456.33 356.71 442.72 356.71 433.51 237.21"/><polygon class="cls-11" points="373.07 140.4 385.6 157.78 352.84 171.62 343.5 149.76 373.07 140.4"/><polygon class="cls-16" points="346.46 151.52 372.56 143.27 381.96 156.3 353.62 168.27 346.46 151.52"/><polygon class="cls-18" points="362.28 146.51 368.48 144.56 367.2 162.53 361.69 164.86 362.28 146.51"/><polygon class="cls-18" points="358.86 147.47 360.57 146.92 359.72 165.52 358.28 166.12 358.86 147.47"/><path class="cls-11" d="M431.49,366.54H456.3V362a1.33,1.33,0,0,0-1.4-1.17c-1.68-.08-4.44-.41-5.81-1.67a3.17,3.17,0,0,0-2.15-.82h-4.18l-12.95,4.38c-1.89.64-3,2.24-2.62,3.86h4.3Z"/><rect class="cls-8" x="427.12" y="366.54" width="29.18" height="1.47"/><path class="cls-11" d="M398.23,365.05H423v-4.57a1.34,1.34,0,0,0-1.4-1.18c-1.68-.08-4.44-.4-5.81-1.67a3.17,3.17,0,0,0-2.15-.82H409.5l-12.95,4.39c-1.89.64-3,2.23-2.62,3.85h4.3Z"/><rect class="cls-8" x="393.86" y="365.05" width="29.18" height="1.47"/><rect class="cls-24" x="210.88" y="263.62" width="10.62" height="14.76" transform="translate(366.73 583.28) rotate(-167.16)"/><polygon class="cls-24" points="257.01 258.93 267.63 258.93 270.13 273.68 259.51 273.68 257.01 258.93"/><path class="cls-24" d="M265.08,118.77l23.78-11.32a.87.87,0,0,1,.89.1l3.11,2.4a.85.85,0,0,1,.06,1.3l-22.33,20.46A6.8,6.8,0,0,1,260.07,130l-3.9-7a.85.85,0,0,1,.45-1.22l8.38-3Z"/><path class="cls-24" d="M286,109.41s2.3-5.87,7.37-8c3.34-1.42,8.16-.84,10.14,2.2h0l-17.19,12.77Z"/><path class="cls-24" d="M245.79,107.28l19.76,11.27s-2.49,14.67-3,13.94-24.55-15-24.55-15Z"/><path class="cls-27" d="M224.18,109.4s4.06-11.43,14.27-7.22c13.31,5.49,19.52,9.38,19.52,9.38l-5.13,19.95Z"/><path class="cls-8" d="M217.05,99.5l18.57,2.73a3.88,3.88,0,0,1,3.3,3.79l.44,66.91-47.56-5.09,3.33-56.08,1.54-5.2a6.59,6.59,0,0,1,5.28-4.65Z"/><polygon class="cls-24" points="197.33 125.66 183.24 139.62 176.57 125.23 186.7 113.95 197.33 125.66"/><path class="cls-27" d="M204.82,113.53c3.54-5.8-1.43-13.35-8.08-12a5.25,5.25,0,0,0-1.62.62c-5.58,3.38-15.21,14.08-15.21,14.08l15.53,12.61Z"/><path class="cls-27" d="M229.45,66.7s7.36,6.92.11,9.43Z"/><path class="cls-31" d="M224.59,78.62a6,6,0,0,0,5.68,6.22,5.92,5.92,0,0,0,6-5.85,6,6,0,0,0-5.69-6.22A5.91,5.91,0,0,0,224.59,78.62Z"/><path class="cls-24" d="M223.72,89.87l.39,9.81c.14,3.45-1.84,5.37-5.12,5.46h0c-2.81.08-5.94-1.15-5.94-4.2l.12-15.46Z"/><path class="cls-28" d="M224,99.68a17.4,17.4,0,0,1-10.8-11.2c-.89-2.8,10.5.39,10.5.39Z"/><path class="cls-24" d="M218.91,92.87h0c5.59.51,10.6-3.61,11.19-8.31l1.17-9.82a10.85,10.85,0,0,0-8.84-12.2h0c-5.81-.94-12.29,3-13.24,9l-.82,7.67A12.33,12.33,0,0,0,218.91,92.87Z"/><path class="cls-27" d="M236.91,63.31a3.47,3.47,0,0,0-3.48-1.94,3.67,3.67,0,0,0-2.23-3.65,3.05,3.05,0,0,0-3.31.51,3.47,3.47,0,0,0-2.1-1.32,2.51,2.51,0,0,0-2.31.75,1.36,1.36,0,0,0-1.23-.66,5,5,0,0,0-2.76.73,3.73,3.73,0,0,1-2,.25A11.46,11.46,0,0,0,211.6,60a10.41,10.41,0,0,0-2.48,2.25c-.24.31-.46.9-.85,1s-1.57-.55-2.14-.59a2.35,2.35,0,0,0-2,.85,1.43,1.43,0,0,0,.34,2c-.66-.36-1.91,1.7-2.05,2.11a3.25,3.25,0,0,0,.58,3.1c.34.41,1.24.64,1.41,1.06.28.68-.72,1.45-.15,2.23a1.63,1.63,0,0,0,.93.54c1.14.28,1.6-.07,1.61,1.25a7.27,7.27,0,0,0,.6,3.39,36.69,36.69,0,0,0,2.87,4.52S211,76,211,75.9s2.09-.59,2.28-.63c1-.24,1.88-.55,2.22-1.71,0-.12.07-.25.17-.31s.42,0,.59.19a3.71,3.71,0,0,0,3.32.63,6.4,6.4,0,0,0,2.91-1.9,6.55,6.55,0,0,0,1.59,1.19,3.33,3.33,0,0,0,2.78,0,3.3,3.3,0,0,0,1.8-2.11c1.8-.24,3.76.44,5.39-.35a3.35,3.35,0,0,0,1.66-3.9A3,3,0,0,0,236.91,63.31Z"/><path class="cls-29" d="M203.52,80.65a3.94,3.94,0,1,0,4-4A4,4,0,0,0,203.52,80.65Z"/><path class="cls-30" d="M208.78,81.79s.08-3-2.67-2.57"/><path class="cls-31" d="M214.26,79.06c1,4.38-1.19,8.56-5.67,9.53-3.18.69-4.87-2.66-5.82-7s.85-8.48,4-9.17S213.31,74.69,214.26,79.06Z"/><ellipse class="cls-6" cx="206.87" cy="80.67" rx="5.88" ry="8.11" transform="translate(-12.4 45.69) rotate(-12.24)"/><path class="cls-6" d="M205.3,74.2a26.14,26.14,0,0,1,.15-7.86A11.7,11.7,0,0,1,215,56.68c.37-.06.75-.12,1.16-.17a6.85,6.85,0,0,1,4.2.6,5.21,5.21,0,0,1,.91.62s-6.35.16-9.34,3.79c-3.38,4.08-4.18,9.64-3.9,13.36Z"/><path class="cls-24" d="M209.25,100.74l7.8-1.24L227.43,101s.63,6.06-8.14,6.31S209.25,100.74,209.25,100.74Z"/><rect class="cls-27" x="193.32" y="167.84" width="44.66" height="5.09" transform="translate(431.3 340.78) rotate(180)"/><path class="cls-11" d="M231.26,286.23l-24.19-5.51,1-4.46a1.33,1.33,0,0,1,1.62-.84c1.66.3,4.43.6,6-.34a3.17,3.17,0,0,1,2.28-.31l4.07.93,11.66,7.15c1.69,1,2.4,2.84,1.7,4.34h0Z"/><rect class="cls-26" x="206.54" y="283.94" width="29.18" height="1.47" transform="translate(373.45 611.4) rotate(-167.16)"/><path class="cls-11" d="M281.93,276.32H257.12v-4.57a1.34,1.34,0,0,1,1.4-1.18c1.68-.08,4.44-.4,5.81-1.67a3.15,3.15,0,0,1,2.15-.82h4.18l12.95,4.39c1.89.64,3,2.23,2.62,3.85h-4.3Z"/><rect class="cls-26" x="257.12" y="276.32" width="29.18" height="1.47" transform="translate(543.42 554.12) rotate(180)"/><path class="cls-25" d="M216.91,181.77l3.94-14,30,.52a12,12,0,0,1,11.53,9.7L276,263.42H254.69L242,198.78l-27.51,1Z"/><path class="cls-26" d="M188.81,177.26l2.67-12,36.21,3.13c8.77,2,11.88,5.57,11.88,18l-14,81.73L208.31,268l4.31-69.25-10.48-1.36a16,16,0,0,1-13.23-11.17h0A16,16,0,0,1,188.81,177.26Z"/><path class="cls-11" d="M165.29,85.72a6.26,6.26,0,0,1,.19-5.44c1.53-2.78,4-4.88,6.32-7,1.94-1.82,3.9-4.31,6.86-4a10.88,10.88,0,0,1,3.86,1.31c1.1.58,2.08,1.39,3.14,2.06a3,3,0,0,1,.71.66c.06.09.12.17.17.26l.06.12.12.23s0,.09.05.14a1.83,1.83,0,0,1,.08.25l0,.11a2.2,2.2,0,0,1,.06.37v.11a1.41,1.41,0,0,1,0,.29v.12c0,.13,0,.26-.06.39a2.87,2.87,0,0,1-3.28,2.17l-3.32-.57a2.48,2.48,0,0,1-3.35,3.2l-1,1.05A2.48,2.48,0,0,1,172.87,85l.71,3.29a2.87,2.87,0,0,1-2,3.37,2.66,2.66,0,0,1-.39.07l-.11,0h-.41l-.36,0-.12,0-.25-.07-.15,0-.23-.1-.12-.06a2.26,2.26,0,0,1-.26-.16,3.22,3.22,0,0,1-.7-.68l0-.09c-.88-1.26-1.93-2.51-2.68-3.85A7.43,7.43,0,0,1,165.29,85.72Z"/><path class="cls-24" d="M177.2,125.74l-8.15-26.5-5.88,1.59,2.32,31.88s1.94,15.21,17.75,6.91Z"/><path class="cls-24" d="M169.05,99.24s2-6.53.58-11.71a7.21,7.21,0,0,0-8.13-5.07h0l1.87,21.17Z"/></g></g></g></svg>