<svg width="18" height="18" fill="none" xmlns="http://www.w3.org/2000/svg"><path d="M5.155 12.847c-1.384-.983-2.479-2.26-3.098-3.068a1.27 1.27 0 0 1 0-1.557C3.177 6.76 5.864 3.75 9 3.75c1.407 0 2.723.605 3.848 1.405" stroke="#333" stroke-width="2" stroke-linecap="round" stroke-linejoin="round"/><path d="M10.598 7.415a2.25 2.25 0 1 0-3.183 3.182M3 15 15 3 3 15Zm4.5-.972c.487.145.992.22 1.5.222 3.136 0 5.823-3.01 6.943-4.472a1.27 1.27 0 0 0-.001-1.558 17.2 17.2 0 0 0-1.264-1.47" fill="#fff"/><path d="M10.598 7.415a2.25 2.25 0 1 0-3.183 3.182M3 15 15 3M7.5 14.028c.487.145.992.22 1.5.222 3.136 0 5.823-3.01 6.943-4.472a1.27 1.27 0 0 0-.001-1.558 17.2 17.2 0 0 0-1.264-1.47" stroke="#333" stroke-width="2" stroke-linecap="round" stroke-linejoin="round"/></svg>