<svg height="512pt" viewBox="0 0 512 512" width="512pt" xmlns="http://www.w3.org/2000/svg"><path d="m416 512h-320c-53.023438 0-96-42.976562-96-96v-320c0-53.023438 42.976562-96 96-96h320c53.023438 0 96 42.976562 96 96v320c0 53.023438-42.976562 96-96 96zm0 0" fill="#f5e6fe"/><path d="m288 202.671875c-5.886719 0-10.671875-4.769531-10.671875-10.671875v-32c0-5.886719-4.785156-10.671875-10.671875-10.671875h-114.65625c-5.886719 0-10.671875-4.769531-10.671875-10.671875s4.769531-10.65625 10.671875-10.65625h114.671875c17.648437 0 32 14.351562 32 32v32c0 5.886719-4.769531 10.671875-10.671875 10.671875zm0 0" fill="#d9a4fc"/><path d="m266.671875 352h-37.328125c-5.886719 0-10.671875-4.769531-10.671875-10.671875 0-5.886719 4.769531-10.671875 10.671875-10.671875h37.328125c5.886719 0 10.671875-4.785156 10.671875-10.671875v-42.671875c0-5.886719 4.769531-10.671875 10.671875-10.671875 5.886719 0 10.671875 4.765625 10.671875 10.671875v42.6875c-.015625 17.648438-14.367188 32-32.015625 32zm0 0" fill="#d9a4fc"/><g fill="#be63f9"><path d="m220.128906 150.367188-64.175781-21.375c-2.144531-.671876-4.320313-.992188-6.625-.992188-11.761719 0-21.328125 9.566406-21.328125 21.328125v192c0 9.085937 5.792969 17.230469 14.527344 20.289063l64.242187 21.40625c2.191407.671874 4.335938.976562 6.558594.976562 11.761719 0 21.328125-9.566406 21.328125-21.328125v-192c.015625-9.121094-5.792969-17.265625-14.527344-20.304687zm0 0"/><path d="m326.574219 287.183594c-3.980469-1.648438-6.574219-5.535156-6.574219-9.855469v-32h-42.671875c-5.886719 0-10.671875-4.785156-10.671875-10.671875s4.785156-10.65625 10.671875-10.65625h42.671875v-32c0-4.320312 2.59375-8.207031 6.574219-9.855469 3.984375-1.648437 8.578125-.738281 11.632812 2.320313l42.671875 42.671875c4.160156 4.160156 4.160156 10.910156 0 15.085937l-42.671875 42.671875c-3.054687 3.027344-7.632812 3.9375-11.632812 2.289063zm0 0"/></g></svg>