<svg id="Capa_1" enable-background="new 0 0 496.97 496.97" height="512" viewBox="0 0 496.97 496.97" width="512" xmlns="http://www.w3.org/2000/svg"><g><path d="m418.732 313.97h24c8.284 0 15-6.716 15-15v-29c0-8.284-6.716-15-15-15h-24z" fill="#b3e59f"/><path d="m418.732 372.97h24c8.284 0 15-6.716 15-15v-29c0-8.284-6.716-15-15-15h-24z" fill="#ffe07d"/><path d="m418.732 479.97h39l-2.452-38.202 2.452-7.818v-45.98c0-8.284-6.716-15-15-15h-24z" fill="#ff8086"/><path d="m433.722 313.97v59l-7.495 3.266-7.495-3.266-4.303-30.266 4.303-28.734 7.495-4.798z" fill="#ffd064"/><path d="m457.732 433.95v22.967l-44.665-30.447 5.665-53.5h14.99v42.3c0 1.67.83 3.23 2.22 4.16z" fill="#e5646e"/><path d="m418.732 254.97h24c8.284 0 15-6.716 15-15v-46.98l-4.665-7.137 4.665-12.883h-39z" fill="#7bb1ff"/><path d="m457.732 172.97v20.02l-21.79 14.52c-1.39.93-2.22 2.49-2.22 4.16v43.3l-7.719 4.67-7.271-4.67-5.75-59.926z" fill="#60a5ea"/><path d="m433.722 254.97v59h-14.99l-4.303-28.457 4.303-30.543z" fill="#95d6a4"/><path d="m464.738 160.437v-140.297c0-11.046-8.954-20-20-20h-356c-.33 0-.659.008-.985.024-10.588.514-16.771 10.846-16.771 21.561l.894 452.298c0 11.046 8.954 20 20 20l351.863 2.117c10.711 0 20.455-7.419 20.975-18 .016-.331.025-.664.025-1v-10.296c0-6.687-3.342-12.932-8.906-16.641l-27.188-18.125c-5.564-3.709-8.906-9.954-8.906-16.641v-203.593c0-6.687 3.342-12.932 8.906-16.641l27.188-18.125c5.563-3.71 8.905-9.954 8.905-16.641z" fill="#e3d2ff"/><path d="m463.702 477.97c-.52 10.58-9.26 19-19.97 19h-356c-11.05 0-20-8.95-20-20v-457c0-10.71 8.42-19.45 19-19.97v467.97c0 5.52 4.48 10 10 10z" fill="#c5b9ef"/><path d="m143.732 371.97h234c5.523 0 10-4.477 10-10l1-2v-127c0-5.523-4.477-10-10-10h-233l-2 1c-5.523 0-10 4.477-10 10v128c0 5.523 4.477 10 10 10z" fill="#ff8086"/><path d="m388.732 359.97v3c0 5.523-4.477 10-10 10h-236c-5.523 0-10-4.477-10-10v-130c0-5.523 4.477-10 10-10h3v133c0 2.209 1.791 4 4 4z" fill="#e5646e"/><path d="m300.732 30.97 2-1h106c5.523 0 10 4.477 10 10v12.5l-2.771 7.5 2.771 7.5v15l-2.771 9 2.771 6v9.5l-1 2c0 5.523-4.477 10-10 10h-107c-5.523 0-10-4.477-10-10v-68c0-5.523 4.477-10 10-10z" fill="#f8f7f7"/><path d="m418.732 106.97v3c0 5.523-4.477 10-10 10h-109c-5.523 0-10-4.477-10-10v-12.5l3.335-8.894-3.335-6.106v-15l3.335-7.5-3.335-7.5v-12.5c0-5.523 4.477-10 10-10h3v72c0 2.761 2.239 5 5 5z" fill="#e8e8e8"/><g><g><path d="m85.748 86.534-36.255.511c-8.284 0-15.149-6.003-15.149-14.287 0-7.249 3.03-12.584 9.865-13.982.976-.2 1.987-.305 3.023-.305h40c8.284 0 15 6.716 15 15 0 1.027-.103 2.031-.3 3-1.39 6.846-8.927 10.063-16.184 10.063z" fill="#ffe07d"/><path d="m101.932 76.47c-.6 2.94-2.05 5.56-4.09 7.6-2.72 2.72-6.47 4.4-10.61 4.4h-40c-8.28 0-15-6.72-15-15 0-4.14 1.68-7.89 4.39-10.6 2.04-2.04 4.67-3.5 7.61-4.1v7.7c0 5.52 4.48 10 10 10z" fill="#ffd064"/></g><g><path d="m85.748 156.534-36.255.511c-8.284 0-15.149-6.003-15.149-14.287 0-7.249 3.03-12.584 9.865-13.982.976-.2 1.987-.305 3.023-.305h40c8.284 0 15 6.716 15 15 0 1.027-.103 2.031-.3 3-1.39 6.846-8.927 10.063-16.184 10.063z" fill="#ffe07d"/><path d="m101.932 146.47c-.6 2.94-2.05 5.56-4.09 7.6-2.72 2.72-6.47 4.4-10.61 4.4h-40c-8.28 0-15-6.72-15-15 0-4.14 1.68-7.89 4.39-10.6 2.04-2.04 4.67-3.5 7.61-4.1v7.7c0 5.52 4.48 10 10 10z" fill="#ffd064"/></g><g><path d="m85.748 226.534-36.255.511c-8.284 0-15.149-6.003-15.149-14.287 0-7.249 3.03-12.584 9.865-13.982.976-.2 1.987-.305 3.023-.305h40c8.284 0 15 6.716 15 15 0 1.027-.103 2.031-.3 3-1.39 6.846-8.927 10.063-16.184 10.063z" fill="#ffe07d"/><path d="m101.932 216.47c-.6 2.94-2.05 5.56-4.09 7.6-2.72 2.72-6.47 4.4-10.61 4.4h-40c-8.28 0-15-6.72-15-15 0-4.14 1.68-7.89 4.39-10.6 2.04-2.04 4.67-3.5 7.61-4.1v7.7c0 5.52 4.48 10 10 10z" fill="#ffd064"/></g><g><path d="m85.748 296.534-36.255.511c-8.284 0-15.149-6.003-15.149-14.287 0-7.249 3.03-12.584 9.865-13.982.976-.2 1.987-.305 3.023-.305h40c8.284 0 15 6.716 15 15 0 1.027-.103 2.031-.3 3-1.39 6.846-8.927 10.063-16.184 10.063z" fill="#ffe07d"/><path d="m101.932 286.47c-.6 2.94-2.05 5.56-4.09 7.6-2.72 2.72-6.47 4.4-10.61 4.4h-40c-8.28 0-15-6.72-15-15 0-4.14 1.68-7.89 4.39-10.6 2.04-2.04 4.67-3.5 7.61-4.1v7.7c0 5.52 4.48 10 10 10z" fill="#ffd064"/></g><g><path d="m85.748 366.534-36.255.511c-8.284 0-15.149-6.003-15.149-14.287 0-7.249 3.03-12.584 9.865-13.982.976-.2 1.987-.305 3.023-.305h40c8.284 0 15 6.716 15 15 0 1.027-.103 2.031-.3 3-1.39 6.846-8.927 10.063-16.184 10.063z" fill="#ffe07d"/><path d="m101.932 356.47c-.6 2.94-2.05 5.56-4.09 7.6-2.72 2.72-6.47 4.4-10.61 4.4h-40c-8.28 0-15-6.72-15-15 0-4.14 1.68-7.89 4.39-10.6 2.04-2.04 4.67-3.5 7.61-4.1v7.7c0 5.52 4.48 10 10 10z" fill="#ffd064"/></g><g><path d="m85.748 436.534-36.255.511c-8.284 0-15.149-6.003-15.149-14.287 0-7.249 3.03-12.584 9.865-13.982.976-.2 1.987-.305 3.023-.305h40c8.284 0 15 6.716 15 15 0 1.027-.103 2.031-.3 3-1.39 6.846-8.927 10.063-16.184 10.063z" fill="#ffe07d"/><path d="m101.932 426.47c-.6 2.94-2.05 5.56-4.09 7.6-2.72 2.72-6.47 4.4-10.61 4.4h-40c-8.28 0-15-6.72-15-15 0-4.14 1.68-7.89 4.39-10.6 2.04-2.04 4.67-3.5 7.61-4.1v7.7c0 5.52 4.48 10 10 10z" fill="#ffd064"/></g></g><g><g><path d="m292.046 52.47h126.686v15h-126.686z" fill="#e8e8e8"/></g><g><path d="m292.046 82.47h126.686v15h-126.686z" fill="#e8e8e8"/></g></g><g><path d="m289.732 52.47h13v15h-13z" fill="#d8d8d8"/></g><g><path d="m289.732 82.47h13v15h-13z" fill="#d8d8d8"/></g><g><g><path d="m277.732 350.47h-115c-4.143 0-7.5-3.358-7.5-7.5s3.357-7.5 7.5-7.5h115c4.143 0 7.5 3.358 7.5 7.5s-3.358 7.5-7.5 7.5z" fill="#f8f7f7"/></g><g><path d="m251.732 320.47h-89c-4.143 0-7.5-3.358-7.5-7.5s3.357-7.5 7.5-7.5h89c4.143 0 7.5 3.358 7.5 7.5s-3.358 7.5-7.5 7.5z" fill="#f8f7f7"/></g><g><path d="m358.732 350.47h-51c-4.143 0-7.5-3.358-7.5-7.5s3.357-7.5 7.5-7.5h51c4.143 0 7.5 3.358 7.5 7.5s-3.358 7.5-7.5 7.5z" fill="#f8f7f7"/></g><g><path d="m358.732 320.47h-37c-4.143 0-7.5-3.358-7.5-7.5s3.357-7.5 7.5-7.5h37c4.143 0 7.5 3.358 7.5 7.5s-3.358 7.5-7.5 7.5z" fill="#f8f7f7"/></g></g><path d="m348.732 252.97h-173l-2 1c-5.523 0-10 4.477-10 10v8c0 5.523 4.477 10 10 10h174c5.523 0 10-4.477 10-10l1-2v-7c0-5.523-4.477-10-10-10z" fill="#f8f7f7"/><path d="m358.732 269.97v3c0 5.52-4.48 10-10 10h-176c-5.52 0-10-4.48-10-10v-10c0-5.52 4.48-10 10-10h3v11c0 3.31 2.69 6 6 6z" fill="#e8e8e8"/></g></svg>