<svg xmlns="http://www.w3.org/2000/svg" version="1.1" xmlns:xlink="http://www.w3.org/1999/xlink" xmlns:svgjs="http://svgjs.com/svgjs" width="512" height="512" x="0" y="0" viewBox="0 0 16.933333 16.933334" style="enable-background:new 0 0 512 512" xml:space="preserve" class=""><g><g id="layer6" stroke-linecap="round" stroke-linejoin="round" stroke-width="3.78" transform="scale(.265)"><path id="path845" d="m49.890625 40.988281 7.570313 13.105469-8.267579-1.630859a1.0001006 1.0001006 0 0 0 -1.136718.65625l-2.716797 7.972656-7.41211-12.832031c4.69099-1.194152 8.832269-3.771016 11.962891-7.271485z" fill="#ffffff" data-original="#000000" class=""></path><path id="path843" d="m14.109375 40.986328c3.131312 3.501916 7.272143 6.081299 11.964844 7.275391l-7.41211 12.830078-2.716797-7.972656a1.0001006 1.0001006 0 0 0 -1.136718-.65625l-8.2675784 1.630859z" fill="#ffffff" data-original="#000000" class=""></path><path id="path841" d="m32 2.9960938c-12.162097 0-21.998047 9.8437622-21.998047 22.0058592.000001 12.162096 9.83595 21.998047 21.998047 21.998047s21.998047-9.835951 21.998047-21.998047c0-12.162097-9.83595-22.0058592-21.998047-22.0058592zm0 4.0019531c9.929269.0000007 17.998047 8.0746361 17.998047 18.0039061-.000004 9.929269-8.068778 17.998047-17.998047 17.998047-9.92927 0-17.996093-8.068778-17.996094-17.998047 0-9.92927 8.066824-18.0039065 17.996094-18.0039061zm0 2c-8.848391-.0000004-16.003906 7.1555161-16.003906 16.0039061.000001 8.84839 7.155516 15.996094 16.003906 15.996094 8.848388 0 15.99609-7.147705 15.996094-15.996094 0-8.84839-7.147706-16.0039054-15.996094-16.0039061zm0 4.8652341c.709514-.000001.831402.310512 1.019531.501953 1.152299 1.391956 2.066179 3.135225 3.107422 4.72461 1.810502.45699 3.681478.790497 5.447266 1.490234.240208.119763.630193.220109.791015.820313.160747.599916-.063515 1.233364-.613281 1.830078-.962234 1.229575-2.056152 2.509889-3.078125 3.705078.045884.685114.399553 4.080354.265625 5.640625-.039674.265459.042762.586865-.53125 1.003906-.574008.417045-.858321.243519-1.123047.199219-1.747953-.450286-3.511359-1.317814-5.285156-1.992188-.88387.351746-3.710633 1.611037-5.285156 1.992188-.264726.0443-.547085.217823-1.121094-.199219-.574008-.417043-.493529-.738447-.533203-1.003906-.123549-1.811843.15581-3.627056.267578-5.640625-.440867-.529623-2.731516-3.064711-3.537109-4.414063-.123954-.23808-.373548-.446305-.154297-1.121093.219251-.674789.548854-.700551.789062-.820313 1.656402-.651193 3.608604-1.030307 5.447266-1.490234.544945-.860438 2.016505-3.461399 3.109375-4.72461.188129-.191442.308063-.501954 1.017578-.501953zm0 2.427735c-.280298.394958-.614743.916672-.958984 1.476562-.44928.73635-.964842 1.607538-1.492188 2.384766-.134893.190096-.181978.322212-.501953.554687-.319976.232475-.447444.233188-.669922.302735-1.471612.396199-2.939749.69606-4.429687 1.136718.836074 1.06453 1.959554 2.332409 2.908203 3.527344.13911.187034.246921.266426.36914.642578.12222.376154.082666.5052.080079.738282-.070684 1.526065-.238174 3.012238-.28711 4.568359 1.435323-.538907 2.809652-1.133951 4.259766-1.681641.220867-.074504.327144-.156251.722656-.15625 1.548863.331899 3.321902 1.263278 4.982422 1.837891-.069876-1.532398-.212879-3.019337-.28711-4.568359-.002607-.233082-.040187-.362128.082032-.738282.122218-.376153.230031-.455544.36914-.642578.950502-1.191676 1.971144-2.287612 2.908204-3.527344-1.47472-.412932-2.934389-.737516-4.429688-1.136718-.222478-.069547-.3519-.070256-.671875-.302735-.319973-.232476-.367062-.364588-.501953-.554687-.835895-1.275094-1.572824-2.579214-2.451172-3.861328z" fill="#ffffff" data-original="#000000" class=""></path></g></g></svg>