<svg xmlns="http://www.w3.org/2000/svg" viewBox="0 0 1500.08 1307.15"><defs><style>.cls-1{fill:#eaeff8;}.cls-1,.cls-10,.cls-11,.cls-12,.cls-13,.cls-14,.cls-15,.cls-16,.cls-17,.cls-18,.cls-19,.cls-2,.cls-20,.cls-21,.cls-22,.cls-23,.cls-3,.cls-4,.cls-5,.cls-6,.cls-7,.cls-9{fill-rule:evenodd;}.cls-2{fill:#d2dfee;}.cls-3{fill:#b25fb2;}.cls-4{fill:#825db3;}.cls-5{fill:#dfedfa;}.cls-6{fill:#eff9fc;}.cls-7,.cls-8{fill:#a4d0fc;}.cls-9{fill:#4f8ecc;}.cls-10{fill:#fff;}.cls-11{fill:#284191;}.cls-12{fill:#3b5bb3;}.cls-13{fill:#ffb27d;}.cls-14{fill:#4567c6;}.cls-15{fill:#61a0e0;}.cls-16{fill:#e2a36a;}.cls-17{fill:#f4be84;}.cls-18{fill:#f57a44;}.cls-19,.cls-24{fill:#fc9774;}.cls-20{fill:#f06a30;}.cls-21{fill:#ffe2dc;}.cls-22{fill:#f37960;}.cls-23{fill:#125aa3;}</style></defs><title>Zasób 1</title><g id="Warstwa_2" data-name="Warstwa 2"><g id="Layer_1" data-name="Layer 1"><path class="cls-1" d="M716.55,0C882.87,0,863.88,293.73,984,383.26c158.91,118.5,432.32,59.82,432.32,263.2,0,357-354.62,486.38-741.09,486.38S-41,934.82,74.06,578.73,330.09,0,716.55,0Z"/><path class="cls-2" d="M733.56,1307.15c374.41,0,679.8-14.58,679.8-32.48s-305.39-32.51-679.8-32.51-679.81,14.61-679.81,32.51S359.14,1307.15,733.56,1307.15Z"/><path class="cls-3" d="M972.82,298.37v924.25H208.25c-11.37-13.92-18-30.79-18-48.86V298.37a25,25,0,0,1,25-25H947.89A25,25,0,0,1,972.82,298.37Z"/><path class="cls-4" d="M208.35,1222.62h-.1c-11.37-13.92-18-30.79-18-48.86V298.37a25,25,0,0,1,25-25h24.12c-.6,77.78-2.07,155.53-3.64,233.27-2,100.55-3.08,201.11-4.77,301.67-1.55,91.91-5.9,183.75-7.59,275.66a1.5,1.5,0,0,0,1.55,1.51,1.52,1.52,0,0,0,1.3-.73c13.81-22.89,39.55-32.87,64.65-37.76a268.91,268.91,0,0,1,51.3-4.43c13.42,0,26.83.71,40.07,1.61,28.09,2,56,5.7,84,8.78,26.77,3,53.71,4,80.65,4,12.42,0,24.83-.21,37.24-.52,49-1.28,97.93-4.6,146.94-5.38q14.58-.23,29.15-.21c39.25,0,78.54,1.07,117.78,1.83,31.58.61,63.23,1.16,94.85,1.26V1086H288.05v.28c-54.67,3.31-97.79,41.15-97.79,87.32,0,18.08,6.62,34.93,18,48.88C208.29,1222.55,208.31,1222.6,208.35,1222.62Z"/><path class="cls-4" d="M972.82,1086v175.15H288.05V1261c-33.21-2-62.2-16.81-79.8-38.43-11.37-14-18-30.8-18-48.88,0-46.17,43.12-84,97.79-87.32V1086Z"/><path class="cls-5" d="M672.43,309.69s6.15-.51,16.91-1.13,26.14-1.54,44.58-2.21,40-1.41,63-1.83c11.54-.18,23.45-.53,35.55-.55s24.4-.19,36.7-.26l18.43.07a57.3,57.3,0,0,1,20.09,3.44A48,48,0,0,1,925.18,318c5.1,4.73,8.42,10.79,11,16.72,4.74,12.1,4.32,24.93,3.94,35.05-.33,10.57-.64,20.55-.93,29.78-.6,18.45-1.59,33.81-2.06,44.57S936.1,461,936.1,461a1.33,1.33,0,0,1-2.66,0s-.49-6.15-1.08-16.92-1.44-26.12-2.06-44.57c-.27-9.23-.58-19.21-.91-29.78-.07-2.65-.15-5.32-.22-8s-.39-5.08-.59-7.67-1-5-1.33-7.51-1.58-4.79-2.3-7.22c-2.22-4.46-4.7-8.85-8.51-12.13a39.21,39.21,0,0,0-13.08-7.7,44.17,44.17,0,0,0-15.74-2.54l-18.43.06c-12.3-.09-24.6-.18-36.7-.25s-24-.38-35.55-.55c-23.06-.43-44.59-1.09-63-1.85s-33.82-1.71-44.58-2.21S672.43,311,672.43,311a.64.64,0,0,1-.61-.72A.65.65,0,0,1,672.43,309.69Z"/><path class="cls-6" d="M972.82,1101.31V1250H305.41v-.25c-30.2-1.62-56.81-12.61-74.17-29-.57-.5-1.09-1-1.6-1.53a70,70,0,0,1-14.51-20.62c-.24-.51-.47-1-.67-1.54a55.76,55.76,0,0,1-4.34-20.65v-1.53a55.84,55.84,0,0,1,4.34-20.64c.2-.48.43-1,.67-1.5a69.6,69.6,0,0,1,14.49-20.64c.51-.51,1-1,1.58-1.51,17.36-16.4,44-27.45,74.21-29.08v-.2Z"/><path class="cls-7" d="M972.82,1130.58v1.52H229.62c.51-.51,1-1,1.58-1.51Z"/><path class="cls-7" d="M972.82,1152.74v1.5H214.46c.2-.48.43-1,.67-1.5Z"/><rect class="cls-8" x="210.12" y="1174.88" width="762.69" height="1.52"/><path class="cls-7" d="M972.82,1197.06v1.54H215.13c-.24-.51-.47-1-.67-1.54Z"/><path class="cls-7" d="M972.82,1219.22v1.53H231.24c-.57-.5-1.09-1-1.6-1.53Z"/><path class="cls-9" d="M972.82,1253.43l-19.52-.09-189.66-1-306.15-1.58q-76-.4-152.08-.78H972.82v3.41Z"/><path class="cls-5" d="M972.82,1250H305.41v-.25c-30.2-1.62-56.81-12.61-74.17-29H284.4a97.68,97.68,0,0,0,17.63,7.08c20.41,6,41.83,7.58,63.24,7.58,13.82,0,27.66-.65,41.19-1.25,10.48-.47,21-.63,31.46-.63,17,0,34.1.47,51.17.92s34.11.93,51.18.93c2.19,0,4.39,0,6.59,0,66.62-.51,133.07-6.78,199.71-6.78h4.8c26.52.13,53.06,1.27,79.58,1.27,11.55,0,23.11-.22,34.66-.84q3-.13,6-.38c21.32-1.57,42.49-5.4,63.75-7.88h37.44v1c-.38,9.32-.07,18.92,0,28.26Zm0-30.8H951c6.22-.47,12.48-.75,18.72-.75,1,0,2.06,0,3.1,0v.73Zm-691.28,0h-51.9a70,70,0,0,1-14.51-20.62h40.65a95.83,95.83,0,0,0,25.76,20.62Zm-27.05-22.16h-40a55.76,55.76,0,0,1-4.34-20.65h35.52a37.78,37.78,0,0,0,8.83,20.63,0,0,0,0,0,0,0Zm-9-22.18H210.12a55.84,55.84,0,0,1,4.34-20.64H250.7a38.59,38.59,0,0,0-5.17,20.64Zm6.06-22.14H215.13a69.6,69.6,0,0,1,14.49-20.64h44.7c-.73.38-1.47.78-2.2,1.19a57.29,57.29,0,0,0-20.53,19.45Zm25.76-22.16H231.2c17.36-16.39,44-27.44,74.21-29.07v-.2H972.82v17.36a92,92,0,0,1-9.26.51c-.76,0-1.52,0-2.3,0-33.25-1-66.48-1.38-99.73-1.38q-15.59,0-31.18.11-55.62.27-111.21,1c-67.89.8-135.8,1.76-203.72,2h-3.7c-22.15,0-44.47-.67-66.8-1.34s-44.72-1.34-67-1.34c-19.65,0-39.24.53-58.68,2C305.32,1121.3,290.23,1124.48,277.35,1130.58Z"/><path class="cls-9" d="M274.32,1132.1h-44.7c.51-.51,1-1,1.58-1.51h46.15C276.33,1131.08,275.31,1131.57,274.32,1132.1Z"/><path class="cls-9" d="M250.7,1154.24H214.46c.2-.48.43-1,.67-1.5h36.46C251.28,1153.25,251,1153.76,250.7,1154.24Z"/><path class="cls-9" d="M245.64,1176.41H210.12v-1.53h35.41C245.55,1175.39,245.59,1175.9,245.64,1176.41Z"/><path class="cls-9" d="M255.78,1198.6H215.13c-.24-.51-.47-1-.67-1.54h40C254.91,1197.58,255.34,1198.09,255.78,1198.6Z"/><path class="cls-7" d="M972.82,1220.75H935.38c5.18-.61,10.39-1.13,15.62-1.53h21.82v1.53Zm-688.42,0H231.24c-.57-.5-1.09-1-1.6-1.53h51.9C282.5,1219.74,283.44,1220.25,284.4,1220.75Z"/><path class="cls-3" d="M856.37,1009.47c-23.52,0-47.12-.56-70.4-.84-88.14-1.08-176.23-4.07-264.85-4.07-44.73,0-88.48-2-132.36-4.08-20.39-1-42.65-4.74-64.1-4.74-16.78,0-33.08,2.33-47.58,10.15-2.47-41.42,2.31-84.57,6.18-125.65C289.42,815,291,748.76,291,682.7c0-88.73-4.21-179.63,1.89-268.15,1.83-26.43,9-47,36.67-54,35.76-9.07,77.4-12.48,114.26-17.56,22.18-3.08,45.13-3.93,68.22-3.93,29.84,0,60,1.43,89.08,1.43,57.61,0,113.61,4.26,170.17,8.27,36.91,2.59,95.14,6.88,118.61,40.63,13.4,19.3,6,39.65,6.09,61.11.16,27.32,2,55.54,2,83.52,0,63-4.08,124.39-4.08,187.41V878.72c0,23.35-.47,46.41,4,68.9,3.91,19.64,10.77,40.2,7.92,60.7C889.5,1009.21,872.94,1009.47,856.37,1009.47Z"/><path class="cls-10" d="M488.67,485.29h-47.6L385.29,682.07h38.38l13.58-52H490l14.06,52h39.67l-55-196.78ZM442.61,601.46l11.77-45c2.81-11.5,6.15-27.63,8.69-39.93h.78c2.56,12,5.88,27.9,8.94,40.18l11.8,44.79Zm116.16,15.61h70.11V591H558.77v26.1ZM777,485.29H651.39V517H730v1L643.72,660.82v21.25H777.8v-32H692.6v-1L777,508.84Z"/><path class="cls-10" d="M361.73,800H331.6v14h13.28v22.47c-1.56.73-4.79,1.32-9.09,1.32-15.18,0-26.54-10.77-26.54-32.05,0-22.23,12.43-32.27,28.81-32.27,8.13,0,13.38,1.44,17.58,3.35l3.7-14.59c-4.43-2.16-12.19-3.83-21.52-3.83-26.43,0-47.1,16.62-47.1,47.71,0,14.6,4.55,27.14,12.44,34.9s18.39,11.24,32.38,11.24a81.54,81.54,0,0,0,26.19-4.55V800Zm66.37,36.33H395.22v-77H377.51v91.94H428.1v-15Zm46.49-78.41c-24,0-39.22,20.19-39.22,47.69,0,26.68,13.77,47,38,47,22.82,0,39.09-16.38,39.09-48.42,0-24.52-12.42-46.27-37.91-46.27Zm-.47,14.47c13.51,0,19.84,15.65,19.84,32.51,0,18.54-6.8,33.23-19.95,33.23s-20.1-14.82-20.1-32.87c0-16.86,6.33-32.87,20.21-32.87Zm100.43-10.17A44.37,44.37,0,0,0,554.82,758c-19.84,0-31.67,11.6-31.67,26.66,0,12,8.6,20.57,22.47,26.56,10.16,4.41,14.59,8.36,14.59,14.93,0,6.81-5.15,11.47-15,11.47a41.08,41.08,0,0,1-19.84-5.14l-3.49,14.84c4.32,2.63,13.54,5.14,22.6,5.14,21.41,0,33.49-11.72,33.49-27.75,0-12.07-6.59-20.55-21.3-27.13C545.5,792.43,541,789.43,541,782.87c0-5.15,4.17-10.18,13.52-10.18a35.12,35.12,0,0,1,16.35,3.95l3.72-14.47Zm65.53,0A44.55,44.55,0,0,0,620.34,758c-19.84,0-31.67,11.6-31.67,26.66,0,12,8.59,20.57,22.45,26.56,10.18,4.41,14.6,8.36,14.6,14.93,0,6.81-5.14,11.47-14.94,11.47a41.14,41.14,0,0,1-19.86-5.14l-3.45,14.84c4.3,2.63,13.49,5.14,22.58,5.14,21.41,0,33.49-11.72,33.49-27.75,0-12.07-6.57-20.55-21.28-27.13-11.25-5.13-15.8-8.13-15.8-14.69,0-5.15,4.19-10.18,13.53-10.18a35.34,35.34,0,0,1,16.38,3.95l3.71-14.47Zm58.56-2.86H676.42l-26.06,91.94H668.3L674.61,827h24.63l6.59,24.29h18.52l-25.71-91.94Zm-21.51,54.26,5.5-21c1.3-5.37,2.86-12.91,4.06-18.64h.36c1.2,5.6,2.76,13,4.2,18.77l5.49,20.91Zm102.1-6.09A24.33,24.33,0,0,0,795,784.64c0-24.63-23.44-26.07-35-26.07a143.85,143.85,0,0,0-23.65,1.91v90.77H753.9V813.94h6c8.38,0,12.08,3.7,14.48,15.55,2.16,11.09,4.41,19.11,5.73,21.76h18.17c-1.79-3.48-4.18-14.48-6.82-25.36-2.16-9.32-5.73-15.55-12.19-18v-.36Zm-25.33-6.7v-28c1.43-.48,4.16-.73,8.12-.73,6.44,0,15.31,2.27,15.31,14.1,0,8.74-6.11,14.59-16.16,14.59Zm99-41.47L844,781.77c-2.61,6.7-4.9,12.69-6.69,18.78h-.24c-2.16-6.34-4.3-12.08-6.93-18.65l-9.11-22.59H801.35l26.06,54.5v37.44H845.1v-38l27.26-53.92Z"/><path class="cls-11" d="M1214.53,663.38c-28.78-29.57-82.18-45.71-103.37-8-50.18,29.07-83,148.73-18.91,188.58-.64,32.27,16,64.32,43.56,78.09,6.61,3.34,16.94,8,18.25,9.36-1.7-1.65,20.41,61.44,89.12,32.55C1363.1,913.57,1268.43,718.67,1214.53,663.38Z"/><path class="cls-12" d="M1045.63,1122.43c-9.11,12.46-39.51-6.26-74.74-25-40-21.29-86.34-42.59-114.6-18-43.51,37.86,106,180.79,276.24,184.6,205.21,4.59,298.86-139.18,266.7-184.6-18-25.3-52.31-4.42-82.84,16.43-24.2,16.55-46,33.09-55.2,26.6C1236.52,1110.64,1102.06,1115.84,1045.63,1122.43Z"/><path class="cls-13" d="M1108.28,1240c33.48,7.07,122.48,1.88,128.82,4.47,14,5.78,4.37,32.66-24.45,40-19.57,5-50.93,2.49-100.84-21.49Z"/><path class="cls-14" d="M856.29,1079.4c53.91-42.55,133.36,94.62,280,172.18,0,0-1.91,17-17,19.86,0,0-131.15-32.61-201.26-84.17C860.07,1144.69,834.2,1096.85,856.29,1079.4Z"/><path class="cls-12" d="M1119.24,1271.44c15.12-2.85,17-19.86,17-19.86-14-7.4-27.43-15.38-40.25-23.69-30,12.95-55.54,14.8-67.68,14.8A940,940,0,0,0,1119.24,1271.44Z"/><path class="cls-14" d="M1067.21,1248.73s.94,10.4,12.3,18c0,0,112-10.89,206-56.06,82-39.39,128.33-109.3,113.71-131.25-20.82-31.2-55.81-1.86-154.18,66.25C1200.66,1176.36,1067.21,1248.73,1067.21,1248.73Z"/><path class="cls-12" d="M1285.52,1203.07c-83.72,40.2-190.37,54.73-212.87,57.43a30.26,30.26,0,0,0,6.86,6.21s112-10.89,206-56.06c75.11-36.09,120.13-97.65,116-124.61C1397.76,1115.7,1354.26,1170.06,1285.52,1203.07Z"/><path class="cls-15" d="M1040.33,1125.93s41.09,31,108.22,30.11,125.26-33.81,125.29-33.83c-5.3,2-9.67,2.34-12.65.22-24.67-11.79-159.13-6.59-215.56,0A9.09,9.09,0,0,1,1040.33,1125.93Z"/><path class="cls-13" d="M1080.76,818.76c38.17,10.94-4.24,184.26-29.33,237.33-33.94,71.89-141.87,134.32-141.87,134.32l-11.37-6.31S1005.9,1049.29,1016,1022.83,1049.11,809.69,1080.76,818.76Z"/><path class="cls-16" d="M915.64,1170.48s-34.36,10.07-39,11.66c-17.94,6.24-16.71,11.75-16.62,13.55,0,0-6.4,8.87-5.4,10.36,1.73,2.52,3.53-.27,12.63-9.2,2-2,7.69-6.71,8.66-6s-4.53,4.34-7.89,7.27c-2.82,2.45-9.3,15.91-6.41,16.83,2.7.87,8.45-10,11.53-13.06,2.31-2.32,9-6.53,10.19-5.69s-5.44,7-6.53,8.54-6.56,9.56-4.47,11.21c1.83,1.45,6.07-4.83,11.31-10.18,3.91-4,16.92-10.7,18.65-10.74,2,0-.07,5-2.83,8.78s-4.76,9.87-1.83,10.54,8.11-10.66,14.57-18.08,7.52-17.38,7.52-17.38S917.58,1170.59,915.64,1170.48Z"/><path class="cls-9" d="M1095.37,997c0,45.73-14.91,79.61-49.74,125.45,68.38,23.36,140.54,21.29,215.56,0-21.82-73.29-71.69-119-71.69-127.83s32-41.88,49.36-91.93c17.72-51,10-77.6,10-77.6-64.29-28.82-99.8-36.11-172.94-6.17l-4.91,45s-4.54,34.59-2.31,50.11S1095.37,972.6,1095.37,997Z"/><path class="cls-13" d="M1110.13,806.86c60.58-25.39,45.71-18.28,98.91,3.91-9.65,6-15.41,45.38-59.93,58.47C1107.64,866,1108,841.46,1110.13,806.86Z"/><path class="cls-13" d="M1196.18,699.28s-17.45,65.55-2.48,111l-41.4,9.48-30.7-14.35s8.74-19.71,6.41-57.82C1126.31,719.61,1196.18,699.28,1196.18,699.28Z"/><path class="cls-13" d="M1248.82,825.07c38.17,10.94-4.24,184.26-29.32,237.32-34,71.9-141.89,134.34-141.89,134.34l-11.34-6.32S1174,1055.6,1184,1029.14,1217.17,816,1248.82,825.07Z"/><path class="cls-13" d="M1068.37,1184.08c-13.46,3.32-30.49,5-31.72,10.48-2.61,12.07,16.54,19.71,26.26,17,9.47-3.26,17.62-16.11,17.62-16.11S1081.71,1180.76,1068.37,1184.08Z"/><path class="cls-17" d="M1011.09,1211c-1.69-1.14,6.67-12.56,9.34-14.3,2.15-1.42,4.35-3.42,25-7.61l-7.3,10.62s-12.84.85-14.61,1.55S1017.82,1211.27,1011.09,1211Z"/><path class="cls-17" d="M1026.15,1233.58c-2.9-.33.7-13.09,2.21-15.87,1.9-3.54,1.39-5.2,13.82-22.22l2,12.41s-9.75,11.08-10.58,12.77S1030.62,1231.66,1026.15,1233.58Z"/><path class="cls-17" d="M1036,1235.71c-2.78-.33.69-12.58,2.14-15.26,1.82-3.38,1.35-5,13.26-21.31l1.93,11.91s-9.38,10.63-10.18,12.29S1040.31,1233.88,1036,1235.71Z"/><path class="cls-17" d="M1048.83,1230.94c-2.35-.28.59-10.67,1.83-12.9,1.53-2.87,1.12-4.21,11.22-18l1.63,10.08s-7.94,9-8.63,10.38S1052.46,1229.37,1048.83,1230.94Z"/><path class="cls-13" d="M1257.11,831.67c13,46-23.4,176.39-45.17,222.21-27.57,58-101.1,118.14-129.47,139.93,21.32-13.09,107.38-68.64,137-131.42C1242.35,1014.05,1279.55,865.89,1257.11,831.67Z"/><path class="cls-13" d="M1084.84,1239.61c-33.48,7.07-122.47,1.88-128.82,4.49-14,5.76-4.37,32.64,24.45,40,19.57,5,50.94,2.46,100.83-21.52Z"/><polygon class="cls-18" points="717.85 1258.72 963.78 1258.79 912.15 1068.06 666.21 1067.99 717.85 1258.72"/><polygon class="cls-18" points="719.16 1276.16 1081.16 1276.6 1081.16 1261.81 719.18 1261.38 719.16 1276.16"/><polygon class="cls-19" points="717.67 1258.49 957.98 1258.79 907.32 1071.8 667.03 1071.49 717.67 1258.49"/><path class="cls-18" d="M789.52,1163.07c3,9.1,13.62,16.48,23.67,16.49s15.77-7.34,12.74-16.44-13.61-16.49-23.68-16.51S786.51,1154,789.52,1163.07Z"/><polygon class="cls-20" points="964.47 1276.47 1081.16 1276.6 1081.16 1261.81 964.49 1261.66 964.47 1276.47"/><polygon class="cls-20" points="888.51 1265.26 933.6 1265.31 933.6 1258.82 888.51 1258.77 888.51 1265.26"/><polygon class="cls-20" points="734.2 1265.06 772.77 1265.11 772.77 1258.6 734.2 1258.56 734.2 1265.06"/><polygon class="cls-21" points="905.74 1074.16 667.68 1073.87 667.03 1071.49 907.32 1071.8 957.98 1258.79 955.73 1258.78 905.74 1074.16"/><path class="cls-22" d="M1126.26,787.63c13.15,7.86,44,.7,61.65-11.08a208,208,0,0,1,0-21c-10.94,21.9-44.13,25.25-60.71,25.52C1126.93,783.41,1126.6,785.61,1126.26,787.63Z"/><path class="cls-13" d="M1191.4,742c2.73-44.29,13.77-73.4-31.46-78.81s-55.14,11-59.64,25.52c-3.71,11.83,2.63,67.71,13.16,88.1C1127.47,803.87,1187.77,781.85,1191.4,742Z"/><path class="cls-11" d="M1115.82,670.87q-.1-16.39-11.46-17.34-19.5,13.54-21.88,34.79Q1089.11,678.49,1115.82,670.87Z"/><path class="cls-11" d="M1117.64,667.67q10.66-4.8,8-12.49-14.44-8.77-29-4.18Q1104.95,652.46,1117.64,667.67Z"/><path class="cls-23" d="M1113.92,719.79c-1.77.17-3.36-1.73-3.55-4.24s1.1-4.66,2.88-4.84,3.36,1.75,3.55,4.26S1115.7,719.64,1113.92,719.79Z"/><path class="cls-23" d="M1140,711.5c16.48-5,14.32-4.37,27.45,3.36-4.65-8.64-12.55-11.33-21.22-9.23C1142.18,706.63,1141.47,706.46,1140,711.5Z"/><path class="cls-23" d="M1149.88,720.1c1.73.09,3.26-1.86,3.38-4.39s-1.18-4.62-2.92-4.71-3.28,1.87-3.41,4.39S1148.11,720,1149.88,720.1Z"/><path class="cls-23" d="M1124.22,711.49c-15.1-6.68-13.13-5.79-26.37.56,5.28-8.11,13-10,21.06-7C1122.66,706.41,1123.35,706.34,1124.22,711.49Z"/><path class="cls-24" d="M1136.76,748.34h-.07l-3.8-.19c-2.19-.11-4.09-.31-5.24-1.6s-1.13-3-.94-5.26a37.3,37.3,0,0,1,1.13-5.46,74.31,74.31,0,0,0,2.43-13.44,1.18,1.18,0,0,1,1.35-1.15,1.26,1.26,0,0,1,1.14,1.37,77.4,77.4,0,0,1-2.49,13.84,32.37,32.37,0,0,0-1.06,5c-.16,1.87,0,3,.33,3.4s1.7.66,3.46.74l3.83.2a1.26,1.26,0,0,1,1.18,1.33A1.25,1.25,0,0,1,1136.76,748.34Z"/><path class="cls-10" d="M1149.71,762c-18,1.65-33.87-4.17-25.12,2.38C1129.09,768.52,1140.46,767.78,1149.71,762Z"/><path class="cls-7" d="M1113.83,710.74c.33,0,.55.81.49,1.74s-.35,1.71-.67,1.69-.57-.8-.51-1.74S1113.51,710.73,1113.83,710.74Z"/><path class="cls-7" d="M1149.16,711.56c.33,0,.55.8.51,1.76s-.36,1.71-.67,1.67-.54-.8-.51-1.74S1148.86,711.56,1149.16,711.56Z"/><path class="cls-11" d="M1103.91,664.22c11.79-12.65,19.93-9.2,24.34-4.9,40.18-19,63.29,14.13,63.29,14.13,2.81,32.09,24.61,51.69,24.61,51.69s-13.44,7.21-42.86-2.31c-9-2.91-16.72-9.89-23.16-18.18a165.7,165.7,0,0,0,26.43,36.64c-34.73-18.68-46-69.24-47.11-74.55-4.58,3.61-13.66,11.55-16.78,19.72-4.23,11-6.24,48.35-13,47.15C1099.68,733.61,1086.19,683.19,1103.91,664.22Z"/><path class="cls-3" d="M467.73,99.6a26.72,26.72,0,0,1,0-24.83,26,26,0,0,1,3.67-5.33A27.71,27.71,0,0,1,475.08,66a24.82,24.82,0,0,1,3.69-2.4A25.72,25.72,0,0,1,482.44,62a28,28,0,0,1,3.67-1,24.78,24.78,0,0,1,3.7-.49c.55,0,1.09-.06,1.65-.06s1.36,0,2,.08a27.48,27.48,0,0,1,3.67.52,26.75,26.75,0,0,1,11,5.28,25.74,25.74,0,0,1,3.67,3.56,26.73,26.73,0,0,1,0,34.7,27.4,27.4,0,0,1-3.67,3.55,26.75,26.75,0,0,1-7.35,4.19,27.37,27.37,0,0,1-3.69,1.07,23.35,23.35,0,0,1-3.67.54c-.66.06-1.35.08-2,.08s-1.1,0-1.65-.06a26.16,26.16,0,0,1-3.7-.47,26.34,26.34,0,0,1-7.34-2.68,27,27,0,0,1-7.37-5.84A26.25,26.25,0,0,1,467.73,99.6Z"/><path class="cls-3" d="M427.26,188.67a28.17,28.17,0,0,1-.37-4.43,27.82,27.82,0,0,1,.37-4.41,26.84,26.84,0,0,1,3.67-9.72,26.33,26.33,0,0,1,3.7-4.66,25.25,25.25,0,0,1,3.67-3.12,28.37,28.37,0,0,1,3.67-2.18,33,33,0,0,1,3.69-1.47,31.31,31.31,0,0,1,3.68-.87,26.21,26.21,0,0,1,3.67-.34h.67a27.2,27.2,0,0,1,3,.16,24.65,24.65,0,0,1,3.68.69,26,26,0,0,1,3.68,1.21,27.42,27.42,0,0,1,7.35,4.63,27.29,27.29,0,0,1,7.37,10.66,26.74,26.74,0,0,1-3.69,25.53,26.61,26.61,0,0,1-3.68,4,28.48,28.48,0,0,1-3.67,2.74,34.47,34.47,0,0,1-3.68,1.89,30.55,30.55,0,0,1-3.68,1.23,24.63,24.63,0,0,1-3.68.67,27.2,27.2,0,0,1-3,.16H453a26.21,26.21,0,0,1-3.67-.34,27.77,27.77,0,0,1-3.68-.87,29.54,29.54,0,0,1-3.69-1.47,27.46,27.46,0,0,1-7.34-5.28,28.7,28.7,0,0,1-3.7-4.66A26.84,26.84,0,0,1,427.26,188.67Z"/><path class="cls-3" d="M228.63,98.1a26.73,26.73,0,0,1,0-21.83,26.36,26.36,0,0,1,3.68-6A28.14,28.14,0,0,1,236,66.57a30.79,30.79,0,0,1,3.7-2.56,27.63,27.63,0,0,1,3.67-1.78A26,26,0,0,1,247,61.11a24.77,24.77,0,0,1,3.68-.6c.78,0,1.58-.11,2.39-.11h160.7c.82,0,1.63.06,2.43.13a24.75,24.75,0,0,1,3.68.58,24,24,0,0,1,3.69,1.15,27,27,0,0,1,3.67,1.79,24.71,24.71,0,0,1,3.67,2.58,26.37,26.37,0,0,1,7.37,9.75,26.7,26.7,0,0,1,0,21.59,27.45,27.45,0,0,1-3.67,6,28.43,28.43,0,0,1-3.7,3.74,26.23,26.23,0,0,1-3.67,2.57,28.33,28.33,0,0,1-3.67,1.8,27.52,27.52,0,0,1-7.37,1.74c-.8.07-1.61.11-2.43.11H253.09c-.81,0-1.61,0-2.39-.11a27.67,27.67,0,0,1-3.68-.58,29,29,0,0,1-3.68-1.14,26.45,26.45,0,0,1-3.67-1.78,26.92,26.92,0,0,1-3.7-2.58,27.08,27.08,0,0,1-7.34-9.68Z"/><path class="cls-3" d="M.55,189.77A26.6,26.6,0,0,1,0,184.29a26.91,26.91,0,0,1,.55-5.49,27.29,27.29,0,0,1,3.67-9,28.75,28.75,0,0,1,3.69-4.53,27,27,0,0,1,3.68-3.07,28,28,0,0,1,3.68-2.14A26.09,26.09,0,0,1,19,158.63a24.65,24.65,0,0,1,3.66-.85,24.91,24.91,0,0,1,3.68-.31h267a14.17,14.17,0,0,1,1.6.11l.89.11H343a19.89,19.89,0,0,1,2.47-.22,5.8,5.8,0,0,1,.85.05c.43.06.84.13,1.25.17h18.74c.69,0,1.39,0,2.09.07a24.94,24.94,0,0,1,3.68.56,25.32,25.32,0,0,1,3.66,1.1,27.79,27.79,0,0,1,3.7,1.75,26.36,26.36,0,0,1,3.67,2.54,27.08,27.08,0,0,1,3.68,3.66,26.43,26.43,0,0,1,0,33.78,27.67,27.67,0,0,1-3.68,3.66,28.19,28.19,0,0,1-3.67,2.54,27.74,27.74,0,0,1-3.7,1.74,26.68,26.68,0,0,1-3.66,1.11,27.9,27.9,0,0,1-3.68.56c-.7.05-1.4.07-2.09.07H347.38c-.34,0-.69.09-1.05.13a7.62,7.62,0,0,1-.85,0c-.76,0-1.47-.12-2.23-.18H295.49l-.64.07a14.17,14.17,0,0,1-1.6.11H26.3a26.35,26.35,0,0,1-3.68-.31,23.46,23.46,0,0,1-3.66-.85,23.88,23.88,0,0,1-3.69-1.43,25.77,25.77,0,0,1-3.68-2.11,26.92,26.92,0,0,1-3.68-3.06,28.23,28.23,0,0,1-3.69-4.52A27.08,27.08,0,0,1,.55,189.77Z"/><path class="cls-4" d="M1032.35,471.05a26.87,26.87,0,0,0,0-24.83,27.33,27.33,0,0,0-3.68-5.33,27.9,27.9,0,0,0-3.67-3.45,26.22,26.22,0,0,0-3.68-2.37,26.88,26.88,0,0,0-3.68-1.65,27.47,27.47,0,0,0-3.68-1,23.57,23.57,0,0,0-3.69-.49c-.54,0-1.11-.05-1.66-.05s-1.35,0-2,.07a26.16,26.16,0,0,0-3.67.53,30.57,30.57,0,0,0-3.67,1.08,24.32,24.32,0,0,0-3.69,1.71,26.25,26.25,0,0,0-7.36,6,27.47,27.47,0,0,0-3.67,5.62,26.83,26.83,0,0,0,0,23.46A28,28,0,0,0,988.2,476a27.46,27.46,0,0,0,3.68,3.55,28.3,28.3,0,0,0,3.68,2.49,25.29,25.29,0,0,0,3.69,1.7,28.87,28.87,0,0,0,3.67,1.09,29.48,29.48,0,0,0,3.67.53c.67,0,1.34.07,2,.07s1.12,0,1.66-.05a26.29,26.29,0,0,0,7.37-1.51,26.88,26.88,0,0,0,3.68-1.65,25.48,25.48,0,0,0,3.68-2.39,26.72,26.72,0,0,0,7.35-8.77Z"/><path class="cls-4" d="M1072.82,560.12a28.17,28.17,0,0,0,.36-4.43,27.82,27.82,0,0,0-.36-4.41,26.87,26.87,0,0,0-7.37-14.4,26,26,0,0,0-3.68-3.1,28,28,0,0,0-3.66-2.18,29.54,29.54,0,0,0-3.69-1.47,28.15,28.15,0,0,0-3.68-.87,26.35,26.35,0,0,0-3.66-.34h-.69a26.48,26.48,0,0,0-6.68.83A27.9,27.9,0,0,0,1036,531a27.21,27.21,0,0,0-3.68,1.9,26.88,26.88,0,0,0-3.68,2.72,25.67,25.67,0,0,0-3.67,4,26,26,0,0,0-3.68,6.68A26.75,26.75,0,0,0,1025,571.8a26,26,0,0,0,3.67,4,29.78,29.78,0,0,0,3.68,2.74,28.32,28.32,0,0,0,3.68,1.89,27.87,27.87,0,0,0,3.68,1.23,24.5,24.5,0,0,0,3.67.67,27.33,27.33,0,0,0,3,.16h.69a26.07,26.07,0,0,0,3.66-.34,28.15,28.15,0,0,0,3.68-.87,29.54,29.54,0,0,0,3.69-1.47,24.2,24.2,0,0,0,3.66-2.18,26,26,0,0,0,3.68-3.1,26.83,26.83,0,0,0,3.69-4.66A27.11,27.11,0,0,0,1072.82,560.12Z"/><path class="cls-4" d="M1271.46,469.55a26.86,26.86,0,0,0,0-21.84,27.62,27.62,0,0,0-7.37-9.69,26.79,26.79,0,0,0-3.68-2.55,22.72,22.72,0,0,0-3.68-1.78,28,28,0,0,0-3.67-1.15,27.67,27.67,0,0,0-3.68-.58c-.79-.07-1.58-.1-2.39-.1H1086.3a28.63,28.63,0,0,0-6.12.7,24.25,24.25,0,0,0-3.68,1.15,26.56,26.56,0,0,0-3.68,1.77,29,29,0,0,0-3.68,2.6,26.59,26.59,0,0,0-7.37,9.76,26.89,26.89,0,0,0,0,21.58,26.32,26.32,0,0,0,3.68,6,28.49,28.49,0,0,0,3.69,3.76,28.81,28.81,0,0,0,3.68,2.57,23.58,23.58,0,0,0,3.68,1.78,25.46,25.46,0,0,0,3.68,1.16,26.22,26.22,0,0,0,3.67.58c.82.08,1.63.13,2.45.13H1247c.81,0,1.6-.05,2.39-.11a26.44,26.44,0,0,0,11-3.5,27.34,27.34,0,0,0,7.36-6.29A26.55,26.55,0,0,0,1271.46,469.55Z"/><path class="cls-4" d="M1499.52,561.22a27,27,0,0,0,0-11,26.64,26.64,0,0,0-7.35-13.55,29.22,29.22,0,0,0-3.68-3.07,27.38,27.38,0,0,0-3.68-2.14,28.62,28.62,0,0,0-3.68-1.43,27.59,27.59,0,0,0-3.67-.85,28.26,28.26,0,0,0-3.7-.31h-267c-.53,0-1,.05-1.58.1l-.89.12h-47.26a23,23,0,0,0-2.49-.22,7.62,7.62,0,0,0-.85.05c-.42,0-.84.13-1.25.17h-18.74c-.69,0-1.38,0-2.09.07a27.49,27.49,0,0,0-3.67.54,24.12,24.12,0,0,0-3.68,1.13,27.49,27.49,0,0,0-3.68,1.74,26,26,0,0,0-7.35,6.2,26.48,26.48,0,0,0-3.68,27.93,26.33,26.33,0,0,0,3.68,5.85,28.2,28.2,0,0,0,3.67,3.66,27.06,27.06,0,0,0,3.68,2.54,30.2,30.2,0,0,0,3.68,1.74,24.06,24.06,0,0,0,3.68,1.11,27.75,27.75,0,0,0,3.67.56c.71,0,1.4.07,2.09.07h18.93c.36,0,.71.1,1.06.13a5.8,5.8,0,0,0,.85.05c.76,0,1.48-.12,2.23-.18h47.76l.65.06a12,12,0,0,0,1.58.12h267a23.89,23.89,0,0,0,3.7-.32,23.56,23.56,0,0,0,3.67-.84,26,26,0,0,0,3.68-1.43,24.4,24.4,0,0,0,3.68-2.12,26,26,0,0,0,3.68-3,25.6,25.6,0,0,0,3.67-4.54A26.21,26.21,0,0,0,1499.52,561.22Z"/><path class="cls-10" d="M688.76,92.4c-3.21,43.92-9.69,50-51.55,53.35,41.86,3.39,48.34,9.45,51.55,53.35,3.19-43.9,9.67-50,51.53-53.35C698.43,142.37,692,136.32,688.76,92.4Z"/><path class="cls-10" d="M124.56,656.89c-3.19,43.91-9.67,50-51.55,53.36,41.88,3.38,48.36,9.44,51.55,53.35,3.21-43.91,9.69-50,51.55-53.35C134.25,706.86,127.77,700.8,124.56,656.89Z"/><path class="cls-10" d="M539.06,243.08c-2.54,34.83-7.68,39.64-40.9,42.32,33.22,2.68,38.36,7.49,40.9,42.34,2.54-34.85,7.67-39.66,40.88-42.34C546.73,282.72,541.6,277.91,539.06,243.08Z"/><path class="cls-10" d="M288.05,1043.72c-2.56,34.83-7.69,39.63-40.9,42.32,33.21,2.68,38.34,7.49,40.9,42.32,2.52-34.83,7.67-39.64,40.88-42.32C295.72,1083.35,290.57,1078.55,288.05,1043.72Z"/></g></g></svg>