<svg xmlns="http://www.w3.org/2000/svg" viewBox="0 0 1107.13 403.07"><defs><style>.cls-1{isolation:isolate;}.cls-2{fill:#edf1f9;}.cls-3{fill:#ececec;}.cls-4{fill:#142d4c;}.cls-5{fill:#313338;}.cls-10,.cls-6{fill:#385170;}.cls-6{opacity:0.52;mix-blend-mode:multiply;}.cls-7{fill:#eadefc;}.cls-8{fill:#2c2f35;}.cls-9{fill:#9fd3c7;}.cls-11{fill:#d3d3d3;}.cls-12{fill:#b5b5b5;}.cls-13{fill:none;}</style></defs><title>Zasób 4</title><g class="cls-1"><g id="Warstwa_2" data-name="Warstwa 2"><g id="OBJECTS"><path class="cls-2" d="M1104.81,290.48a54.29,54.29,0,0,1,0-19.32V186.59c-19.75,3.54-38.75.19-57.92-5.9-11.5-3.65-22.19-9.52-33.51-13.74-39.53-14.75-85.49-7.84-121.14,14.88-15.6,9.94-29.47,22.6-43.92,34.11Q825,234.48,800.48,251.29q-28.32,19.41-58.16,36.37c-18.8,10.7-38.24,23.67-60,26.3a109,109,0,0,1-43.36-3.5c-13.16-3.84-25.6-10.19-39.05-12.8-40.8-7.94-80.65,19.46-122.19,19.31-35.92-.12-69.29-21.32-92.37-49.17-6.66-8-12.74-16.75-21-23.09A34.53,34.53,0,0,0,353.8,239l-.16,160.65,206.94-.48q38.1-.6,76.21,0h288c20.12-2.44,40.19-5.39,60.2-8.59l-6.57-80.77c42.48-1.6,85-3.64,126.39-12.7Z"/><polygon class="cls-3" points="906.94 201.99 818.49 186.22 906.8 170.41 906.29 167.48 818.23 183.24 893.3 139.34 891.83 136.76 816.53 180.79 872.45 113.34 870.2 111.42 814.46 178.67 844.08 96.14 841.32 95.12 811.65 177.79 811.66 84.57 808.72 84.57 808.71 177.75 777.94 92.08 775.17 93.09 806.07 179.12 748.33 109.43 746.08 111.34 803.64 180.81 724.76 134.5 723.29 137.08 801.95 183.27 716.7 168.07 716.19 171 801.55 186.22 713.45 201.99 713.96 204.93 802.3 189.12 724.22 234.78 725.69 237.36 803.55 191.83 745.14 262.29 747.39 264.2 806.01 193.49 776.23 276.44 778.99 277.46 808.7 194.69 808.69 282.77 811.63 282.77 811.64 194.63 842.18 279.65 844.94 278.63 814.53 193.96 870.2 261.15 872.45 259.24 816.67 191.91 893.62 237.09 895.09 234.51 817.78 189.12 906.43 204.93 906.94 201.99"/><ellipse class="cls-4" cx="809.73" cy="79.56" rx="9.43" ry="9.56"/><ellipse class="cls-4" cx="845.89" cy="87.07" rx="9.43" ry="9.56"/><ellipse class="cls-4" cx="876.88" cy="105.52" rx="9.43" ry="9.56"/><ellipse class="cls-4" cx="900.24" cy="133.53" rx="9.43" ry="9.56"/><ellipse class="cls-4" cx="913.04" cy="167.23" rx="9.43" ry="9.56"/><ellipse class="cls-4" cx="912.82" cy="205.49" rx="9.43" ry="9.56"/><ellipse class="cls-4" cx="901.14" cy="238.96" rx="9.43" ry="9.56"/><ellipse class="cls-4" cx="877.78" cy="266.74" rx="9.43" ry="9.56"/><ellipse class="cls-4" cx="846.78" cy="285.42" rx="9.43" ry="9.56"/><ellipse class="cls-4" cx="809.95" cy="292.02" rx="9.43" ry="9.56"/><ellipse class="cls-4" cx="774.02" cy="285.65" rx="9.43" ry="9.56"/><ellipse class="cls-4" cx="742.57" cy="267.88" rx="9.43" ry="9.56"/><ellipse class="cls-4" cx="719.44" cy="239.87" rx="9.43" ry="9.56"/><ellipse class="cls-4" cx="707.31" cy="205.94" rx="9.43" ry="9.56"/><ellipse class="cls-4" cx="707.31" cy="168.14" rx="9.43" ry="9.56"/><ellipse class="cls-4" cx="720.56" cy="131.71" rx="9.43" ry="9.56"/><ellipse class="cls-4" cx="743.02" cy="104.61" rx="9.43" ry="9.56"/><ellipse class="cls-4" cx="774.69" cy="86.62" rx="9.43" ry="9.56"/><path class="cls-5" d="M809.71,194.39a7.66,7.66,0,1,1,7.56-7.66A7.61,7.61,0,0,1,809.71,194.39Zm0-12.34a4.68,4.68,0,1,0,4.62,4.68A4.65,4.65,0,0,0,809.71,182.05Z"/><path class="cls-3" d="M902.36,239.46A108.21,108.21,0,0,0,916,186.68a109.88,109.88,0,0,0-1.73-19.24h0A108.56,108.56,0,0,0,909,148.09L909,148h-.09a107.94,107.94,0,0,0-46.76-55l0-.25-.22.15a104.09,104.09,0,0,0-15.42-7.3v0h0a104.84,104.84,0,0,0-73.14-.17l-.36-.31v.45a105.87,105.87,0,0,0-31.49,18.56l-.32-.1.1.3a108.12,108.12,0,0,0-37.85,82.35A109.74,109.74,0,0,0,705.24,206l-.34.38.41,0a108.18,108.18,0,0,0,4.1,15.64h0a107.94,107.94,0,0,0,7.88,17.6l-.59,1,1.08-.19c18.39,32.19,52.73,53.91,92,53.91a104.89,104.89,0,0,0,20.8-2.09l.32.38,0-.44A104.47,104.47,0,0,0,863,279.88l.06,0v-.06A107.5,107.5,0,0,0,878.25,269l.44.18-.09-.49a108.24,108.24,0,0,0,23.58-28.89l.42,0Zm-25.89,27.15-14.73-6.29a89.87,89.87,0,0,0,12-10.42l3,16.51ZM719.84,238.18l8.32-14.65a90.74,90.74,0,0,0,6.73,12.53l-14.81,2.55ZM708.06,205l12.44-14.24a91.49,91.49,0,0,0,2,15.28l-14.41-1Zm35.49-98.7,16.29,5.23A90.69,90.69,0,0,0,748.31,121l-4.76-14.66Zm168.16,97.41c-7.75-6.85-11.21-9.82-12.79-11.11,0-.1,0-.19,0-.28,2.74-1,9.42-3.32,14.14-4.9A106.66,106.66,0,0,1,911.71,203.74ZM907,222.11c-6.25-7-9.1-10.08-10.45-11.37,2.63-1,9.73-3.49,14.85-5.28A104,104,0,0,1,907,222.11ZM758.73,261a90,90,0,0,0,9.8,6l-10.12,9.15Zm-35.39-74.32c0-48.32,38.77-87.63,86.43-87.63s86.43,39.31,86.43,87.63-38.77,87.63-86.43,87.63S723.34,235,723.34,186.68Zm75.9,90L790.91,288l-3.42-13.56A87.33,87.33,0,0,0,799.24,276.64ZM785,273.72l-10.71,10.86-3.34-16.3A88.63,88.63,0,0,0,785,273.72ZM730,145.94l-7.76-14,16,.49A91.47,91.47,0,0,0,730,145.94Zm-4.9,11.87-9.58-11,13.7.66A90.4,90.4,0,0,0,725.08,157.81Zm-4,17.6-11.67-8.6,14.71-6.1A91.46,91.46,0,0,0,721.12,175.41Zm79.94-78.9,8.62-14.06,7.56,14c-2.47-.2-5-.34-7.47-.34C806.83,96.07,803.92,96.23,801.06,96.51Zm97.73,97.92c2.62,2.23,7.5,6.5,11.34,9.9-7.88,2.75-11.84,4.13-13.8,4.92A91.5,91.5,0,0,0,898.79,194.43Zm-3.19,17.42c1.8,1.79,6.22,6.67,9.56,10.42H892A92.36,92.36,0,0,0,895.6,211.85ZM899,190.72c.05-1.34.1-2.68.1-4,0-2.23-.11-4.43-.27-6.62l12.67,6.34C904.76,188.66,901.07,189.94,899,190.72Zm-3.46-29.28,15.72,6.38-12.66,9.36A91.09,91.09,0,0,0,895.58,161.44Zm-4.72-12.77,14.45.68-10.55,9.38A89.1,89.1,0,0,0,890.86,148.67Zm-8-14,16,.15-9,11.79A90.74,90.74,0,0,0,882.84,134.62Zm0-1.49,6.75-12.91a104.6,104.6,0,0,1,9,13.06Zm-1.39-.51a91.55,91.55,0,0,0-6.91-8.28l13.37-4.08Zm-8.75-10.21A89.54,89.54,0,0,0,860,111.82l16.82-3.93ZM847.6,104.62,860.13,96l-2.62,14.15A87.09,87.09,0,0,0,847.6,104.62ZM832,98.9l13.24-10.34.43,15.15A87.85,87.85,0,0,0,832,98.9Zm-11.9-2.21,7.68-11.58,2.54,13.4A88.38,88.38,0,0,0,820.05,96.69ZM818.71,96,811.09,82a102.76,102.76,0,0,1,16,1.46Zm-18.86-.39-7.62-12.19a102,102,0,0,1,16-1.51Zm-1,1.13A87.71,87.71,0,0,0,790,98.33l1.57-13.1Zm-24.6,6.79.27-15.3L787.13,99A88.25,88.25,0,0,0,774.21,103.57ZM762,110.18l-2.25-13.43,12,8A90,90,0,0,0,762,110.18Zm-22,20-6.29-11.34,13.13,3.59A91.52,91.52,0,0,0,740,130.2Zm-1.29.72-16-.48a103.54,103.54,0,0,1,9-12.2ZM728.31,146l-13.46-.65A105.35,105.35,0,0,1,721.1,133Zm-4.09,13.11-15.67,6.49A104,104,0,0,1,714,147.39Zm-4,17.53-13.7,5.57a106.2,106.2,0,0,1,1.62-14.48Zm.57,1.37c-.27,2.87-.42,5.77-.42,8.7,0,.41,0,.81,0,1.22l-12.51-4.68Zm6.4,43.39-14.69-.66,10.53-12.1A90.59,90.59,0,0,0,727.22,221.37Zm16.61,26.4-13.52,3.78,5.78-13.66A91.5,91.5,0,0,0,743.83,247.77Zm13.22,12-13.55,6.81L745.89,250A89.84,89.84,0,0,0,757.05,259.78Zm.21,1.56-.33,15.33a104.42,104.42,0,0,1-12.5-8.89Zm12.16,6.88,3.33,16.25a102.23,102.23,0,0,1-13.91-6.68ZM786,274.74l3.72,14.72a102.55,102.55,0,0,1-14.31-4Zm14.27,2.93,8.36,13.75a101.72,101.72,0,0,1-17.22-1.65Zm1.25-.78c2.71.26,5.44.4,8.21.4,2.39,0,4.75-.12,7.09-.31l-6.61,14.21Zm29.2-2.15L829.69,289l-10.18-12.24A87,87,0,0,0,830.76,274.74ZM847.1,269l-1.41,15.42L833.57,274A88,88,0,0,0,847.1,269Zm12.22-6.93,1.83,14.54-11.49-8.86A90.51,90.51,0,0,0,859.32,262.05Zm23.33-23,6.3,13.46-14.05-3.85A90,90,0,0,0,882.65,239Zm8.13-14.15,8.89,13.24L884.07,237A90.64,90.64,0,0,0,890.78,224.87Zm1-1.11h14.57a104.47,104.47,0,0,1-5.86,13Zm21.25-38.26-13.83-6.92,12.43-9.19A106.85,106.85,0,0,1,913.07,185.5Zm-2-19.37-15.4-6.25,10.93-9.71A104.88,104.88,0,0,1,911.09,166.13ZM891.24,147.2,900,135.68a105.33,105.33,0,0,1,5.74,12.2Zm-3-28.59-14.14,4.32,4.2-14.59A103.7,103.7,0,0,1,888.21,118.61Zm-12-12.09-17.27,4,2.67-14.44A103.67,103.67,0,0,1,876.2,106.52ZM859.3,94.77l-12.23,8.41-.4-14.33A100.25,100.25,0,0,1,859.3,94.77Zm-27.76,2.56L829,83.76a100.85,100.85,0,0,1,14.82,4ZM790.28,83.81l-1.74,14.47L776.07,87.67A100.89,100.89,0,0,1,790.28,83.81Zm-17.54,19.81-13-8.6A102.81,102.81,0,0,1,773,88.79ZM758.1,96l2.38,14.19-15.57-5A105.73,105.73,0,0,1,758.1,96Zm-15.76,11.38,4.39,13.5L732.66,117A105,105,0,0,1,742.34,107.39Zm-35.9,79.29c0-.8,0-1.6.06-2.4l13.37,5-12.14,13.89A105.32,105.32,0,0,1,706.44,186.68Zm1.9,19.93,13.7.92-10.39,11.95A103.72,103.72,0,0,1,708.34,206.61Zm4.22,15.6,14.29.63L719,236.69A105.53,105.53,0,0,1,712.56,222.21Zm22,15.41-5.89,13.93A107.7,107.7,0,0,1,720.86,240ZM730,253.19l14.53-4.06-2.39,16.65A104.69,104.69,0,0,1,730,253.19Zm81.79,38.21,6.45-13.88,10.15,12.19A100.86,100.86,0,0,1,811.78,291.4Zm20.45-16.6,12.28,10.54a101.82,101.82,0,0,1-13.36,3.84Zm14.94,9.52,1.42-15.54,11.86,9.15A103.34,103.34,0,0,1,847.17,284.32Zm15.47-7.67-1.91-15.14,14.48,6.18A103,103,0,0,1,862.64,276.65ZM878,265.28l-2.72-15,13.6,3.72A104.46,104.46,0,0,1,878,265.28Zm12.41-13.18L884,238.44l14.91,1.11A103.36,103.36,0,0,1,890.39,252.1Z"/><path class="cls-6" d="M801.56,276.89q3.53.33,7.13.37v5.51h1.52V89h-1.47l0,7.06c-2.58,0-5.14.16-7.66.41l8.62-14.06.53,1V78.94h-.44a104.42,104.42,0,0,0-36.34,6.5l-.36-.31v.44a106.11,106.11,0,0,0-31.49,18.57l-.32-.1.1.3a108.12,108.12,0,0,0-37.85,82.35A109.74,109.74,0,0,0,705.24,206l-.34.38.42,0a106.87,106.87,0,0,0,4.09,15.64h0a107.66,107.66,0,0,0,7.88,17.61l-.59,1,1.08-.19c18.39,32.19,52.73,53.91,92,53.91h.44v-3.3Zm7.13-2.61a84.63,84.63,0,0,1-26.87-4.7l26.88-74.89Zm-73.11-42.7,68-39.75-50.49,60.9A87.82,87.82,0,0,1,735.58,231.58Zm8.25,16.19-13.52,3.78,5.78-13.66A91.5,91.5,0,0,0,743.83,247.77ZM721.68,172c-.18,1.15-.42,2.27-.56,3.43l-11.67-8.6,14.71-6.1c-.8,2.72-1.45,5.51-2,8.33l-5.47-1-.51,2.93Zm-1.25,15.92-12.51-4.68,12.9-5.24c-.27,2.87-.42,5.77-.42,8.7C720.4,187.09,720.43,187.49,720.43,187.9Zm4.06-15.42,77.06,13.75L724.34,200a89,89,0,0,1,.15-27.56Zm29-52.21,50.16,60.54L736,141.09A88,88,0,0,1,753.48,120.27ZM740,130.2l-6.29-11.34,13.13,3.59A93.31,93.31,0,0,0,740,130.2Zm62,53.07L725,169.55a87.88,87.88,0,0,1,9.5-25.88Zm-72-37.33-4-7.3,6.1,3.58C731.35,143.46,730.62,144.67,730,145.94Zm-4.9,11.87-9.58-11,13.7.66A92.28,92.28,0,0,0,725.08,157.81Zm77.22,31.31L734.11,229a88,88,0,0,1-9.25-26Zm3.71,4.37-27,75.08a86.23,86.23,0,0,1-23.75-13.91Zm2.71-94.41v78.67L782.1,103.68A85.1,85.1,0,0,1,808.72,99.08ZM808.26,82l-8.41,13.7-7.62-12.19A102,102,0,0,1,808.26,82Zm-9.45,14.83A87.71,87.71,0,0,0,790,98.33l1.57-13.1Zm-8.53-13-1.74,14.47L776.07,87.67A100.89,100.89,0,0,1,790.28,83.81Zm-15.8,4.46L787.13,99c-2,.54-4,1.17-6,1.86L779,95.06l-2.78.91,2.09,6c-1.39.53-2.78,1-4.14,1.64Zm4.86,16.41,26.73,74.44-50.34-60.76A86.22,86.22,0,0,1,779.34,104.68ZM773,88.79l-.26,14.83-13-8.6A103.45,103.45,0,0,1,773,88.79Zm-1.29,15.93a90,90,0,0,0-9.74,5.46l-2.25-13.43ZM758.1,96l2.38,14.19-15.57-5A105.73,105.73,0,0,1,758.1,96Zm-14.55,10.32,16.29,5.23q-3.09,2.13-6,4.52l-4.08-4.92L747.45,113l4.18,5.07c-1.11,1-2.25,1.92-3.32,2.95l-4.76-14.66Zm-1.21,1.06,4.39,13.5L732.66,117A105,105,0,0,1,742.34,107.39Zm-10.7,10.85,7,12.68-16-.48A103.54,103.54,0,0,1,731.64,118.24Zm6.62,14.16c-1.72,2.31-3.29,4.74-4.78,7.22l-5-2.87-2.15,2.55-4.15-7.39ZM721.1,133l2.24,4-.05.09.15.1,4.87,8.79-13.46-.65A105.35,105.35,0,0,1,721.1,133ZM714,147.39l10.21,11.69-15.67,6.49A104,104,0,0,1,714,147.39Zm-5.84,20.31,12.08,8.91-13.7,5.57A106.2,106.2,0,0,1,708.17,167.7Zm-1.73,19c0-.8,0-1.6.06-2.4l13.37,5-12.14,13.89A106.54,106.54,0,0,1,706.44,186.68ZM708.06,205l12.44-14.24a91.89,91.89,0,0,0,1,9.76l-5.79,1.09.91,2.73,5.38-.88c.16.86.32,1.72.5,2.58l-14.41-1Zm.28,1.58,13.7.92-10.39,11.95A103.72,103.72,0,0,1,708.34,206.61Zm14.72,2a90.59,90.59,0,0,0,4.16,12.76l-14.69-.66Zm-10.5,13.6,14.29.63L719,236.69A105.53,105.53,0,0,1,712.56,222.21Zm7.28,16,8.32-14.65c1,2.37,2.2,4.68,3.44,6.94l-5.2,3.09,1.63,2.32L733.1,233c.6,1,1.16,2,1.79,3l-14.81,2.55Zm1,1.81,13.74-2.37-5.89,13.93A107.7,107.7,0,0,1,720.86,240Zm9.13,13.2,14.53-4.06-2.39,16.65A104.69,104.69,0,0,1,730,253.19Zm15.9-3.23q2.54,2.64,5.28,5l-3.79,4.6,2.23,1.91,3.85-4.64c1.19,1,2.35,2,3.59,2.9l-13.55,6.81Zm11,26.71a104.42,104.42,0,0,1-12.5-8.89l12.83-6.44ZM758.74,261a89,89,0,0,0,9.79,6l-10.11,9.15Zm.1,16.79,10.58-9.57,3.33,16.25A102.23,102.23,0,0,1,758.84,277.79Zm12.09-9.51c2.31,1.13,4.69,2.16,7.12,3.09l-1.82,5.07,2.76,1,1.85-5.14c1.37.47,2.73,1,4.14,1.4l-10.71,10.86Zm4.52,17.21L786,274.74l3.72,14.72A102.55,102.55,0,0,1,775.45,285.49Zm12-11.05a87.33,87.33,0,0,0,11.75,2.2L790.91,288Zm4,15.33,8.86-12.1,8.36,13.75A101.82,101.82,0,0,1,791.45,289.77Z"/><path class="cls-4" d="M787.47,301.1a145.44,145.44,0,0,1,1.23-14.75c.56-4.9,1.25-9.77,1.89-14.65,1.4-9.75,2.87-19.47,4.52-29.16s3.42-19.36,5.16-29L806,184.59,810.42,162l4.17,22.69L820,214c1.63,9.81,3.43,19.58,4.89,29.42s3,19.66,4.36,29.52,2.57,19.75,3.47,29.7c-2.84-9.57-5.28-19.22-7.75-28.86s-4.7-19.33-6.86-29-4.21-19.42-6.32-29.13L806,186.36l8.63.07-6.18,28.79c-2.2,9.57-4.25,19.17-6.59,28.71s-4.63,19.09-7,28.62l-3.72,14.26-1.87,7.13A69,69,0,0,0,787.47,301.1Z"/><ellipse class="cls-4" cx="810.22" cy="187.04" rx="7.62" ry="7.72"/><path class="cls-7" d="M1104.75,376.61c0-23.63.16-53.42.2-85.43a54.53,54.53,0,0,1,0-20.88c0-27.79-.1-56.56-.39-83.9,0-2.46-79,1-86.61,1.5-28.53,1.95-57.12,4.84-85,11.53-29.43,7.07-58.25,18.58-82.85,36.68-25,18.38-45,42.51-69.6,61.39-43.73,33.55-101.64,41.58-156.45,39.77-39.78-1.32-79.93-7.16-119.13-.15S428.64,361.46,416,399.74c31.8.6,638.65.4,686.68.39C1102.15,392.45,1104.05,384.24,1104.75,376.61Z"/><rect class="cls-8" x="857.09" y="184.55" width="0.79" height="18.1"/><path class="cls-8" d="M858.36,183.27a.83.83,0,1,1-.83-.84A.84.84,0,0,1,858.36,183.27Z"/><rect class="cls-8" x="866.75" y="157.59" width="0.79" height="18.1"/><path class="cls-8" d="M867.94,156.34a.79.79,0,1,1-.79-.8A.79.79,0,0,1,867.94,156.34Z"/><rect class="cls-8" x="878.89" y="92.01" width="0.79" height="18.1"/><ellipse class="cls-8" cx="879.27" cy="90.53" rx="0.78" ry="0.79"/><rect class="cls-8" x="912.29" y="91.51" width="0.79" height="18.1"/><rect class="cls-8" x="924.23" y="157.59" width="0.79" height="18.1"/><rect class="cls-8" x="933.5" y="184.55" width="0.79" height="18.1"/><rect class="cls-9" x="857.11" y="200.8" width="77.22" height="68.88"/><rect class="cls-9" x="866.7" y="166.77" width="58.77" height="9.27"/><rect class="cls-9" x="878.91" y="100.53" width="34.36" height="17.21"/><path class="cls-9" d="M886.54,402.56c15.06.08,30.13.29,45.2.51l0-133.65-71.46.28.12,132.86Q873.5,402.5,886.54,402.56Z"/><rect class="cls-4" x="872.51" y="209.79" width="46.84" height="47.49"/><ellipse class="cls-3" cx="895.68" cy="233.58" rx="21.32" ry="21.62"/><path class="cls-4" d="M869.56,324.88h0a2.34,2.34,0,0,1-2.32-2.36V279.31a2.34,2.34,0,0,1,2.32-2.35h0a2.34,2.34,0,0,1,2.32,2.35v43.21A2.34,2.34,0,0,1,869.56,324.88Z"/><path class="cls-4" d="M878.42,324.88h0a2.34,2.34,0,0,1-2.32-2.36V279.31a2.34,2.34,0,0,1,2.32-2.35h0a2.34,2.34,0,0,1,2.32,2.35v43.21A2.34,2.34,0,0,1,878.42,324.88Z"/><path class="cls-4" d="M887.28,324.88h0a2.35,2.35,0,0,1-2.32-2.36V279.31a2.35,2.35,0,0,1,2.32-2.35h0a2.34,2.34,0,0,1,2.32,2.35v43.21A2.34,2.34,0,0,1,887.28,324.88Z"/><path class="cls-4" d="M896.14,324.88h0a2.35,2.35,0,0,1-2.32-2.36V279.31a2.35,2.35,0,0,1,2.32-2.35h0a2.35,2.35,0,0,1,2.33,2.35v43.21A2.35,2.35,0,0,1,896.14,324.88Z"/><path class="cls-4" d="M905,324.88h0a2.34,2.34,0,0,1-2.32-2.36V279.31A2.34,2.34,0,0,1,905,277h0a2.35,2.35,0,0,1,2.32,2.35v43.21A2.35,2.35,0,0,1,905,324.88Z"/><path class="cls-4" d="M913.87,324.88h0a2.34,2.34,0,0,1-2.32-2.36V279.31a2.34,2.34,0,0,1,2.32-2.35h0a2.35,2.35,0,0,1,2.32,2.35v43.21A2.35,2.35,0,0,1,913.87,324.88Z"/><path class="cls-4" d="M922.73,324.88h0a2.34,2.34,0,0,1-2.32-2.36V279.31a2.34,2.34,0,0,1,2.32-2.35h0a2.34,2.34,0,0,1,2.32,2.35v43.21A2.34,2.34,0,0,1,922.73,324.88Z"/><path class="cls-4" d="M869.56,388.66h0a2.34,2.34,0,0,1-2.32-2.35V343.1a2.34,2.34,0,0,1,2.32-2.36h0a2.34,2.34,0,0,1,2.32,2.36v43.21A2.34,2.34,0,0,1,869.56,388.66Z"/><path class="cls-4" d="M878.42,388.66h0a2.34,2.34,0,0,1-2.32-2.35V343.1a2.34,2.34,0,0,1,2.32-2.36h0a2.34,2.34,0,0,1,2.32,2.36v43.21A2.34,2.34,0,0,1,878.42,388.66Z"/><path class="cls-4" d="M887.28,388.66h0a2.35,2.35,0,0,1-2.32-2.35V343.1a2.35,2.35,0,0,1,2.32-2.36h0a2.34,2.34,0,0,1,2.32,2.36v43.21A2.34,2.34,0,0,1,887.28,388.66Z"/><path class="cls-4" d="M896.14,388.66h0a2.35,2.35,0,0,1-2.32-2.35V343.1a2.35,2.35,0,0,1,2.32-2.36h0a2.35,2.35,0,0,1,2.33,2.36v43.21A2.35,2.35,0,0,1,896.14,388.66Z"/><path class="cls-4" d="M905,388.66h0a2.34,2.34,0,0,1-2.32-2.35V343.1a2.34,2.34,0,0,1,2.32-2.36h0a2.35,2.35,0,0,1,2.32,2.36v43.21A2.35,2.35,0,0,1,905,388.66Z"/><path class="cls-4" d="M913.87,388.66h0a2.34,2.34,0,0,1-2.32-2.35V343.1a2.34,2.34,0,0,1,2.32-2.36h0a2.35,2.35,0,0,1,2.32,2.36v43.21A2.35,2.35,0,0,1,913.87,388.66Z"/><path class="cls-4" d="M922.73,388.66h0a2.34,2.34,0,0,1-2.32-2.35V343.1a2.34,2.34,0,0,1,2.32-2.36h0a2.34,2.34,0,0,1,2.32,2.36v43.21A2.34,2.34,0,0,1,922.73,388.66Z"/><path class="cls-10" d="M925.47,176l-58.74,0s-1.35,20.87-9.62,24.79c18.33.06,77.22,0,77.22,0S925,192.37,925.47,176Z"/><path class="cls-4" d="M925.47,166.77s-10.45-12.36-12.19-49c-25.75.39-34.39,0-34.39,0s-2.18,40.17-12.19,49C887.26,167,925.47,166.77,925.47,166.77Z"/><path class="cls-4" d="M883.09,116.18h0a1.75,1.75,0,0,1-1.73-1.75v-8.15a1.75,1.75,0,0,1,1.73-1.75h0a1.75,1.75,0,0,1,1.72,1.75v8.15A1.75,1.75,0,0,1,883.09,116.18Z"/><path class="cls-4" d="M890.58,116.18h0a1.75,1.75,0,0,1-1.73-1.75v-8.15a1.75,1.75,0,0,1,1.73-1.75h0a1.74,1.74,0,0,1,1.72,1.75v8.15A1.74,1.74,0,0,1,890.58,116.18Z"/><path class="cls-4" d="M900.09,116.18h0a1.75,1.75,0,0,1-1.72-1.75v-8.15a1.75,1.75,0,0,1,1.72-1.75h0a1.75,1.75,0,0,1,1.73,1.75v8.15A1.75,1.75,0,0,1,900.09,116.18Z"/><path class="cls-4" d="M909.61,116.18h0a1.75,1.75,0,0,1-1.73-1.75v-8.15a1.75,1.75,0,0,1,1.73-1.75h0a1.74,1.74,0,0,1,1.72,1.75v8.15A1.74,1.74,0,0,1,909.61,116.18Z"/><path class="cls-4" d="M913.16,100.63S896.62,44.73,895.38,0c-2.59,27.67-9.87,93.34-16.47,100.63Z"/><path class="cls-8" d="M913.46,90a.78.78,0,1,1-.78-.79A.79.79,0,0,1,913.46,90Z"/><path class="cls-8" d="M925.42,156.34a.79.79,0,1,1-.79-.8A.79.79,0,0,1,925.42,156.34Z"/><path class="cls-8" d="M934.77,183.27a.83.83,0,1,1-.82-.84A.83.83,0,0,1,934.77,183.27Z"/><path class="cls-8" d="M901.23,219.17c-.66,1.47-1.19,3-1.74,4.52l-1.68,4.54c-1.11,3-2.28,6-3.43,9.05l-.58-.66c3.17-.74,6.35-1.48,9.55-2.14l4.79-1c1.61-.29,3.21-.62,4.82-.88-1.56.48-3.14.91-4.7,1.36l-4.73,1.26c-3.16.83-6.33,1.59-9.5,2.35l-.93.22.35-.89c1.18-3,2.37-6,3.65-9L899,223.5A47.47,47.47,0,0,1,901.23,219.17Z"/><rect class="cls-10" x="860.19" y="269.42" width="71.47" height="3.78"/><polygon class="cls-10" points="914.12 129.18 877.89 129.13 878.89 117.77 913.28 117.77 914.12 129.18"/><path class="cls-6" d="M860.44,402.56q13-.06,26.1,0l10.82.08L895.23.83c-.79,19.87-9.9,91.71-16.29,100,.75,26.24-3.23,56.43-12.07,65.88,0,30.55-9.6,34-9.6,34l-.19,69h3.11Z"/><path class="cls-9" d="M1102.8,401.05c0-.13,0-.26,0-.39l-18.19,0,.09,1.52Q1093.74,401.68,1102.8,401.05Z"/><rect class="cls-3" x="770.39" y="349.86" width="53.34" height="50.53" transform="translate(1594.13 750.24) rotate(180)"/><path class="cls-10" d="M823.38,350.31l3-13.7s-26.81-3.7-31.26-37.11c-2.85,18.84-13.14,34.28-28.8,37.11,2.14,6.09,4.07,13.7,4.07,13.7Z"/><polygon class="cls-4" points="1032.95 186.44 1032.58 136.43 1032.58 117.63 1029.98 136.03 1027.59 136.06 993.25 220.12 1031.34 220.09 1020.02 217.18 1032.95 186.44"/><polygon class="cls-10" points="1037.17 135.92 1035.02 135.95 1032.63 117.2 1032.58 117.63 1032.58 136.43 1032.95 186.44 1020.02 217.18 1031.34 220.09 1069.85 220.06 1037.17 135.92"/><polygon class="cls-3" points="968.35 399.68 965.82 399.68 966.22 308.33 968.35 307.45 968.35 399.68"/><rect class="cls-3" x="946.28" y="332.25" width="2.52" height="66.97" transform="translate(-1.8 4.71) rotate(-0.28)"/><rect class="cls-3" x="902.61" y="372.37" width="52.31" height="2.52" transform="matrix(0.01, -1, 1, 0.01, 548.71, 1299.79)"/><rect class="cls-3" x="888.14" y="379.34" width="41.01" height="2.52" transform="translate(524.46 1287.73) rotate(-89.77)"/><rect class="cls-3" x="874.32" y="382.53" width="30.87" height="2.52" transform="translate(500.68 1271.25) rotate(-89.66)"/><rect class="cls-3" x="869.28" y="374.45" width="2.52" height="24.64"/><rect class="cls-3" x="849.97" y="375.03" width="2.52" height="24.64"/><rect class="cls-3" x="830.7" y="376.17" width="2.52" height="23.05" transform="translate(-1.49 3.2) rotate(-0.22)"/><path class="cls-9" d="M835,379.48c-4.12,0-6.93,0-11.25-.31l0-5.14C946,381.64,985.11,274.34,985.5,273.25l4.74,1.76C989.85,276.09,951.18,379.48,835,379.48Z"/><path class="cls-4" d="M1105.05,269.84l.15-.68-1.11-1.13,1.86-1.9.33-1.16-2.6,2.64-3.64-3.69h-.82l4,4.11-5.21,5.27-4.36-4.42,4.89-5h-.82l-4.48,4.54-4.36-4.42.11-.12h-1l.11.12-5.2,5.28-5.33-5.41,0,.79,5,5-4.78,4.85h.82l4.37-4.43,4.36,4.42h.81l5.22-5.28,4.36,4.42-.85.86h.82l.44-.44.44.44h.82l-.85-.86,5.21-5.28Zm-17.38,4.32-4.36-4.43,5.21-5.27,4.36,4.42Z"/><path class="cls-9" d="M1104.55,272.74h-36v6.17H1104A53.17,53.17,0,0,1,1104.55,272.74Z"/><path class="cls-10" d="M1107.09,262.49c0-.31,0-.62,0-.94h-37v5.17h35.65C1106.16,265.3,1106.6,263.89,1107.09,262.49Z"/><rect class="cls-3" x="987.96" y="219.58" width="87.7" height="70.2"/><rect class="cls-3" x="993.01" y="287.42" width="78.39" height="108.59"/><path class="cls-11" d="M993.6,295h0a8,8,0,0,1-7.93-8.05v-64a8,8,0,0,1,7.93-8.05h0a8,8,0,0,1,7.94,8.05v64A8,8,0,0,1,993.6,295Z"/><rect class="cls-11" x="1061.52" y="214.82" width="15.87" height="80.13" rx="6.55"/><polygon class="cls-10" points="1061.51 221.5 1059.09 215.29 1069.06 183.48 1080.51 214.78 1077.23 221.5 1061.51 221.5"/><polygon class="cls-4" points="985.75 221.5 982.89 215.29 992.86 183.48 1004.31 214.78 1001.47 221.44 985.75 221.5"/><path class="cls-3" d="M1038.87,196.77l-6.08-18s-5,12.6-7,18H1020v20.41h25.14V196.77Z"/><path class="cls-8" d="M1028.75,202.12h0a1.17,1.17,0,0,0-1.16,1.18v11.07h2.32V203.3A1.17,1.17,0,0,0,1028.75,202.12Z"/><path class="cls-8" d="M1032.55,202.12a1.17,1.17,0,0,0-1.16,1.18v11.07h2.32V203.3A1.18,1.18,0,0,0,1032.55,202.12Z"/><path class="cls-8" d="M1037.5,203.3a1.16,1.16,0,1,0-2.32,0v11.07h2.32Z"/><path class="cls-11" d="M992.89,397h0a5.5,5.5,0,0,1-5.45-5.52V293.25a5.5,5.5,0,0,1,5.45-5.52h0a5.5,5.5,0,0,1,5.44,5.52v98.22A5.5,5.5,0,0,1,992.89,397Z"/><path class="cls-11" d="M1071.06,397h0a5.5,5.5,0,0,1-5.44-5.52V293.25a5.5,5.5,0,0,1,5.44-5.52h0a5.5,5.5,0,0,1,5.45,5.52v98.22A5.5,5.5,0,0,1,1071.06,397Z"/><path class="cls-12" d="M1061.09,251.41h-.36c-.55,0-55.14-.57-59.19-.57h-.45l-.35-.28c-7.65-6.28-12.76-.09-13,.18l0-3.24c.11-.14,1.63-1.68,6-2.17,3-.34,5.22.6,8.22,2.95,6.26,0,53.87.52,58.43.57,1.79-1,7.52-4.82,14.26-.9l-.05,2.91c-4.83-4.73-13.13.31-13.22.36Z"/><path class="cls-12" d="M1061.09,319.2h-.36c-.55,0-55.14-.57-59.19-.57h-.45l-.35-.28c-7.65-6.27-13-.07-13.22.2l-.07-3.1c5.9-6.05,11.5-3.1,14.53.63,6.26,0,53.87.51,58.43.56,1.79-1,10.34-3.86,16.1.34l0,3.44c-4.82-4.73-15-1.46-15.06-1.41Z"/><path class="cls-12" d="M1062.07,358.27h-.36c-.56,0-55.14-.57-59.2-.57h-.44l-.35-.28a10.42,10.42,0,0,0-7.69-2.66c-3.38.37-6.55,3.78-6.57,3.81l.12-3.63a11.17,11.17,0,0,1,6.28-3c3-.45,6.09.84,9.09,3.19,6.27,0,53.87.51,58.43.56,1.79-1,9.39-4.69,15-.53l0,3.18c-4.82-4.73-14-.33-14-.28Z"/><path class="cls-11" d="M972.87,398.87v3.51c33-.61,66.08-1.15,99.13-1.16a4.66,4.66,0,0,1,3.42,1.35c4-.17,8-.35,11.95-.57v-3.13Z"/><rect class="cls-4" x="1010.59" y="261.97" width="6.26" height="9.07"/><rect class="cls-4" x="1029.53" y="261.97" width="6.26" height="9.07"/><rect class="cls-4" x="1048.32" y="261.97" width="6.26" height="9.07"/><rect class="cls-4" x="1010.59" y="299.76" width="6.26" height="9.07"/><rect class="cls-4" x="1029.53" y="299.76" width="6.26" height="9.07"/><rect class="cls-4" x="1048.32" y="299.76" width="6.26" height="9.07"/><rect class="cls-4" x="1010.59" y="333.02" width="6.26" height="9.07"/><rect class="cls-4" x="1029.53" y="333.02" width="6.26" height="9.07"/><rect class="cls-4" x="1048.32" y="333.02" width="6.26" height="9.07"/><rect class="cls-4" x="1010.59" y="370.82" width="6.26" height="9.07"/><rect class="cls-4" x="1029.53" y="370.82" width="6.26" height="9.07"/><rect class="cls-4" x="1048.32" y="370.82" width="6.26" height="9.07"/><rect class="cls-11" x="994.1" y="292.02" width="75.06" height="1.66"/><path class="cls-4" d="M1102.69,394.31l0-.55-2.31-2.35,2.82-2.86v0h-.55l-2.56,2.6-2.57-2.6H1097l2.86,2.9-3.68,3.72-3.08-3.12,3.45-3.5h-.58l-3.16,3.21-3.08-3.13.08-.08H1089l.08.08-3.68,3.73-3.76-3.82,0,.56,3.51,3.55-3.38,3.43h.58l3.08-3.13,3.09,3.12h.57l3.68-3.73,3.08,3.12-.6.61h.58l.31-.32.31.32h.58l-.6-.61,3.68-3.73Zm-13.87,1.43-3.08-3.13,3.67-3.72,3.08,3.12Z"/><path class="cls-4" d="M1082.64,395.85l-3.22-3.26L1082,390l-.31-.32-2.53,2.56-3.61-3.66.28-.29h-1.14l.28.29-4,4-3.09-3.13,1.18-1.19h-.58l-.89.9-.88-.9h-.58l1.17,1.19-4.56,4.63-3.08-3.12,2.66-2.7h-.58l-2.37,2.41-2.37-2.41h-.58l2.66,2.7-3.68,3.73-3.08-3.13,3.25-3.3H1055l-3,3-3-3h-.82l-3.55,3.61-3.09-3.12.48-.49h-.58l-.19.2-.18-.2h-.58l.48.49-3.68,3.73-3.08-3.13,1.07-1.09h-.58l-.78.8-.78-.8h-.58l1.07,1.09-3.68,3.73-3.08-3.12,1.67-1.7H1028l-1.38,1.4-1.37-1.4h-.58l1.66,1.7-3.67,3.72-3.08-3.12,2.26-2.3h-.58l-2,2-2-2h-.58l2.26,2.3-3.68,3.72-3.08-3.12,2.86-2.9h-.58l-2.57,2.61-2.56-2.61h-.58l2.85,2.9L1008,395l-3.08-3.12,3.45-3.51h-.58l-3.16,3.21-3.08-3.12.08-.09h-.74l.08.09-3.68,3.72-3.76-3.81,0,.56,3.5,3.55-3.37,3.42h.58l3.08-3.13,3.08,3.13h.58l3.68-3.73,3.08,3.12-.6.61h.58l.31-.31.31.31h.58l-.6-.61,3.67-3.72,3.08,3.12-1.19,1.21h.58l.9-.92.91.92h.58l-1.2-1.21,3.68-3.73,3.08,3.13-1.79,1.81h.58l1.5-1.52,1.5,1.52h.58L1023,394l3.67-3.73,3.08,3.12-2.38,2.42h.58l2.09-2.12,2.1,2.12h.58l-2.39-2.42,3.68-3.72,3.08,3.12-3,3h.58l2.69-2.73,2.69,2.73h.58l-3-3,3.67-3.73,3.09,3.13-3.58,3.62h.58l3.29-3.33,3.08,3.12-.21.21h1l-.2-.21,3.67-3.72,3.08,3.12-.8.81h.58l.51-.51.51.51h.58l-.8-.81,3.68-3.72,3.08,3.12-1.4,1.41h.58l1.11-1.12,1.1,1.12h.58l-1.39-1.41,4.56-4.63,3.08,3.12-2.88,2.92h.58l2.6-2.63,2.59,2.63h.58l-2.89-2.92,4-4,3.61,3.66-5.67,5.75.31.32,5.67-5.75,2.93,3Zm-82-.3-3.08-3.12,3.68-3.73,3.08,3.13Zm47.39-.2-3.08-3.12,3.67-3.73,3.08,3.12Z"/><path class="cls-4" d="M994.49,395.66l-3.22-3.26,2.53-2.56-.32-.32L991,392.08l-3.62-3.66.28-.28h-1.13l.27.28-4,4-3.08-3.12,1.17-1.19h-.58l-.88.89-.88-.89H978l1.17,1.19L974.56,394l-3.08-3.13,2.66-2.69h-.58l-2.37,2.4-2.37-2.4h-.57l2.65,2.69-3.67,3.73-3.08-3.12,3.25-3.3h-.58l-3,3-3-3h-.81l-3.56,3.61-3.08-3.13.48-.48h-.58l-.19.19-.19-.19h-.58l.48.48-3.67,3.73-3.08-3.12,1.07-1.09h-.58l-.78.79-.79-.79h-.58l1.08,1.09L941.85,393l-3.08-3.12,1.67-1.69h-.58l-1.38,1.4-1.38-1.4h-.58l1.67,1.69-3.67,3.73-3.08-3.13,2.26-2.29h-.58l-2,2-2-2h-.58l2.27,2.29-3.68,3.73L924.1,391l2.86-2.9h-.58l-2.57,2.6-2.57-2.6h-.58l2.86,2.9-3.67,3.72-3.08-3.12,3.45-3.5h-.58l-3.17,3.2-3.08-3.12.09-.08h-.75l.08.08L909.14,392l-3.76-3.82,0,.56,3.5,3.55-3.38,3.42h.58l3.09-3.12,3.08,3.12h.57l3.68-3.73,3.09,3.13-.6.6h.58l.31-.31.31.31h.58l-.6-.6,3.67-3.73,3.08,3.12-1.19,1.21h.58l.9-.91.91.91h.58l-1.2-1.21,3.68-3.72,3.08,3.12-1.79,1.81H933l1.5-1.52,1.5,1.52h.58l-1.79-1.81,3.67-3.73,3.08,3.13-2.38,2.41h.58l2.09-2.12,2.1,2.12h.58l-2.39-2.41,3.68-3.73,3.08,3.12-3,3h.58l2.69-2.72,2.69,2.72h.58l-3-3,3.67-3.72,3.08,3.12-3.57,3.62h.58l3.28-3.33,3.08,3.13-.2.2h1l-.21-.2,3.68-3.73,3.08,3.13-.8.8h.58l.51-.51.51.51h.58l-.8-.8,3.67-3.73,3.08,3.12-1.39,1.41h.58l1.1-1.11,1.11,1.11h.58l-1.4-1.41,4.57-4.63,3.08,3.12-2.88,2.92h.58l2.59-2.62,2.59,2.62H986l-2.88-2.92,4-4,3.62,3.66L985,398.13l.32.32L991,392.7l2.93,3Zm-82-.3-3.08-3.12,3.68-3.72,3.08,3.12Zm47.38-.2L956.81,392l3.68-3.73,3.08,3.13Z"/><path class="cls-4" d="M906.34,395.48l-3.22-3.26,2.53-2.57-.32-.32-2.53,2.57-3.61-3.66.28-.29h-1.14l.28.29-4,4-3.08-3.12,1.17-1.19h-.58l-.88.9-.88-.9h-.58l1.17,1.19-4.57,4.63-3.08-3.12L886,388h-.58l-2.37,2.4-2.37-2.4h-.58l2.66,2.7-3.67,3.73L876,391.25l3.26-3.3h-.58l-3,3-3-3h-.81l-3.56,3.61-3.08-3.12.48-.49h-.58l-.19.19-.19-.19h-.58l.48.49L861,392.16,858,389,859,388h-.58l-.79.8-.78-.8h-.58l1.07,1.09-3.67,3.73-3.08-3.13,1.67-1.69h-.58l-1.38,1.4L849,388h-.58l1.67,1.69-3.68,3.73-3.08-3.12,2.26-2.3H845l-2,2-2-2h-.58l2.26,2.3L839,394,836,390.85l2.86-2.9h-.58l-2.57,2.61L833.09,388h-.58l2.86,2.9-3.68,3.73-3.08-3.13,3.45-3.5h-.58l-3.16,3.21L825.24,388l.08-.09h-.74l.08.09L821,391.76,817.22,388l0,.55,3.51,3.56-3.38,3.42h.58l3.09-3.13,3.08,3.12h.57l3.68-3.73,3.08,3.12-.6.61h.58l.31-.32.31.32h.58l-.6-.61,3.68-3.73,3.08,3.13-1.2,1.21h.58l.91-.92.9.92h.58l-1.19-1.21,3.67-3.73,3.08,3.12-1.79,1.82h.58l1.5-1.52,1.5,1.52h.58l-1.79-1.82,3.68-3.72,3.08,3.12L851,395.48h.58l2.1-2.13,2.09,2.13h.58L854,393.06l3.67-3.73,3.08,3.13-3,3h.57l2.69-2.73,2.69,2.73h.58l-3-3,3.68-3.73,3.08,3.12-3.58,3.63h.59l3.28-3.33,3.08,3.12-.2.21h1l-.2-.21,3.68-3.72,3.08,3.12-.8.81h.58l.51-.52.5.52h.58l-.79-.81,3.67-3.73,3.08,3.13-1.39,1.41h.58l1.1-1.12,1.1,1.12h.58l-1.39-1.41,4.57-4.64,3.08,3.13-2.88,2.92h.58l2.59-2.63,2.59,2.63h.58l-2.88-2.92,4-4,3.61,3.66-5.67,5.75.32.32,5.67-5.75,2.93,3Zm-82-.3-3.08-3.12,3.67-3.73,3.08,3.12Zm47.38-.2-3.08-3.13,3.68-3.72,3.07,3.12Z"/><polygon class="cls-13" points="770.45 389.98 770.45 394.93 772.89 392.46 770.45 389.98"/><polygon class="cls-13" points="770.45 389.4 770.45 388.68 770.09 389.04 770.45 389.4"/><polygon class="cls-13" points="780.8 391.85 783.88 394.98 787.56 391.25 784.48 388.13 780.8 391.85"/><polygon class="cls-4" points="771.17 387.95 770.59 387.95 770.45 388.1 770.45 388.68 771.17 387.95"/><path class="cls-4" d="M815.26,392.22l2.53-2.57-.32-.32-2.53,2.57-3.61-3.66.28-.29h-1.14l.28.29-4,4-3.08-3.12,1.17-1.19h-.58l-.88.9-.88-.9H802l1.17,1.19-4.57,4.63-3.08-3.12,2.66-2.7h-.58l-2.37,2.4-2.37-2.4h-.58l2.66,2.7-3.67,3.73-3.08-3.13,3.25-3.3h-.58l-3,3-3-3h-.81l-3.56,3.61-3.08-3.12.48-.49h-.58l-.19.19L777,388h-.58l.48.49-3.68,3.72-2.72-2.76V390l2.44,2.48-2.44,2.47v.55h0l2.68-2.73,2.7,2.73h.58l-3-3,3.67-3.73,3.08,3.12-3.57,3.63h.58l3.28-3.33,3.08,3.12-.2.21h1l-.21-.21,3.68-3.72,3.08,3.12-.8.81h.58l.51-.52.5.52h.58l-.79-.81,3.67-3.73,3.08,3.12-1.39,1.42h.58l1.1-1.12,1.11,1.12h.58l-1.4-1.42,4.57-4.63,3.08,3.13-2.88,2.92h.58l2.59-2.63,2.59,2.63H810l-2.88-2.92,4-4,3.61,3.66L809,397.94l.32.32,5.67-5.75,2.93,3h.58ZM783.88,395l-3.08-3.13,3.68-3.72,3.08,3.12Z"/><path class="cls-6" d="M972.87,402.38q29.85-.56,59.7-.92V117.63L1030,136l-2.39,0L1000,203.31l-7.12-19.56-9.93,31.54,2.85,6.21s-.26,60.26-.08,65.4c.08,3.78,1.78,5.08,1.78,5.08l.11,107.29-14.69-.4Z"/><path class="cls-6" d="M794.94,300.35v101l-24.6,0,0-51.1-4.07-13.7S788.32,334.21,794.94,300.35Z"/><path class="cls-10" d="M1102.64,395.08H770.34v6.33h267.27q17.19-.17,34.39-.19a5.22,5.22,0,0,1,1.41.19h24l5.35-.36A42.29,42.29,0,0,1,1102.64,395.08Z"/><path class="cls-9" d="M1103.62,385.55H770.31v6.07h332.58C1103.09,389.6,1103.34,387.57,1103.62,385.55Z"/><path class="cls-13" d="M561.57,399.15h76.06Q599.61,398.57,561.57,399.15Z"/><path class="cls-2" d="M353.64,401.13H0c18.93-17.92,28.58-34.39,33.9-46.46,3.32-7.51,5.94-15.53,14-24.29,9-9.8,19.35-14.66,26.93-18.21,7.77-3.65,15.73-7.29,26.92-8.1a63.45,63.45,0,0,1,20.94,2c20.63,12.27,24.14,14.39,29.92,16.2s18.52,4.74,31.91,1c3.48-1,11.78-3.72,32.91-25.3,15.16-15.49,18.22-21.76,28.67-32.13,2.71-2.68,5.94-5.79,10.22-9.36a121.32,121.32,0,0,1,19.94-14.17c13.28-7.37,25.19-10,34.9-12.15,5.82-1.28,8.72-1.92,12-2,13.71-.42,24.59,6.19,30.71,10.81Q353.71,320.05,353.64,401.13Z"/></g></g></g></svg>