<svg xmlns="http://www.w3.org/2000/svg" xmlns:xlink="http://www.w3.org/1999/xlink" viewBox="0 0 473.72 389.16"><defs><style>.cls-1{isolation:isolate;}.cls-2{fill:#eae8ed;}.cls-3{fill:#7f542e;}.cls-4{fill:#a26d42;}.cls-5{fill:#6899f4;}.cls-6{fill:#a5b3bf;}.cls-7{fill:#dfe3e7;}.cls-8{fill:#c48b5e;}.cls-9{fill:#d2898a;}.cls-10{fill:#c95b68;}.cls-11{fill:#9ed2e9;}.cls-12{fill:#76b2cc;}.cls-13,.cls-26{fill:#b0a7c2;}.cls-13,.cls-14,.cls-25{mix-blend-mode:multiply;}.cls-14,.cls-46{fill:#c5bed1;}.cls-15{fill:#82c2e8;}.cls-16{fill:url(#linear-gradient);}.cls-17{fill:#fcfcfc;opacity:0.69;}.cls-18{fill:#717f90;}.cls-19{fill:url(#linear-gradient-2);}.cls-20{fill:#c8d1dd;}.cls-21{fill:url(#linear-gradient-3);}.cls-22{fill:url(#linear-gradient-4);}.cls-23{fill:#596876;}.cls-24{fill:#f43d8e;}.cls-27{fill:#aa226d;}.cls-28{fill:#e288b9;}.cls-29{fill:#bfb5f4;}.cls-30{fill:#628dd1;}.cls-31{fill:#785cad;}.cls-32{fill:#a68efe;}.cls-33{fill:#ebeec1;}.cls-34{fill:#d3d3af;}.cls-35{fill:#bebe9e;}.cls-36{fill:#f1f1ce;}.cls-37{fill:#e0be95;}.cls-38{fill:#d8aa7d;}.cls-39{fill:#8bd0d0;}.cls-40{fill:#655fbf;}.cls-41{fill:#d1e2ee;}.cls-42{fill:#4c6e81;}.cls-43{fill:#bbebef;}.cls-44{fill:#71a7ab;}.cls-45{fill:#5a8694;}.cls-47{fill:#d2448d;}.cls-48{fill:#e6a57a;}.cls-49{fill:#f6ba28;}.cls-50{fill:#8140ff;}.cls-51{fill:#f2a305;}.cls-52{fill:#e06c00;}.cls-53{fill:#9f3759;}.cls-54{fill:#bb426a;}.cls-55{fill:#cd7e8e;}.cls-56{fill:#da926e;}.cls-57{fill:#e2ae4a;}.cls-58{fill:#648f66;}.cls-59{fill:#72a368;}.cls-60{fill:#5a84d9;}.cls-61{fill:#ebd863;}.cls-62{fill:#84bf80;}.cls-63{fill:#4b7cd6;}.cls-64{fill:#7b68d8;}</style><linearGradient id="linear-gradient" x1="371.25" y1="255.27" x2="227.87" y2="-25.38" gradientUnits="userSpaceOnUse"><stop offset="0" stop-color="#c4b8e9"/><stop offset="0.42" stop-color="#b2cfde"/><stop offset="1" stop-color="#ffcade"/></linearGradient><linearGradient id="linear-gradient-2" x1="400.59" y1="213.58" x2="257.2" y2="-67.07" xlink:href="#linear-gradient"/><linearGradient id="linear-gradient-3" x1="384.83" y1="221.63" x2="241.45" y2="-59.02" xlink:href="#linear-gradient"/><linearGradient id="linear-gradient-4" x1="357.1" y1="235.8" x2="213.72" y2="-44.85" xlink:href="#linear-gradient"/></defs><title>Zasób 6</title><g class="cls-1"><g id="Warstwa_2" data-name="Warstwa 2"><g id="Default"><path class="cls-2" d="M13.06,254.65c3,1.72,3,4.52,0,6.25a12,12,0,0,1-10.82,0c-3-1.73-3-4.53,0-6.25A11.93,11.93,0,0,1,13.06,254.65Z"/><path class="cls-2" d="M216.27,261.78l3.11.61a1.38,1.38,0,0,0,.76-.06l2.63-1.14c.55-.23,1.32,0,1.31.39l0,1.89c0,.16.12.31.35.4l2.68,1.09c.55.23.42.72-.23.84l-3.14.56a.79.79,0,0,0-.54.31l-1,1.82a1.13,1.13,0,0,1-1.45.13l-1.9-1.55a1.08,1.08,0,0,0-.68-.2l-3.28,0c-.68,0-1.08-.44-.67-.75l2-1.52a.34.34,0,0,0,.12-.44l-1.06-1.8C215,262,215.63,261.66,216.27,261.78Z"/><path class="cls-2" d="M229.62,254.08l3.12.6a1.36,1.36,0,0,0,.75-.06l2.63-1.14c.55-.23,1.32,0,1.31.39l0,1.89c0,.16.13.31.35.4l2.68,1.09c.56.23.42.72-.23.84l-3.14.56a.78.78,0,0,0-.54.32l-1,1.81a1.13,1.13,0,0,1-1.45.13l-1.9-1.55a1.1,1.1,0,0,0-.68-.2l-3.29,0c-.68,0-1.07-.45-.67-.76l2-1.52a.33.33,0,0,0,.12-.44l-1.06-1.79C228.36,254.3,229,254,229.62,254.08Z"/><path class="cls-2" d="M243,246.37l3.11.61a1.35,1.35,0,0,0,.75-.07l2.64-1.14c.54-.23,1.32,0,1.31.39l0,1.89c0,.16.12.31.34.4l2.69,1.09c.55.23.41.72-.23.84l-3.14.56a.76.76,0,0,0-.54.32l-1,1.81a1.13,1.13,0,0,1-1.45.13l-1.9-1.55a1.08,1.08,0,0,0-.68-.2l-3.29,0c-.68,0-1.07-.45-.66-.76l2-1.52a.33.33,0,0,0,.12-.44L241.94,247C241.72,246.59,242.33,246.24,243,246.37Z"/><path class="cls-2" d="M256.33,238.66l3.11.61a1.38,1.38,0,0,0,.76-.07l2.63-1.14c.55-.23,1.32,0,1.31.39l0,1.9c0,.15.12.3.34.39l2.69,1.09c.55.23.42.73-.23.84l-3.14.57a.72.72,0,0,0-.54.31l-1,1.81a1.13,1.13,0,0,1-1.45.13l-1.9-1.55a1.08,1.08,0,0,0-.68-.2l-3.28,0c-.68,0-1.08-.45-.67-.76l2-1.52a.34.34,0,0,0,.12-.44l-1.06-1.79C255.07,238.88,255.69,238.53,256.33,238.66Z"/><path class="cls-2" d="M269.68,231l3.12.61a1.36,1.36,0,0,0,.75-.07l2.63-1.14c.55-.23,1.32,0,1.31.39l0,1.9c0,.15.13.3.35.39l2.68,1.09c.56.23.42.73-.23.84l-3.14.57a.74.74,0,0,0-.54.31l-1,1.81a1.13,1.13,0,0,1-1.45.13l-1.9-1.55a1.17,1.17,0,0,0-.68-.2l-3.29,0c-.68,0-1.07-.44-.67-.76l2-1.52a.33.33,0,0,0,.12-.44l-1.06-1.79C268.42,231.18,269,230.82,269.68,231Z"/><path class="cls-2" d="M420.1,365.93c5.13,3,5.13,7.76,0,10.73s-13.44,3-18.56,0-5.13-7.77,0-10.73S415,363,420.1,365.93Z"/><path class="cls-2" d="M129.21,259.1l3.12.61a1.36,1.36,0,0,0,.75-.07l2.64-1.14c.54-.23,1.31,0,1.3.39l0,1.9c0,.15.13.3.35.39l2.68,1.1c.56.22.42.72-.23.83l-3.14.57a.74.74,0,0,0-.54.31l-1,1.81a1.12,1.12,0,0,1-1.45.13l-1.9-1.55a1.17,1.17,0,0,0-.68-.2l-3.29,0c-.68,0-1.07-.44-.67-.76l2-1.52a.31.31,0,0,0,.12-.43l-1.06-1.8C128,259.33,128.57,259,129.21,259.1Z"/><path class="cls-2" d="M142.57,251.39l3.11.61a1.34,1.34,0,0,0,.75-.07l2.64-1.14c.54-.23,1.32,0,1.31.39l0,1.9c0,.15.12.3.34.39l2.69,1.1c.55.22.42.72-.23.83L150,256a.72.72,0,0,0-.54.31l-1,1.81a1.12,1.12,0,0,1-1.45.13l-1.9-1.55a1.14,1.14,0,0,0-.68-.2l-3.29,0c-.68,0-1.07-.44-.66-.76l2-1.52a.31.31,0,0,0,.12-.43l-1.05-1.8C141.31,251.62,141.92,251.26,142.57,251.39Z"/><path class="cls-2" d="M155.92,243.68l3.11.61a1.38,1.38,0,0,0,.76-.07l2.63-1.14c.55-.23,1.32,0,1.31.39l0,1.9c0,.15.12.3.35.39l2.68,1.1c.55.22.42.72-.23.83l-3.14.57a.72.72,0,0,0-.54.31l-1,1.81a1.12,1.12,0,0,1-1.45.14l-1.9-1.55a1,1,0,0,0-.67-.2l-3.29,0c-.68,0-1.08-.44-.67-.76l2-1.52a.32.32,0,0,0,.12-.43l-1.06-1.8C154.66,243.91,155.28,243.55,155.92,243.68Z"/><path class="cls-2" d="M169.27,236l3.12.61a1.36,1.36,0,0,0,.75-.07l2.63-1.14c.55-.23,1.32,0,1.31.39l0,1.9c0,.15.13.3.35.39l2.68,1.1c.56.22.42.72-.23.84l-3.14.56a.74.74,0,0,0-.54.31l-1,1.81a1.12,1.12,0,0,1-1.45.14l-1.9-1.55a1,1,0,0,0-.68-.2l-3.29,0c-.68,0-1.07-.44-.67-.76l2-1.52a.31.31,0,0,0,.12-.43l-1.06-1.8C168,236.2,168.63,235.84,169.27,236Z"/><path class="cls-2" d="M182.63,228.26l3.11.61a1.35,1.35,0,0,0,.75-.07l2.64-1.13c.54-.24,1.32,0,1.31.38l0,1.9c0,.15.12.3.34.39l2.69,1.1c.55.22.42.72-.23.84l-3.14.56a.75.75,0,0,0-.54.31l-1,1.81a1.12,1.12,0,0,1-1.45.14l-1.9-1.55a1,1,0,0,0-.68-.2l-3.29,0c-.68,0-1.07-.44-.66-.76l2-1.52a.31.31,0,0,0,.12-.43l-1-1.8C181.37,228.49,182,228.13,182.63,228.26Z"/><path class="cls-2" d="M260.8,322.58l3.11.61a1.38,1.38,0,0,0,.76-.07L267.3,322c.55-.23,1.32,0,1.31.39l0,1.9c0,.15.13.3.35.39l2.68,1.09c.56.23.42.73-.23.84l-3.14.57a.72.72,0,0,0-.54.31l-1,1.81a1.15,1.15,0,0,1-1.46.13l-1.89-1.55a1.1,1.1,0,0,0-.68-.2l-3.29,0c-.68,0-1.08-.45-.67-.76l2-1.52a.34.34,0,0,0,.12-.44l-1.06-1.79C259.54,322.8,260.16,322.45,260.8,322.58Z"/><path class="cls-2" d="M274.15,314.87l3.12.61a1.36,1.36,0,0,0,.75-.07l2.64-1.14c.54-.23,1.31,0,1.31.39l-.05,1.9c0,.15.13.3.35.39L285,318c.56.23.42.73-.23.84l-3.14.57a.72.72,0,0,0-.53.31l-1,1.81a1.13,1.13,0,0,1-1.45.13l-1.9-1.55a1.17,1.17,0,0,0-.68-.2l-3.29,0c-.68,0-1.07-.44-.67-.76l2-1.52a.33.33,0,0,0,.12-.44l-1.06-1.79C272.9,315.1,273.51,314.74,274.15,314.87Z"/><path class="cls-2" d="M287.51,307.16l3.11.61a1.34,1.34,0,0,0,.75-.07l2.64-1.14c.54-.23,1.32,0,1.31.39l0,1.9c0,.15.12.3.34.39l2.69,1.09c.55.23.42.73-.23.84l-3.14.57a.72.72,0,0,0-.54.31l-1,1.81A1.13,1.13,0,0,1,292,314l-1.9-1.55a1.14,1.14,0,0,0-.68-.2l-3.29,0c-.67,0-1.07-.44-.66-.76l2-1.52a.31.31,0,0,0,.12-.43l-1-1.8C286.25,307.39,286.86,307,287.51,307.16Z"/><path class="cls-2" d="M300.86,299.45l3.11.61a1.38,1.38,0,0,0,.76-.07l2.63-1.14c.55-.23,1.32,0,1.31.39l0,1.9c0,.15.13.3.35.39l2.68,1.1c.56.22.42.72-.23.83l-3.14.57a.72.72,0,0,0-.54.31l-1,1.81a1.13,1.13,0,0,1-1.46.13l-1.89-1.55a1.17,1.17,0,0,0-.68-.2l-3.29,0c-.68,0-1.08-.44-.67-.76l2-1.52a.32.32,0,0,0,.12-.43l-1.06-1.8C299.6,299.68,300.22,299.32,300.86,299.45Z"/><path class="cls-2" d="M314.21,291.74l3.12.61a1.36,1.36,0,0,0,.75-.07l2.64-1.14c.54-.23,1.31,0,1.3.39l0,1.9c0,.15.13.3.35.39l2.68,1.1c.56.22.42.72-.23.83l-3.14.57a.74.74,0,0,0-.54.31l-1,1.81a1.12,1.12,0,0,1-1.45.13l-1.9-1.55a1.17,1.17,0,0,0-.68-.2l-3.29,0c-.68,0-1.07-.44-.67-.76l2-1.52a.31.31,0,0,0,.12-.43l-1.06-1.8C313,292,313.57,291.61,314.21,291.74Z"/><path class="cls-2" d="M120,252.44,49.48,293.18a9.19,9.19,0,0,1-8.3,0h0c-2.29-1.32-2.29-3.47,0-4.79l70.53-40.74a9.11,9.11,0,0,1,8.29,0h0C122.29,249,122.29,251.12,120,252.44Z"/><path class="cls-2" d="M174.48,221,137.21,242.5a9.17,9.17,0,0,1-8.29,0h0c-2.29-1.33-2.29-3.47,0-4.79l37.27-21.53a9.11,9.11,0,0,1,8.29,0h0C176.77,217.5,176.77,219.64,174.48,221Z"/><path class="cls-2" d="M140.91,219,70.39,259.73a9.19,9.19,0,0,1-8.3,0h0c-2.29-1.33-2.29-3.47,0-4.8l70.52-40.74a9.19,9.19,0,0,1,8.3,0h0C143.2,215.52,143.2,217.66,140.91,219Z"/><path class="cls-2" d="M231.09,166.89l-70.53,40.74a9.17,9.17,0,0,1-8.29,0h0c-2.29-1.32-2.29-3.47,0-4.79l70.52-40.74a9.19,9.19,0,0,1,8.3,0h0C233.38,163.42,233.38,165.57,231.09,166.89Z"/><path class="cls-2" d="M271.59,186.25,201.07,227a9.19,9.19,0,0,1-8.3,0h0c-2.29-1.33-2.29-3.47,0-4.79l70.52-40.74a9.13,9.13,0,0,1,8.3,0h0C273.88,182.78,273.88,184.92,271.59,186.25Z"/><path class="cls-2" d="M138.5,263.13l-20.64,11.92a9.11,9.11,0,0,1-8.29,0h0c-2.3-1.32-2.3-3.47,0-4.79l20.64-11.92a9.11,9.11,0,0,1,8.29,0h0C140.79,259.66,140.79,261.8,138.5,263.13Z"/><path class="cls-2" d="M315.49,160.89l-20.65,11.92a9.11,9.11,0,0,1-8.29,0h0c-2.29-1.32-2.29-3.47,0-4.79l20.64-11.92a9.13,9.13,0,0,1,8.3,0h0C317.78,157.42,317.78,159.57,315.49,160.89Z"/><path class="cls-2" d="M154.94,189.51,84.41,230.24a9.11,9.11,0,0,1-8.29,0h0c-2.29-1.32-2.29-3.46,0-4.79l70.52-40.74a9.19,9.19,0,0,1,8.3,0h0C157.23,186,157.23,188.18,154.94,189.51Z"/><path class="cls-2" d="M198.84,164.15l-20.65,11.92a9.17,9.17,0,0,1-8.29,0h0c-2.29-1.32-2.29-3.47,0-4.79l20.64-11.93a9.19,9.19,0,0,1,8.3,0h0C201.13,160.68,201.13,162.82,198.84,164.15Z"/><path class="cls-2" d="M123.72,347.43,53.2,388.17a9.17,9.17,0,0,1-8.29,0h0c-2.3-1.33-2.3-3.47,0-4.79l70.52-40.74a9.11,9.11,0,0,1,8.29,0h0C126,344,126,346.11,123.72,347.43Z"/><path class="cls-2" d="M178.2,316l-37.27,21.53a9.17,9.17,0,0,1-8.29,0h0c-2.29-1.33-2.29-3.47,0-4.8l37.27-21.53a9.17,9.17,0,0,1,8.29,0h0C180.49,312.49,180.49,314.63,178.2,316Z"/><path class="cls-2" d="M144.63,314,74.11,354.71a9.13,9.13,0,0,1-8.3,0h0c-2.29-1.32-2.29-3.46,0-4.79l70.53-40.74a9.17,9.17,0,0,1,8.29,0h0C146.92,310.51,146.92,312.65,144.63,314Z"/><path class="cls-2" d="M234.81,261.88l-70.52,40.74a9.19,9.19,0,0,1-8.3,0h0c-2.29-1.32-2.29-3.47,0-4.79l70.52-40.74a9.19,9.19,0,0,1,8.3,0h0C237.1,258.41,237.1,260.56,234.81,261.88Z"/><path class="cls-2" d="M275.31,281.24,204.79,322a9.19,9.19,0,0,1-8.3,0h0c-2.29-1.33-2.29-3.47,0-4.8L267,276.44a9.19,9.19,0,0,1,8.3,0h0C277.6,277.77,277.6,279.91,275.31,281.24Z"/><path class="cls-2" d="M142.23,358.12,121.58,370a9.17,9.17,0,0,1-8.29,0h0c-2.29-1.32-2.29-3.47,0-4.79l20.64-11.93a9.19,9.19,0,0,1,8.3,0h0C144.52,354.65,144.52,356.79,142.23,358.12Z"/><path class="cls-2" d="M319.21,255.88,298.57,267.8a9.13,9.13,0,0,1-8.3,0h0c-2.29-1.32-2.29-3.47,0-4.79l20.64-11.92a9.13,9.13,0,0,1,8.3,0h0C321.5,252.41,321.5,254.55,319.21,255.88Z"/><path class="cls-2" d="M158.66,284.49,88.14,325.23a9.13,9.13,0,0,1-8.3,0h0c-2.29-1.32-2.29-3.47,0-4.79l70.52-40.74a9.19,9.19,0,0,1,8.3,0h0C161,281,161,283.17,158.66,284.49Z"/><path class="cls-2" d="M202.56,259.13l-20.64,11.93a9.19,9.19,0,0,1-8.3,0h0c-2.29-1.32-2.29-3.47,0-4.79l20.64-11.93a9.19,9.19,0,0,1,8.3,0h0C204.85,255.67,204.85,257.81,202.56,259.13Z"/><path class="cls-2" d="M231.92,327.22,161.4,368a9.19,9.19,0,0,1-8.3,0h0c-2.29-1.33-2.29-3.47,0-4.8l70.52-40.73a9.13,9.13,0,0,1,8.3,0h0C234.21,323.75,234.21,325.89,231.92,327.22Z"/><path class="cls-2" d="M286.4,295.75l-37.27,21.52a9.13,9.13,0,0,1-8.3,0h0c-2.29-1.32-2.29-3.46,0-4.79L278.1,291a9.19,9.19,0,0,1,8.3,0h0C288.69,292.28,288.69,294.42,286.4,295.75Z"/><path class="cls-2" d="M252.83,293.76,182.3,334.5a9.11,9.11,0,0,1-8.29,0h0c-2.29-1.32-2.29-3.47,0-4.79L244.53,289a9.19,9.19,0,0,1,8.3,0h0C255.12,290.29,255.12,292.44,252.83,293.76Z"/><path class="cls-2" d="M343,241.67l-70.52,40.74a9.17,9.17,0,0,1-8.29,0h0c-2.3-1.32-2.3-3.47,0-4.79l70.52-40.74a9.11,9.11,0,0,1,8.29,0h0C345.29,238.2,345.29,240.35,343,241.67Z"/><path class="cls-2" d="M383.51,261,313,301.76a9.11,9.11,0,0,1-8.29,0h0c-2.29-1.32-2.29-3.46,0-4.79l70.52-40.74a9.19,9.19,0,0,1,8.3,0h0C385.8,257.56,385.8,259.7,383.51,261Z"/><path class="cls-2" d="M250.42,337.91l-20.64,11.92a9.19,9.19,0,0,1-8.3,0h0c-2.29-1.32-2.29-3.47,0-4.79l20.65-11.93a9.17,9.17,0,0,1,8.29,0h0C252.71,334.44,252.71,336.58,250.42,337.91Z"/><path class="cls-2" d="M427.4,235.67l-20.64,11.92a9.17,9.17,0,0,1-8.29,0h0c-2.29-1.32-2.29-3.47,0-4.79l20.64-11.93a9.17,9.17,0,0,1,8.29,0h0C429.7,232.2,429.7,234.34,427.4,235.67Z"/><path class="cls-2" d="M266.85,264.28,196.33,305a9.11,9.11,0,0,1-8.29,0h0c-2.29-1.32-2.29-3.47,0-4.79l70.52-40.74a9.17,9.17,0,0,1,8.29,0h0C269.15,260.81,269.15,263,266.85,264.28Z"/><path class="cls-2" d="M310.75,238.92l-20.64,11.93a9.17,9.17,0,0,1-8.29,0h0c-2.29-1.33-2.29-3.47,0-4.79l20.64-11.93a9.17,9.17,0,0,1,8.29,0h0C313,235.45,313,237.6,310.75,238.92Z"/><path class="cls-2" d="M380,171.83l-70.52,40.74a9.19,9.19,0,0,1-8.3,0h0c-2.29-1.32-2.29-3.47,0-4.79L371.67,167a9.17,9.17,0,0,1,8.29,0h0C382.25,168.36,382.25,170.51,380,171.83Z"/><path class="cls-2" d="M420.46,191.19l-70.52,40.74a9.17,9.17,0,0,1-8.29,0h0c-2.29-1.33-2.29-3.47,0-4.8l70.52-40.74a9.17,9.17,0,0,1,8.29,0h0C422.75,187.72,422.75,189.86,420.46,191.19Z"/><path class="cls-2" d="M464.36,165.83l-20.64,11.92a9.11,9.11,0,0,1-8.29,0h0c-2.3-1.32-2.3-3.47,0-4.79L456.07,161a9.11,9.11,0,0,1,8.29,0h0C466.65,162.36,466.65,164.5,464.36,165.83Z"/><path class="cls-2" d="M303.81,194.44l-70.52,40.74a9.13,9.13,0,0,1-8.3,0h0c-2.29-1.32-2.29-3.47,0-4.79l70.53-40.74a9.17,9.17,0,0,1,8.29,0h0C306.1,191,306.1,193.12,303.81,194.44Z"/><path class="cls-2" d="M347.71,169.08,327.07,181a9.19,9.19,0,0,1-8.3,0h0c-2.29-1.32-2.29-3.47,0-4.79l20.65-11.93a9.17,9.17,0,0,1,8.29,0h0C350,165.62,350,167.76,347.71,169.08Z"/><path class="cls-2" d="M65.65,211c3.19,1.84,3.19,4.82,0,6.66a12.73,12.73,0,0,1-11.53,0c-3.19-1.84-3.19-4.82,0-6.66A12.73,12.73,0,0,1,65.65,211Z"/><path class="cls-2" d="M406,299.24c3.18,1.84,3.18,4.83,0,6.67a12.75,12.75,0,0,1-11.54,0c-3.18-1.84-3.18-4.83,0-6.67A12.75,12.75,0,0,1,406,299.24Z"/><polygon class="cls-3" points="275.29 146.04 275.29 149.86 168.04 191.62 168.04 187.8 275.29 146.04"/><path class="cls-3" d="M275.29,125.39v3.82c-14.43,5.6,29.76-11.59-71.38,27.8l20.34-11.75Z"/><polygon class="cls-4" points="275.29 125.39 224.25 145.26 268.59 119.66 275.29 125.39"/><path class="cls-5" d="M183.11,169v-3.82l91.47-52.81v3.82Q244.76,133.41,183.11,169Z"/><path class="cls-6" d="M270.26,146,169.82,185.09V170.28l9.24-3.6h0l4.05,2.34,20.8-12,66.35-25.84Z"/><path class="cls-6" d="M269.62,112.87,184,162.33V147.87l85.66-49.46Z"/><path class="cls-5" d="M183.11,148.37v-3.83l91.47-52.81v3.82Z"/><path class="cls-3" d="M179.06,166.67h0L168,171v-3.82l7.08-2.75Z"/><polygon class="cls-4" points="175.12 164.4 168.04 167.15 143.5 146.15 175.12 164.4"/><path class="cls-4" d="M169.82,185.09,270.26,146v-4.24l5,4.3L168,187.8,147.6,170.3a7.5,7.5,0,0,1,1.73-2.76Z"/><path class="cls-7" d="M169.82,170.28v14.81l-20.49-17.55a12.71,12.71,0,0,1,3.56-2.5v-.51q-4.86-4.14-9.71-8.31a13.17,13.17,0,0,0-3.87,2.75c-.21-.21.13.11-18.32-15.68a9.6,9.6,0,0,1-2.79-6.47v-5.29l11.6,6.7L168,171Z"/><path class="cls-8" d="M168,187.8v3.82L147.2,173.78a7.93,7.93,0,0,1,.4-3.48Z"/><path class="cls-8" d="M168,167.15V171L129.8,138.23l13.69,7.91C143.57,146.18,142.83,145.57,168,167.15Z"/><path class="cls-9" d="M152.89,164.53c-5.34,2.62-7.47,6.74-5.54,12.52l-9.71-8.31c-1.9-5.72.17-9.9,5.54-12.52Q148,160.38,152.89,164.53Z"/><path class="cls-10" d="M147.35,177.05c-1.93-5.78.2-9.9,5.54-12.52V165c-5.2,2.57-6.82,6.5-5,11.73Z"/><path class="cls-7" d="M118.73,111.25c.47.19-3.93-2.33,64.38,37.12l.85-.5v14.46l-61.75-35.65a7.77,7.77,0,0,1-3.52-6.11C118.69,111.25,118.67,111.66,118.73,111.25Z"/><path class="cls-11" d="M118.73,111.25c-.07.45,0,0,0,9.32a7.77,7.77,0,0,0,3.52,6.11L184,162.33l85.66-49.46v-3.35l5,2.86-91.47,52.81-63.8-36.83a7.79,7.79,0,0,1-3.53-6.12v-8.67a2.9,2.9,0,0,1,.7-2A2.12,2.12,0,0,1,118.73,111.25Z"/><path class="cls-4" d="M118.2,131.53v5.29a9.6,9.6,0,0,0,2.79,6.47c21.23,18.16,18,15.4,18.32,15.68a8.12,8.12,0,0,0-1.78,2.71c-.08,0,0,0-19.94-17.07a9.49,9.49,0,0,1-2.79-6.47c0-9.62,0-8.64.07-8.74A15.15,15.15,0,0,0,118.2,131.53Z"/><path class="cls-11" d="M113.51,105.55c98.18-56.69,91.54-52.94,92.08-53a2.81,2.81,0,0,1,1.88.46l67.11,38.74-91.47,52.81c-71.53-41.3-67.44-39.08-68.33-39.2A2.2,2.2,0,0,0,113.51,105.55Z"/><path class="cls-12" d="M201.39,75.19,230.5,92a4.77,4.77,0,0,0,4.32,0l1.43-.83a1.31,1.31,0,0,0,0-2.49l-29.1-16.8a4.77,4.77,0,0,0-4.32,0l-1.44.83A1.31,1.31,0,0,0,201.39,75.19Z"/><path class="cls-8" d="M112.47,124.15a7.88,7.88,0,0,0,2.4,5.25c-.11.1-.07-.61-.07,8.74a9.49,9.49,0,0,0,2.79,6.47c20.28,17.36,19.86,17.07,19.94,17.07a8.36,8.36,0,0,0-.59,3.31c-.08,0,.3.26-22-18.8a9.54,9.54,0,0,1-2.79-6.47V123.41a3.76,3.76,0,0,1,.29-1.56Z"/><path class="cls-13" d="M192.39,188.91c-2.13.83-4.15,1.6-6.15,2.39s-3.66.74-5.14-.92-3.14-1.76-5.08-.85a34,34,0,0,1-4.46,1.74,18.11,18.11,0,0,1-3.5.35V187.8a47,47,0,0,0,5.82-2.67c-1.28-.1-4,0-4,0v-8a7.57,7.57,0,0,0-1.47-3Q156.13,163.68,144,153.19a7.29,7.29,0,0,0-3.84-1.51c-2.95-.51-5.89-1.15-8.86-1.5-2.39-.28-3.43-1.69-4-3.76-.4-1.64-.85-3.28-1.13-4.94a14.12,14.12,0,0,0-4.42-7.89c6.39,3.11,14,8.08,20.69,11.95h-4.12c10,8.62,29.71,25.43,29.71,25.43v-3.81l7.07-2.76,1.3.81,6.53,3.72c.11-1.45.2-2.54.29-3.67,1.25-.83,2.8-1.67,4.39-2.71-1.28-.15-3.66-.22-3.66-.22s0-4.57.08-6.6c.12-1.77-.63-2.41-2.07-3.23q-20.27-11.64-40.5-23.36c-5.21-3-10.41-6-15.63-9-3.28-1.86-4.41-1.22-4.48,2.47,0,1,0,2,0,3.26a7.58,7.58,0,0,1-5.29-1.86,4.65,4.65,0,0,1-.29-3s-.81-8.2-.37-9.26c.73-1.74,2.86-.72,2.86-.72a26.43,26.43,0,0,1,2.73,1.45q29.16,16.81,58.3,33.65l3.81,2.19v-3.83L274.6,91.73v3.82l-5,2.86v11.11l5,2.86v3.82l-3.77,2.21c12.67,7.57,25.65,14.52,38.4,22.14-1.28.82-2.2,1.45-3.16,2L226.52,188.4c-2.44,1.41-4.89,2.79-7.29,4.26a5.37,5.37,0,0,1-5.61.06,21.65,21.65,0,0,1-2.43-1.41,3.65,3.65,0,0,0-4.23,0c-.73.42-1.47.83-2.18,1.29a5.47,5.47,0,0,1-6.1,0Z"/><path class="cls-14" d="M150.39,176.69c-1.13,0-2.13.36-3,.36-1.93-6.08.44-10.21,5.54-12.52,1.12,1.89.37,4.6,1.08,6.87l-3.58,1.39Z"/><path class="cls-14" d="M121.76,133.59c-3,1.95-1.88,5.06-1.42,9-1.41-.58-4.11-3.34-5.52-3.92,0-3.3.05-6.22.05-9.29C116.77,129.63,119.38,131.63,121.76,133.59Z"/><path class="cls-15" d="M113.17,105.79a2,2,0,0,1,1.61-.45c.89.12-3.18-2.09,68.33,39.2v3.83c-68.13-39.34-64.18-37.18-65-37.3a2,2,0,0,0-1.61.45,2.9,2.9,0,0,0-.7,2v8.67a7.79,7.79,0,0,0,3.53,6.12l63.8,36.83V169L116,130.27a7.77,7.77,0,0,1-3.54-6.12V107.84A2.94,2.94,0,0,1,113.17,105.79Z"/><path class="cls-6" d="M377,82.26v184a3.69,3.69,0,0,1-.9,2.62,2.19,2.19,0,0,1-.35.27,2.7,2.7,0,0,1-1.7.3,4.15,4.15,0,0,1-1.56-.58l-124.73-72a7.44,7.44,0,0,1-1.8-1.47,10.05,10.05,0,0,1-2.71-6.36V5a4.41,4.41,0,0,1,.27-1.64,2.76,2.76,0,0,1,1.05-1.28l.11-.06a1.89,1.89,0,0,1,.36-.16,3.77,3.77,0,0,1,2.72.54L362.65,68.75l9.85,5.69a7.21,7.21,0,0,1,1.8,1.47A10,10,0,0,1,377,82.26ZM373.67,264c0-.05,0-183.57,0-183.84a2.69,2.69,0,0,0-.54-1.28,3.07,3.07,0,0,0-1.2-.9S247.82,6.29,247.65,6.21c-.58-.26-1.05,0-1.06.75,0,0,0,183.22,0,183.63a2.83,2.83,0,0,0,.1,1,2.77,2.77,0,0,0,.66,1.1,3.5,3.5,0,0,0,1,.66l122.31,70.62c1.38.81,1.23.69,1.59.92a2.2,2.2,0,0,0,.64.3.64.64,0,0,0,.66-.26A1.55,1.55,0,0,0,373.67,264Z"/><path class="cls-16" d="M373.67,80.15c0,.27,0,183.79,0,183.84a1.55,1.55,0,0,1-.13.9.64.64,0,0,1-.66.26,2.2,2.2,0,0,1-.64-.3c-.36-.23-.21-.11-1.59-.92L248.34,193.31a3.5,3.5,0,0,1-1-.66,2.77,2.77,0,0,1-.66-1.1,2.83,2.83,0,0,1-.1-1c0-.41,0-183.59,0-183.63,0-.75.48-1,1.06-.75C247.82,6.29,371.89,78,371.93,78a3.07,3.07,0,0,1,1.2.9A2.69,2.69,0,0,1,373.67,80.15Z"/><path class="cls-17" d="M368.16,107.37v44a2.75,2.75,0,0,1-4.13,2.39l-27.54-15.9v-3.18l26.72,15.42a1.46,1.46,0,0,0,2.2-1.27V109a2.73,2.73,0,0,0-1.38-2.38l-24.27-14V89.38l27,15.61A2.74,2.74,0,0,1,368.16,107.37Z"/><path class="cls-18" d="M376.11,268.86a3.69,3.69,0,0,0,.9-2.62v-184a10,10,0,0,0-2.71-6.35,7.21,7.21,0,0,0-1.8-1.47l-9.85-5.69.48-.83,1.66-1v-1l0-.06,11.92,6.88a8.18,8.18,0,0,1,3.86,6.68v184a4.73,4.73,0,0,1-2.26,4.22l-2.59,1.5A2.19,2.19,0,0,0,376.11,268.86Z"/><path class="cls-6" d="M352.41,58.69l12.42,7.17,0,.06-1.66,1-12.42-7.17,1.67-1Z"/><polygon class="cls-18" points="364.79 65.92 364.79 66.96 363.13 67.92 363.13 66.89 364.79 65.92"/><path class="cls-19" d="M354.36,119.48l-6.46-3.73a2.86,2.86,0,0,1,1-2.39,2.13,2.13,0,0,1,2.27.21,6.25,6.25,0,0,1,2.43,2.79A8.62,8.62,0,0,1,354.36,119.48Z"/><polygon class="cls-20" points="350.71 59.72 363.13 66.89 363.13 67.92 350.71 60.75 350.71 59.72"/><text/><path class="cls-21" d="M329,106.18a8.6,8.6,0,0,1-.31,3.1c-.65,1.27-2.07,1.08-3.31.37a4.33,4.33,0,0,1-2.33-3.59c0-.74.3-1.36,1-1.33C325.09,104.77,327.31,106.05,329,106.18Z"/><path class="cls-17" d="M279.41,103.36v2.77L253.17,91a2.76,2.76,0,0,1-1.38-2.39V46.7a2.75,2.75,0,0,1,4.13-2.39l20.63,11.92V59l-20-11.53a1.59,1.59,0,0,0-2.39,1.37v40Z"/><path class="cls-22" d="M279.41,77.54a8.66,8.66,0,0,1-.32,3.11c-.64,1.27-2.07,1.08-3.31.36a4.31,4.31,0,0,1-2.33-3.59c0-.74.31-1.35,1.05-1.32C275.49,76.14,277.72,77.41,279.41,77.54Z"/><path class="cls-23" d="M267.89,10.05c1,.27,1.12,1,.44,1.41-1.18.63-3,0-2.48-.92a1,1,0,0,1,.49-.39A2.43,2.43,0,0,1,267.89,10.05Z"/><path class="cls-23" d="M264.53,8.11c1,.27,1.12,1,.44,1.41-1.18.63-3,0-2.49-.92a1,1,0,0,1,.5-.39A2.43,2.43,0,0,1,264.53,8.11Z"/><path class="cls-23" d="M259.61,6.27c1.2-.51,2.84.13,2.34,1a.84.84,0,0,1-.35.32c-1.17.63-3,0-2.48-.92A1,1,0,0,1,259.61,6.27Z"/><path class="cls-23" d="M257.8,4.22c1,.27,1.13,1,.44,1.41-1.16.63-3,0-2.48-.92a1,1,0,0,1,.49-.38A2.43,2.43,0,0,1,257.8,4.22Z"/><path class="cls-23" d="M252.89,2.39c1.19-.51,2.84.12,2.34,1a.81.81,0,0,1-.35.31c-1.18.64-3,0-2.49-.92A1,1,0,0,1,252.89,2.39Z"/><path class="cls-18" d="M255.23,3.38c.5-.87-1.15-1.5-2.34-1a1,1,0,0,0-.5.38c-.52.91,1.31,1.56,2.49.92A.81.81,0,0,0,255.23,3.38Zm3,2.25c.69-.37.59-1.14-.44-1.41a2.43,2.43,0,0,0-1.55.11,1,1,0,0,0-.49.38C255.22,5.63,257.08,6.26,258.24,5.63ZM262,7.26c.5-.86-1.14-1.5-2.34-1a1,1,0,0,0-.49.39c-.52.9,1.31,1.55,2.48.92A.84.84,0,0,0,262,7.26Zm3,2.26c.68-.37.59-1.14-.44-1.41a2.43,2.43,0,0,0-1.55.1,1,1,0,0,0-.5.39C262,9.5,263.79,10.15,265,9.52Zm2.92.53a2.43,2.43,0,0,0-1.55.1,1,1,0,0,0-.49.39c-.53.9,1.3,1.55,2.48.92C269,11.09,268.92,10.32,267.89,10.05Zm94.76,58.7L247.77,2.43a3.77,3.77,0,0,0-2.72-.54,1.89,1.89,0,0,0-.36.16L247.24.58A4.71,4.71,0,0,1,252,.73l100.39,58,0,.06-1.67,1v1l12.42,7.17Z"/><path class="cls-24" d="M288.53,88l-4.86-2.57-.3,5.62,5.41,2.86-.09,1.69-7-3.71.84-15.6,6.74,3.57-.09,1.69L284,78.84l-.27,4.93,4.86,2.57Z"/><path class="cls-24" d="M291.17,88.52c.06-1.16.09-2.11.09-3.07l1.44.77v1.9l0,0c.5-.83,1.6-1.33,3.08-.54,1.24.66,3.12,2.6,2.91,6.44l-.36,6.69-1.63-.86.35-6.46c.09-1.8-.36-3.59-1.9-4.41a1.51,1.51,0,0,0-2.3.93,2.9,2.9,0,0,0-.16.89l-.37,6.73-1.63-.86Z"/><path class="cls-24" d="M309.34,95c-.08.79-.17,1.68-.24,3l-.35,6.51c-.14,2.56-.64,3.92-1.56,4.43s-2.2.22-3.33-.38a8.81,8.81,0,0,1-2.94-2.51l.5-1.33a7.85,7.85,0,0,0,2.58,2.27c1.67.88,2.95.44,3.1-2.38l.07-1.25,0,0c-.56.78-1.56,1.1-2.95.36-2.23-1.17-3.69-4.38-3.52-7.48.2-3.79,2.3-4.9,4.36-3.81a5.74,5.74,0,0,1,2.69,3.43l0,0,.16-1.65Zm-1.93,3.53a3.86,3.86,0,0,0,0-1,4.7,4.7,0,0,0-2.16-3.36c-1.56-.83-2.76.23-2.9,2.82-.12,2.2.67,4.5,2.43,5.43a1.57,1.57,0,0,0,2.38-.89,3.3,3.3,0,0,0,.18-1Z"/><path class="cls-24" d="M312.25,91.18l1.63.87L313,108.48l-1.63-.86Z"/><path class="cls-24" d="M315.73,109.93l.61-11.2,1.63.86-.61,11.2Zm2.6-13.39c0,.71-.46,1-1.11.7a2,2,0,0,1-.91-1.77c0-.71.49-1,1.08-.73A2,2,0,0,1,318.33,96.54Z"/><path class="cls-24" d="M320,110a7,7,0,0,0,2.1,1.94c1.19.63,1.79.19,1.84-.74s-.39-1.75-1.56-2.94c-1.57-1.57-2.27-3.09-2.2-4.43.1-1.81,1.35-2.67,3.27-1.65a7,7,0,0,1,2.17,1.86l-.49,1.27a5.59,5.59,0,0,0-1.8-1.62c-1-.51-1.54-.1-1.58.73s.46,1.63,1.6,2.8c1.52,1.57,2.26,3,2.17,4.63-.11,2-1.4,2.71-3.53,1.58a7.64,7.64,0,0,1-2.48-2.1Z"/><path class="cls-24" d="M328.29,99.68l1.63.86-.37,7,0,0a1.86,1.86,0,0,1,1.25-.82,2.59,2.59,0,0,1,1.7.31c1.2.64,3.08,2.58,2.87,6.45l-.36,6.66-1.63-.86.35-6.44c.09-1.8-.36-3.61-1.9-4.43a1.53,1.53,0,0,0-2.3.88,2.67,2.67,0,0,0-.16.92L329,117l-1.64-.86Z"/><g class="cls-25"><path class="cls-26" d="M473.72,243.13V271L445,271l-66.37-.07-2-.71c-1.84-.65-2.28-.64-1.6-.79a1.85,1.85,0,0,0,1.6-1.19c.07-.15.38-.13.45-2,.07-2.18-.1-6.54,0-10.7.55-41.85.16-172.9,0-173.61a8.6,8.6,0,0,0-.59-2.61c-.2-.4,1.16-.21,1.55-.42a4.64,4.64,0,0,0,1.78-2.85,9.25,9.25,0,0,1,.72,2,25.75,25.75,0,0,1,.13,2.7l0,111.08,2.37.32a14.15,14.15,0,0,1,4.53,1.29C389.67,194.53,437.39,222.06,473.72,243.13Z"/><polygon class="cls-26" points="363.13 66.89 363.13 67.92 364.13 67.92 366.08 66.89 364.79 66.66 364.79 65.92 363.13 66.89"/></g><path class="cls-27" d="M123.08,256l-1.79-.67-2.92-1.07v-2.11l0,0,8.59,2.61,42.57-46.46,11,4.05-51.14,46Z"/><path class="cls-28" d="M171.24,206.46l-1.69,1.85L127,254.77l-8.59-2.61,43.15-48.65,3.06.93,1.5.46Z"/><polygon class="cls-29" points="166.1 195.67 116.88 251.19 37.87 227.83 87.1 172.31 166.1 195.67"/><path class="cls-30" d="M164.6,200.05v4.39l-3.06-.93Z"/><path class="cls-30" d="M118.37,254.29l2.92,1.07-2.92,3.29Z"/><path class="cls-31" d="M118.39,252.16l0,0v6.47l2.92-3.29,1.79.67-6.2,7V251.18l49.22-55.51v9.23l-1.5-.46v-4.39l-3.06,3.46Z"/><polygon class="cls-32" points="116.88 251.19 116.88 263.03 37.87 239.67 37.87 227.83 116.88 251.19"/><path class="cls-13" d="M141.71,223.34C150,214,166.1,195.67,166.1,195.67v9.23s-.37-.2-.43-.13l-21,23.65c-12.22,13.75-21.94,25-21.94,25l4.3,1.36,44.26-48.31a1.15,1.15,0,0,1-.63,1.89c-.59.22-42.23,47.5-42.23,47.5l-2.71-.2a6.79,6.79,0,0,0-2.7.37l6.4,2.33,49.75-44.75,4.8,2.85s-9,8.54-20,18.41l-25.58,23L132.75,263l-3.15-1.05c-2.89-1-3.19-1-3.7-.05-.43.76-1.51,1-4.79,1-1.41,0-4.23.17-4.23.17V251.18S133.43,232.68,141.71,223.34Z"/><path class="cls-33" d="M134.92,206,89.48,232.19,56.18,213l45.44-26.23Z"/><polygon class="cls-34" points="114.39 218.5 99.88 233.01 93.14 230.77 114.39 218.5"/><polygon class="cls-35" points="99.88 233.01 114.39 218.5 116.02 217.56 99.88 233.7 99.88 233.01"/><polygon class="cls-35" points="99.88 233.01 99.88 233.7 92.38 231.2 93.14 230.77 99.88 233.01"/><polygon class="cls-34" points="97.21 189.28 78.34 200.17 91.22 187.28 97.21 189.28"/><path class="cls-35" d="M89.48,232.19,134.92,206v.69L89.48,232.88Z"/><polygon class="cls-34" points="75.83 225 59.09 219.42 61.68 216.83 75.83 225"/><polygon class="cls-35" points="59.09 219.42 75.83 225 78.65 226.63 59.09 220.11 59.09 219.42"/><path class="cls-36" d="M56.18,213l33.3,19.23v.69l-33.3-19.23Z"/><path class="cls-37" d="M141.37,202l-7.4,4.27-35.7-20.62,7.4-4.26Z"/><polygon class="cls-8" points="141.37 202.96 133.97 207.23 133.97 206.24 141.37 201.97 141.37 202.96"/><polygon class="cls-38" points="133.97 207.23 98.27 186.62 98.27 185.62 133.97 206.24 133.97 207.23"/><path class="cls-3" d="M108.6,183.05c-5.27,3-4.93,2.87-5,2.87a.28.28,0,0,1-.13-.52l4.63-2.67Z"/><path class="cls-3" d="M111.94,185c-5.22,3-4.93,2.87-5,2.87a.27.27,0,0,1-.14-.51l4.63-2.68Z"/><path class="cls-3" d="M115.29,186.91c-5.27,3-4.94,2.87-5.05,2.87a.27.27,0,0,1-.13-.51l4.63-2.68Z"/><path class="cls-3" d="M118.63,188.84c-5.28,3-4.94,2.87-5,2.87a.27.27,0,0,1-.14-.51l4.63-2.68Z"/><path class="cls-3" d="M122,190.77c-5.27,3-4.94,2.87-5,2.87a.27.27,0,0,1-.13-.51l4.63-2.68Z"/><path class="cls-3" d="M125.32,192.7c-5.27,3.05-4.94,2.87-5,2.87a.27.27,0,0,1-.14-.51c4.69-2.71,4.6-2.67,4.63-2.67Z"/><path class="cls-3" d="M128.66,194.63c-5.27,3.05-4.93,2.87-5,2.87a.27.27,0,0,1-.14-.51l4.63-2.67Z"/><path class="cls-3" d="M132,196.56c-5.28,3.05-4.94,2.87-5,2.87a.27.27,0,0,1-.14-.51l4.63-2.67Z"/><path class="cls-3" d="M135.35,198.49c-5.22,3-4.93,2.87-5,2.87a.27.27,0,0,1-.14-.51l4.64-2.67Z"/><path class="cls-3" d="M138.7,200.42c-5.28,3.05-4.94,2.87-5,2.87a.28.28,0,0,1-.14-.51l4.64-2.67Z"/><path class="cls-39" d="M96.85,194.88a15.34,15.34,0,0,0-1,1.29s0,.12.24.46a4.44,4.44,0,0,0-.65,2.71h0a1.31,1.31,0,0,1-.54-1.2,4.09,4.09,0,0,1,1.95-3.27Z"/><path class="cls-40" d="M134.74,218l1.34,1.61a.19.19,0,0,1-.18.31l-2.1-.37c-.16,0-.26-.18-.28-.39a1.41,1.41,0,0,1,.78-1.27A.38.38,0,0,1,134.74,218Z"/><path class="cls-39" d="M104,198.22c31.35,18.11,27.26,15.67,26.94,15.67a1.22,1.22,0,0,0-.6.1h0a3.15,3.15,0,0,0-1.25,1s0,0,0,0a4.27,4.27,0,0,0-.87,1.89,2.52,2.52,0,0,0,0,.88,1.14,1.14,0,0,0,.17.46.87.87,0,0,0,.29.31c-28.91-16.69-28.28-16.31-28.27-16.33a1,1,0,0,1-.33-.41,2.46,2.46,0,0,1,0-1.63,4.34,4.34,0,0,1,.56-1.2l7.12,4.11,1-1.29-.07-.11-6.78-3.91a1.21,1.21,0,0,1,1.19,0Z"/><path class="cls-41" d="M131.67,214.31h0C131.72,214.4,131.71,214.39,131.67,214.31Zm-2.46,4.37h0Zm4.59.83-4.73-.84h0a.66.66,0,0,1-.22-.06h0a1,1,0,0,1-.34-.26.62.62,0,0,1-.08-.12h0a1.28,1.28,0,0,1-.13-.29,1.19,1.19,0,0,1,0-.22,3.28,3.28,0,0,1,.27-1.69h0a4.31,4.31,0,0,1,.47-.83s.15-.2.15-.2a3.11,3.11,0,0,1,1.3-1,1.52,1.52,0,0,1,.61-.08l.08,0a.63.63,0,0,1,.18.06,1,1,0,0,1,.32.24l3.11,3.71a.37.37,0,0,0-.4-.07,1.41,1.41,0,0,0-.78,1.27C133.54,219.33,133.64,219.48,133.8,219.51Z"/><polygon class="cls-42" points="107.68 202.96 108.72 201.67 108.79 201.78 107.76 203.07 107.68 202.96"/><path class="cls-43" d="M99.26,194.84c4.32,2.5,4.14,2.37,4.12,2.39a1.72,1.72,0,0,0-1.83.31l-4.13-2.39a3.7,3.7,0,0,1,.43-.25A1.56,1.56,0,0,1,99.26,194.84Z"/><path class="cls-44" d="M101.55,197.54a1.72,1.72,0,0,1,1.83-.31,1.31,1.31,0,0,1,.63,1l-.94-.54a1.26,1.26,0,0,0-1.13.08Z"/><path class="cls-44" d="M99.54,201.36a4.74,4.74,0,0,1,.82-2.56h0l.28.16a4.34,4.34,0,0,0-.56,1.2,2.46,2.46,0,0,0,0,1.63,1,1,0,0,0,.33.41h0l1,.56a1.34,1.34,0,0,1-1.23-.07A1.54,1.54,0,0,1,99.54,201.36Z"/><path class="cls-39" d="M96.86,194.86a1.28,1.28,0,0,1,1.2-.07h0a3.13,3.13,0,0,0-.65.35c-.34-.19-.49-.29-.55-.27Z"/><path class="cls-43" d="M96.08,200.35a1.39,1.39,0,0,1-.6-.88,4.33,4.33,0,0,1,.76-3.05l4.12,2.38a4.87,4.87,0,0,0-.82,2.56,1.54,1.54,0,0,0,.61,1.34S100.27,202.77,96.08,200.35Z"/><path class="cls-42" d="M96.24,196.42l-.1.14-.23-.33Z"/><path class="cls-45" d="M95.85,196.28c-.1-.16,0-.14.17-.05L107.68,203l.08.11-11.85-6.84.23.33a.16.16,0,0,1,0,.07Z"/><g class="cls-25"><path class="cls-13" d="M138,222.39l-.89-.27c-2.17-.67-4.34-1.35-6.52-2a13.44,13.44,0,0,1-2.81-1.41q-12.63-7.28-25.23-14.57a2.2,2.2,0,0,0-1.23-.4,1.52,1.52,0,0,1-.75-.25c-1.13-.64-2.25-1.29-3.37-1.95-.25-.15-.57-.22-.53-.68,0-.17-.33-.38-.56-.52a1.18,1.18,0,0,1-.51-.64c1.39.75,2.71,1.55,4.05,2.22a4.06,4.06,0,0,1,.61-2.92c-1.42-.83-2.73-1.56-4.13-2.38l-.25-.36c0-.07,0-.12,0-.11,1.31.67,2.78,1.58,4,2.31l3.73,2.16,4,2.33c.25-.28.45-.59.73-.89l1,.53c-.33.43-.64.83-1,1.28l-7.76-4.47a2.34,2.34,0,0,0-.27,2.14,1.47,1.47,0,0,0,.66.62c1.9,1.12,3.82,2.21,5.72,3.31q10.36,6,20.72,12a5,5,0,0,0,1.43.46c1.07.27,2.13.57,3.19.86l3.46.94a.88.88,0,0,1,.41.16c.72.79,1.42,1.59,2.13,2.39Z"/><path class="cls-46" d="M101.73,197.57c1.06-.81,1.83-.63,2.13.39-.16-.06-.3-.09-.42-.15a1.36,1.36,0,0,0-1-.14C102.2,197.73,102,197.61,101.73,197.57Z"/></g><path class="cls-44" d="M95.82,196.17l1-1.29h0v0c.07,0-.43-.29,11.85,6.79l-1,1.29C95.47,195.91,95.87,196.11,95.82,196.17Z"/><path class="cls-17" d="M360.62,219.66c0,3.72-3,5-6.75,2.85l-93.1-53.76c-3.72-2.15-6.74-6.91-6.74-10.63V113.61c0-3.72,3-5,6.74-2.85l93.1,53.76c3.73,2.15,6.75,6.91,6.75,10.63Z"/><path class="cls-47" d="M318.61,171.83c0,8.27-6.7,11.1-15,6.33s-15-15.35-15-23.62,6.7-11.1,15-6.32S318.61,163.56,318.61,171.83Z"/><path class="cls-17" d="M311.23,166.39a3.32,3.32,0,0,1,.88,2c0,.62-.34,1-.88,1h-10a2.6,2.6,0,0,1-1.75-1,3.35,3.35,0,0,1-.87-2V154.84c0-.62.33-1,.87-1a2.6,2.6,0,0,1,1.75,1Z"/><path class="cls-48" d="M303.57,162V162c0,1.72-3,2-3,3.36,0,.77,1.9,2.27,1.9,3.88,0,3.66-4.1,4.43-7.75,4.43-.6,0-1.19,0-1.75,0h0a7.13,7.13,0,0,0-1.87-4.25c3-1.59,4.55-7.52,12-7.52A1.19,1.19,0,0,1,303.57,162Z"/><path class="cls-49" d="M235.9,165.68a13.05,13.05,0,0,1,4-2.1,7.11,7.11,0,0,0,.69,2.31,9.28,9.28,0,0,0,2.46.32,18.78,18.78,0,0,0,6.24-1.33,14.13,14.13,0,0,0,.32-1.7,21.86,21.86,0,0,1,6.08,2.86,14.56,14.56,0,0,0,8.3,2.57c7.6-.06,15.89,3,21.13,1.7,1.64-.42,3.19-1.14,4.81-1.67a3.54,3.54,0,0,1,1.23.75,7.13,7.13,0,0,1,1.87,4.25c0,.32.06.64.07.94-10.08,6.34-21,4.25-30.08,7a4.61,4.61,0,0,0-3.18,5c1.39,10.3,4.34,22.06.73,25.53l0,0c-3.2,2.53-7.76,4-14.21,4-6,0-10.14-4.48-11.9-10.08h0c-.18-.57-.33-1.16-.46-1.75a56.17,56.17,0,0,0,1.35-7.73c.13-1.35.22-2.75.22-4.12,0-8.7-2.24-15.5-2.24-20.19a10.84,10.84,0,0,1,.83-4.54A4.7,4.7,0,0,1,235.9,165.68Z"/><path class="cls-32" d="M266,269.9a4.15,4.15,0,0,1,4.18,4c0,4.8-11,10.2-15.59,10.2-3.28,0-4-2.86-4-6.13,0-1,.07-1.93.12-2.89-.12-2.42,1.94-2.75,2-3.28.66.44-.38,2.25.35,2.25,2.23,0,3.83-1.87,5.28-3.87a5.39,5.39,0,0,1,1.08,4.07C261.37,272.17,264.09,269.9,266,269.9Z"/><path class="cls-47" d="M238.31,259c-.26,1.08-.51,2.06-.72,2.92a4.34,4.34,0,0,1-1.14,2A6.78,6.78,0,0,1,235.3,265c-1.91,0-3.56,1.89-3.56-4.6h0c.5-3.51,1.37-51.26,2.64-54.23,1.76,5.6,5.88,10.08,11.9,10.08,6.45,0,11-1.47,14.21-4h0a43.94,43.94,0,0,1,.55,7.21c0,.14-1.94,44-2.38,51.73-.41,1.69-1.25,2.8-3.6,3.62a2.73,2.73,0,0,1-2.27,0,2.16,2.16,0,0,1-1.22-1.95c.33-7.92-3-42-6.34-47.67C243,232.2,240.62,249.61,238.31,259Z"/><path class="cls-50" d="M249.68,162.06c0,.38-.06.75-.11,1.12a14.13,14.13,0,0,1-.32,1.7,18.78,18.78,0,0,1-6.24,1.33,9.28,9.28,0,0,1-2.46-.32,7.11,7.11,0,0,1-.69-2.31,9.42,9.42,0,0,1-.08-1.2,5.42,5.42,0,0,1,1.18-3.73,5.07,5.07,0,0,0,.89,1.3h0c1.53,1.65,4,2.17,6.37,2.17h.24C248.88,162.12,249.28,162.1,249.68,162.06Z"/><path class="cls-48" d="M248.73,160.74c-.11.46-.2.92-.27,1.39h-.24c-2.35,0-4.84-.52-6.37-2.17h0c0-.67,0-1.35,0-2,1,.27,2.07.14,3.16.5a6.08,6.08,0,0,0,2.57,1.19Q248.19,160.17,248.73,160.74Z"/><path class="cls-32" d="M237.81,261c.16-.62.33-1.3.5-2a8.32,8.32,0,0,1,4.77-1.88c2,0,3.65,1.12,3.65,3.25,0,7-10.83,12.51-13.91,12.51h-.08a2.77,2.77,0,0,1-2.23-2.8c0-3.24.64-5.52,1.23-9.68h0C232.16,264.7,237.46,262.39,237.81,261Z"/><path class="cls-51" d="M235.49,192.51c0,1.37-.09,2.77-.22,4.12h0a31.47,31.47,0,0,1-4.77-16.76c0-4.61,1.08-9,3.59-12.09a10.84,10.84,0,0,0-.83,4.54C233.25,177,235.49,183.81,235.49,192.51Z"/><path class="cls-52" d="M257.38,138.18c.46,1.51.33,3-1.47,3.57h0l-.12,0c-1.8.49-2.18,2.64-3.32,3-5.81,1.78,2.64,12.32-5.1,14.68a5.89,5.89,0,0,1-1.25.25,6.15,6.15,0,0,1-2.81-.4c-1.14,0-2.1.41-3.17.46a3.85,3.85,0,0,1-1.31-.16c-3.75-1.13-6.1-4.16-7.21-7.81-1.24-4.05-1.32-9.55,1.3-14a13.88,13.88,0,0,1,4.62-4.77,17.48,17.48,0,0,1,4.29-1.94C248,129.19,255.6,132.33,257.38,138.18Z"/><path class="cls-48" d="M255.77,141.79a14.71,14.71,0,0,1,.52,1.45c1.44,4.72,1.46,15.71-3.89,17.34a8.75,8.75,0,0,1-4.91-.22v.11l-1.39-.76a5.89,5.89,0,0,0,1.25-.25c7.74-2.36-.71-12.9,5.1-14.68C253.59,144.43,254,142.28,255.77,141.79Z"/><path class="cls-53" d="M399,349.72v-10.5a5,5,0,0,0-2.28-3.94l58.93-34a5,5,0,0,1,2.27,3.93V315.7a1.61,1.61,0,0,1-.67,1.48l-58.9,34A1.67,1.67,0,0,0,399,349.72Z"/><path class="cls-54" d="M455.65,301.26l-58.93,34-4.88-2.83q-2.14-20.9-4.27-41.81l24.85-14.34Z"/><path class="cls-54" d="M398.09,351.3a1.91,1.91,0,0,1-1.37-.26l-3.17-1.84c-.09-.87-.18-1.74-.26-2.61,1.34.78,1.6,1,2.09,1.05a1.39,1.39,0,0,0,.85-.15,1.4,1.4,0,0,0,.6-1c.05-.29,0,.16,0-6a5,5,0,0,0-2.28-3.94l-2.48-1.43-.27-2.62,4.88,2.83a5,5,0,0,1,2.28,3.94v10.5a1.67,1.67,0,0,1-.65,1.47A1,1,0,0,1,398.09,351.3Z"/><path class="cls-20" d="M396.83,346.45c-.23-.09-.12,0-3.78-2.15-.32-3.08-.63-6.15-.94-9.23l2.48,1.43a5,5,0,0,1,2.28,3.94C396.87,346.49,396.88,346.17,396.83,346.45Z"/><path class="cls-55" d="M396.2,347.51a1.64,1.64,0,0,1-1.61-.16l-1.3-.76h0c-.07-.76-.15-1.53-.23-2.29,3.64,2.09,3.55,2.06,3.78,2.15a1.4,1.4,0,0,1-.6,1Z"/><path class="cls-56" d="M393.55,349.2l.36,3.52a1.87,1.87,0,0,1-.93,1.65l-9,6.38a4.6,4.6,0,0,1-4.54.28L373.47,303v-4.68a1.35,1.35,0,0,0-.61-1.08l0,0a4.57,4.57,0,0,0,4.54-.28l9-6.39a1.78,1.78,0,0,0,.92-1.63C387.44,288.88,389.89,314,393.55,349.2Z"/><path class="cls-57" d="M382.82,290.2a2.26,2.26,0,0,0-.41-.3h0l-.2-2A1.52,1.52,0,0,1,382.82,290.2Z"/><path class="cls-20" d="M382.82,290.2c-.32.44-.35.4-5.42,4a4.58,4.58,0,0,1-4.53.28l-38.08-22,7.84-5.53C385.43,291.65,382.61,290,382.82,290.2Z"/><polygon class="cls-57" points="382.4 289.9 342.63 266.94 341.47 267.75 341.1 264.15 382.2 287.87 382.4 289.9"/><path class="cls-56" d="M373.47,303,379.4,361l-5.93-3.42Z"/><path class="cls-58" d="M373.47,366.32a1.58,1.58,0,0,1-.94,1.31l-9.1,5.26a5.09,5.09,0,0,1-3.61.37V306.2a1.46,1.46,0,0,0-.29-.82,2.37,2.37,0,0,0-.65-.53,5,5,0,0,0,4.55,0c9.88-5.71,9.42-5.38,9.75-5.79a1.38,1.38,0,0,0,.29-.78Z"/><path class="cls-59" d="M369.19,298a1.38,1.38,0,0,1-.58,1.33c-.2-.17,2.54,1.43-40.12-23.19l-1.32.76v-3.69L368.27,297A1.88,1.88,0,0,1,369.19,298Z"/><path class="cls-20" d="M363.43,302.39a5,5,0,0,1-4.55,0L321,280.51l7.51-4.34c42.64,24.61,39.91,23,40.12,23.19C368.39,299.54,368.5,299.46,363.43,302.39Z"/><path class="cls-60" d="M359.82,306.2v68a1.6,1.6,0,0,1-.94,1.31l-9.1,5.26a5,5,0,0,1-4.55,0v-68a5,5,0,0,0,4.55,0l9.1-5.25A1.68,1.68,0,0,0,359.82,306.2Z"/><path class="cls-5" d="M355.54,305.9a1.39,1.39,0,0,1-.58,1.34c-.2-.17,2.54,1.43-40.12-23.2l-1.32.77v-3.69l41.1,23.73A2,2,0,0,1,355.54,305.9Z"/><path class="cls-20" d="M355,307.24c-.21.19,0,.07-5.18,3a5,5,0,0,1-4.55,0l-37.91-21.88,7.52-4.35C357.48,308.66,354.75,307.07,355,307.24Z"/><polygon class="cls-5" points="345.23 312.73 345.23 380.77 302 355.81 302 287.77 345.23 312.73"/><path class="cls-13" d="M347,381.45V313.33c2.82-.28,4.95-2.1,7.31-3.4,2-1.09,2.61-4,4.57-5.08.6-.34,1.78.22,2.86.35a4.09,4.09,0,0,0,2-.7c.71-.34,1.36-.78,2-1.17s1.26-.69,1.87-1.06c1.83-1.11,3.65-2.25,5.5-3.34.28-.17-.62-1.65-.27-1.73,0-.31,1.37.85,1.41.54.12-.07.23-.19.34-.19a7.26,7.26,0,0,0,4.23-1.8c2.74-2,5.53-4.45,8.54-6.59.21,1.82.39,4,.56,5.61q1.17,11.14,2.31,22.29c.1,1,.21,2.23.28,3.2a2.64,2.64,0,0,0,1.68,2.48c3.72,2,7.38,4.14,11,6.3,1.67,1,3.24,2.14,5.1,3.39,16.33-9.33,32.49-18.76,49.44-28.45,0,2.27.32,4.12.19,5.91-.12,1.56.49,2.25,1.91,3,2.37,1.21,4.64,2.63,6.94,4,.43.25.82.57,1.5,1.06l-50.05,28.92a14.23,14.23,0,0,0,1.15.9l15.21,8.81c.77.44,1.83.74,1.75,1.86s-1,1.28-1.76,1.67c-2.65,1.4-5.34,2.71-7.94,4.2a7.17,7.17,0,0,1-5.07,1,5.17,5.17,0,0,1-.36,1.79,4.48,4.48,0,0,1-1.52,1.18c-2.18,1.3-4.4,2.53-6.59,3.83-1.53.91-3.06,1.77-5.17,1.3.08,1.49-.79,2.15-1.85,2.74-2.67,1.49-5.31,3-7.94,4.61a6.64,6.64,0,0,1-3.58.72H347Z"/><path class="cls-61" d="M382.2,287.87l-41.1-23.72,2.12-1.5,43.22,25c1.17.66,1.36,2,0,2.9l-9,6.39a4.57,4.57,0,0,1-4.54.28l0,0c-.23-.19,2.79,1.57-43.19-25l2.1-1.49,41.1,23.73a4.58,4.58,0,0,0,4.53-.28l4.81-3.4C383.53,289.85,383.38,288.55,382.2,287.87Z"/><path class="cls-15" d="M355.56,306.17a1.64,1.64,0,0,0-.94-1.32l-41.1-23.73,2.13-1.23c46.19,26.67,43.53,25.06,43.88,25.49.6.82.21,1.59-.65,2.1l-9.1,5.25a5,5,0,0,1-4.55,0l-43.23-25,2.13-1.22c3.81,2.19-4.48-2.6,41.1,23.72a5,5,0,0,0,4.55,0c5.11-2.95,5.14-2.9,5.48-3.33A1.39,1.39,0,0,0,355.56,306.17Z"/><path class="cls-62" d="M372.86,297.2a1.35,1.35,0,0,1,.61,1.08,1.61,1.61,0,0,1-.94,1.31l-9.1,5.26a5,5,0,0,1-4.55,0l-43.23-25,2.14-1.23c26.34,15.25,41,23.68,41.09,23.73a5,5,0,0,0,4.55,0c4.78-2.76,4.95-2.84,5.18-3a1.48,1.48,0,0,0,.6-1.08,1.64,1.64,0,0,0-.94-1.31l-41.1-23.73L329.3,272C329.36,272,372.6,297,372.86,297.2Z"/><path class="cls-53" d="M405.94,290.21l27.19,15.7a4.47,4.47,0,0,0,4,0l1.34-.78a1.23,1.23,0,0,0,0-2.33l-27.19-15.7a4.47,4.47,0,0,0-4,0l-1.34.78A1.23,1.23,0,0,0,405.94,290.21Z"/><path class="cls-63" d="M337.2,323.39,310,307.69c-1.12-.65-2-.26-2,.85v1.34a4.17,4.17,0,0,0,2,3.18l27.19,15.7c1.12.65,2,.26,2-.85v-1.34A4.15,4.15,0,0,0,337.2,323.39Z"/><path class="cls-63" d="M337.2,332.89,310,317.19c-1.12-.64-2-.26-2,.85v1.34a4.19,4.19,0,0,0,2,3.19l27.19,15.7c1.12.64,2,.26,2-.86v-1.34A4.17,4.17,0,0,0,337.2,332.89Z"/><polygon class="cls-32" points="282.18 318.25 282.18 330.51 277.99 332.94 277.99 320.68 282.18 318.25"/><path class="cls-29" d="M252.92,318.47c15.47-1,16.13-1,19.44-1L252.51,306l4.2-2.43,25.47,14.71L278,320.67l-44.65,2.72-4.66.2,4.66,2.69,14.7,8.48,3.36,1.94-4.2,2.42-28.12-16.23,4.36-2.52Z"/><polygon class="cls-32" points="277.99 320.68 277.99 332.94 248.04 334.76 233.34 326.28 233.34 323.39 277.99 320.68"/><path class="cls-32" d="M252.51,306l19.85,11.46c-3.31,0-4,0-19.44,1l-.41-.24Z"/><polygon class="cls-32" points="251.4 336.7 251.4 348.96 247.2 351.39 247.2 339.12 251.4 336.7"/><polygon class="cls-32" points="247.2 339.12 247.2 351.39 219.08 335.15 219.08 322.89 247.2 339.12"/><polygon class="cls-32" points="233.34 323.39 233.34 326.28 228.68 323.59 233.34 323.39"/><polygon class="cls-32" points="217.79 304.75 217.79 317.01 213.4 319.55 213.4 307.28 217.79 304.75"/><polygon class="cls-29" points="217.79 304.75 213.4 307.28 199.98 299.54 204.37 297 217.79 304.75"/><polygon class="cls-32" points="213.4 307.28 213.4 319.55 199.98 311.8 199.98 299.54 213.4 307.28"/><polygon class="cls-47" points="195.01 267.92 195.01 280.19 174 309.13 174 296.86 195.01 267.92"/><path class="cls-47" d="M188.63,268.55c-2.57,2.68-4.74,5.57-11,13.55l-12.06-7q7.18-1.85,14.34-3.76A87.21,87.21,0,0,0,188.63,268.55Z"/><polygon class="cls-47" points="175.26 285.15 168.73 293.64 160.38 288.83 160.38 276.56 175.26 285.15"/><polygon class="cls-47" points="174 296.86 174 309.13 168.63 306.03 168.63 293.76 174 296.86"/><path class="cls-28" d="M168.73,293.64l6.53-8.49-14.88-8.59-14.67,4-5-2.89L189.94,265l5.07,2.93-21,28.94-5.37-3.1Zm8.91-11.54c6.25-8,8.42-10.87,11-13.55a87.21,87.21,0,0,1-8.71,2.82q-7.15,1.9-14.34,3.76Z"/><polygon class="cls-47" points="160.38 276.56 160.38 288.83 145.71 292.79 145.71 280.53 160.38 276.56"/><polygon class="cls-47" points="145.71 280.53 145.71 292.79 140.71 289.91 140.71 277.64 145.71 280.53"/><path class="cls-13" d="M282.18,318.25l0,7.29,8.43,4.93c-1.88,1.36-3.57,2.51-5.78,2.62-3.44.16-6.88.31-10.33.52-4.6.29-9.2.65-13.8.94-3.57.21-10.7.52-10.7.52l-1.94-.4-19.36-11.08s3.48-.13,4.66-.2c4.8-.29,9.38-.46,14.17-.77,4.48-.29,9-.62,13.44-.89l17-1.06Z"/><path class="cls-13" d="M174,309.13V296.86l21-28.94.05,9.42s5.6,1.19,8.25,2.79c-.3.5-.53,1-.84,1.4q-9.5,13.07-19,26.14a2.74,2.74,0,0,1-2.57,1.38C178.72,309,174,309.13,174,309.13Z"/><path class="cls-13" d="M162.86,290.18c-5.66,2.06-11.2,3.48-17.15,2.61V280.51l14.67-3.95C161.31,281.21,162,285.67,162.86,290.18Z"/><path class="cls-13" d="M177.64,282.1l-12.06-7c10.54-2.68,18.76-4.84,23-6.58C186.23,271.44,183,274.75,177.64,282.1Z"/><path class="cls-13" d="M213.43,319.53V307.32l4.36-2.57,0,7.38,2.46,1.41c1.91,1.1,3.81,2.22,5.9,3.44-2.29,1.48-7,2.59-7,2.59Z"/><path class="cls-13" d="M259.75,348.94c-2,1.46-6.35,2.48-6.35,2.48l-6.2,0c0-4.17.24-12.27.24-12.27l4-2.42v7.12s.25.52,1.55,1.2C255.19,346.18,257.33,347.53,259.75,348.94Z"/><polygon class="cls-27" points="432.66 235.2 421.64 241.56 417.72 238.16 421.27 236.11 428.74 231.79 432.66 235.2"/><path class="cls-27" d="M429.12,240.75l-11,6.32c1.63-.94,2.79-2.77,3.48-5.51l11-6.36q-1,4.1-3.48,5.51Z"/><polygon class="cls-27" points="419.83 130.63 431.95 171.82 429.12 173.45 421.32 177.96 420.93 178.18 408.81 136.99 419.83 130.63"/><path class="cls-64" d="M431.31,196.44q-2,4.29-4,8.56a8,8,0,0,0,.67-3.31,8.68,8.68,0,0,0-2-5.48,13.49,13.49,0,0,0-5.64-4,8,8,0,0,0,4.25-2.46,6.82,6.82,0,0,0,.85-1.36l0,0c.54-1.15,1.07-2.31,1.61-3.46,2.93,1.86,4.92,4.69,4.92,8.09a7.94,7.94,0,0,1-.72,3.4Z"/><path class="cls-64" d="M429.5,179.8l-2.37,5.11c-.54,1.15-1.07,2.31-1.61,3.46,1.05-2.3.49-4.94-1-7.27a11.35,11.35,0,0,0-3.15-3.14l7.8-4.51a7.09,7.09,0,0,1,.42,6.27A.3.3,0,0,0,429.5,179.8Z"/><path class="cls-29" d="M416.67,189.63c2.56-.26,4.11-1.52,4.11-4a5.62,5.62,0,0,0-2.51-4.69,6.68,6.68,0,0,0-1.21-.66,29.53,29.53,0,0,0-6.16-1.43l-4-.63-4-.62v10.33l8.74,1.36A23.66,23.66,0,0,0,416.67,189.63ZM422,203a5,5,0,0,0,.43-2.11,5.88,5.88,0,0,0-1.48-3.9h0a8,8,0,0,0-2.9-2.09,25.07,25.07,0,0,0-5.92-1.48l-5.32-.83-4-.62v11.76c10.24,1.58,12.33,2,13.71,1.95a8.91,8.91,0,0,0,3.09-.46,4.21,4.21,0,0,0,2-1.58A3.72,3.72,0,0,0,422,203Zm6-1.26a8,8,0,0,1-.67,3.31.36.36,0,0,0,0,.09,7.71,7.71,0,0,1-.49.89,7.84,7.84,0,0,1-1.63,1.87,6.67,6.67,0,0,1-1.33.85c-3.1,1.48-7.57,1.09-11,.57l-10.52-1.63-4.91-.76V172.69L412.64,175a31.06,31.06,0,0,1,4.66,1.06l3.63,2.09.39-.22a11.35,11.35,0,0,1,3.15,3.14c1.54,2.33,2.1,5,1,7.27l0,0a6.82,6.82,0,0,1-.85,1.36,8,8,0,0,1-4.25,2.46,13.49,13.49,0,0,1,5.64,4A8.68,8.68,0,0,1,428,201.69Z"/><path class="cls-47" d="M402.59,213.42l-.06,0a4.91,4.91,0,0,0-2.1,2.77,18.1,18.1,0,0,0-.93,6,30.28,30.28,0,0,0,1.1,8.25,19.47,19.47,0,0,0,3.42,6.84,17.82,17.82,0,0,0,5,4.51q3.3,1.91,5.58,1,.25-.1.51-.24l.05,0c1.22-.73,2.06-2.22,2.53-4.45l3.92,3.4c-.69,2.74-1.85,4.57-3.48,5.51a4.77,4.77,0,0,1-1,.43q-3.21,1.08-7.83-1.59a25.55,25.55,0,0,1-7.79-6.74A29.25,29.25,0,0,1,397,230a34.82,34.82,0,0,1-1.56-10.07q0-5.34,1.77-8.3a6.37,6.37,0,0,1,2.3-2.36,6.12,6.12,0,0,1,2.73-.78,13.1,13.1,0,0,1,7.18,2.09,25.21,25.21,0,0,1,11.69,16.71l-3.85-1.18c-1.08-4.53-3-8.36-6.75-11q-.55-.39-1.17-.75-3.42-2-5.71-1.41A4.51,4.51,0,0,0,402.59,213.42Z"/><path class="cls-27" d="M421.27,236.11l-3.55,2c-.47,2.23-1.31,3.72-2.53,4.45l-.05,0q-.25.13-.51.24-2.28.87-5.58-1a17.82,17.82,0,0,1-5-4.51,19.47,19.47,0,0,1-3.42-6.84,30.28,30.28,0,0,1-1.1-8.25,18.1,18.1,0,0,1,.93-6,4.91,4.91,0,0,1,2.1-2.77l.06,0a4.51,4.51,0,0,1,1.06-.42q2.3-.56,5.71,1.41.61.36,1.17.75h0a30.29,30.29,0,0,0,1.09,9A19.47,19.47,0,0,0,415,231,16.92,16.92,0,0,0,421.27,236.11Z"/><path class="cls-27" d="M421.13,227.3a25.21,25.21,0,0,0-11.69-16.71,13.1,13.1,0,0,0-7.18-2.09,6.12,6.12,0,0,0-2.73.78l2.84-1.64,10.52,1.63c3.39.52,7.86.91,11-.57a6.67,6.67,0,0,0,1.33-.85,26.41,26.41,0,0,1,7,13.09Z"/><path class="cls-47" d="M417.3,176.09l-.84-.49-2.71-9.71-.74-2.64-6.67-3.85-5.71-3.3-3.26,8.48-4.16-2.4,11.38-27.63,4.22,2.44,12.12,41.19Zm-8.25-27.23c-1.16-4.22-1.9-7.05-2.44-9.55a32.2,32.2,0,0,1-1.6,5.61q-1.61,4.1-3.25,8.15l10,5.8C410.68,154.79,409.78,151.54,409.05,148.86Z"/><polygon class="cls-28" points="419.83 130.63 408.81 136.99 404.58 134.55 415.61 128.19 419.83 130.63"/><path class="cls-32" d="M417.3,176.09a31.06,31.06,0,0,0-4.66-1.06l-15.18-2.34,4-8.7,12.25,1.9,2.71,9.71Z"/><path class="cls-28" d="M411.8,158.87l-10-5.8,7.29-4.21C409.78,151.54,410.68,154.79,411.8,158.87Z"/><path class="cls-27" d="M409.05,148.86l-7.29,4.21q1.65-4,3.25-8.15a32.2,32.2,0,0,0,1.6-5.61C407.15,141.81,407.89,144.64,409.05,148.86Z"/><path class="cls-32" d="M406.85,195c11.56,1.79,12.54,2,14.14,2h0a5.88,5.88,0,0,1,1.48,3.9A5,5,0,0,1,422,203a3.72,3.72,0,0,1-.38.64,4.21,4.21,0,0,1-2,1.58,8.91,8.91,0,0,1-3.09.46c-1.38,0-3.47-.37-13.71-1.95Z"/><path class="cls-32" d="M406.85,179.19c9.31,1.44,9.89,1.56,11.42,1.7a5.62,5.62,0,0,1,2.51,4.69c0,2.53-1.55,3.79-4.11,4a23.66,23.66,0,0,1-5.11-.39l-8.74-1.36Z"/><path class="cls-64" d="M406.85,192.54V195l-4,8.7V191.92Z"/><path class="cls-64" d="M406.85,178.17v1l-4,8.69V177.55Z"/><polygon class="cls-27" points="406.34 159.4 397.37 164.58 400.63 156.1 406.34 159.4"/></g></g></g></svg>