<svg xmlns="http://www.w3.org/2000/svg" viewBox="0 0 401.57 378.11"><defs><style>.cls-1{opacity:0.13;}.cls-2{fill:#eaeff8;}.cls-3{fill:#fff;}.cls-4{fill:#9f5faf;}.cls-5{fill:#b25fb2;}.cls-6{fill:#ff9670;}.cls-7{fill:#602b29;}.cls-8{fill:#400e09;}.cls-9{fill:#fc7f51;}.cls-10{fill:#d03711;}.cls-11{fill:#2d0e0b;}.cls-12{fill:#f46e45;}.cls-13{fill:#e53e3e;}.cls-14{fill:#ef7926;}.cls-15{fill:#e26a1a;}.cls-16{fill:#f3d1a4;}.cls-17{fill:#8969e2;}.cls-18{fill:#7359d1;}.cls-19{fill:#a694ea;}.cls-20{opacity:0.5;}.cls-21{fill:#1e976f;}.cls-22{fill:#06593b;}</style></defs><title>Zasób 4</title><g id="Warstwa_2" data-name="Warstwa 2"><g id="OBJECTS"><g class="cls-1"><path class="cls-2" d="M70.29,373.65l210.56-2.86c36.43,0,72.25-26.44,94.13-67.38s29.78-95.12,22.64-144.74S368.77,64.45,339.33,35.05C321.2,16.93,300,4.28,277.69.89s-45.63,2.84-64.75,19.57C179.66,49.59,161.63,107,126,130c-16.61,10.68-35.27,12.57-52.91,19.18-34.71,13-67.71,50.34-72.32,99.92-3.38,36.39,5.09,63.46,22.58,92.09,14.48,23.67,26,35.23,47,32.51"/></g><path class="cls-2" d="M358.59,372.2c0,3.26-72.22,5.91-161.31,5.91S36,375.46,36,372.2s72.22-5.9,161.3-5.9S358.59,368.94,358.59,372.2Z"/><path class="cls-2" d="M246.53,340.21c6.13-12.62,13.64-25,24.66-33.68,4.23-3.33,9-6.12,14.33-7s11.14.23,15.05,3.93c.73.69,1.55,1.52,2.55,1.43a3.26,3.26,0,0,0,1.7-.93c6.95-5.81,15.32-9.64,23.82-12.75,17.63-6.47,37.3-10.08,55.1-4.1,7.7,2.59,15.41,7.71,17.36,15.6s-2.41,15.88-7.84,21.83c-9,9.83-21.18,16.3-33.92,20.17S333.25,350,320,350.89c-23.08,1.63-51.76-2.61-73.44-10.68"/><path class="cls-3" d="M252.62,338c9.17-1.17,18.33-2.34,27.48-3.65s18.26-2.77,27.33-4.53,18-3.78,26.87-6.24,17.4-5.44,26-8.36a234.35,234.35,0,0,1,26.09-7.58c1.09-.23,2.19-.44,3.29-.65.72-.13.65-1.28-.08-1.15A195.27,195.27,0,0,0,363.49,313c-8.64,2.86-17.2,5.94-25.93,8.5s-17.83,4.73-26.86,6.56-18.2,3.35-27.35,4.7-18.31,2.54-27.47,3.71l-3.33.42c-.74.1-.67,1.25.07,1.16Z"/><path class="cls-3" d="M272.71,335.18l16.64-8.38,16.82-8.47,9.31-4.69a.58.58,0,0,0,.16-.8.6.6,0,0,0-.8-.16l-16.64,8.38-16.82,8.47-9.3,4.68a.58.58,0,0,0,.63,1Z"/><path class="cls-3" d="M310.61,329.19c6.13,1.36,12.24,2.87,18.34,4.4,6.28,1.57,12.57,3.18,18.87,4.71q5,1.23,10.1,2.36a.58.58,0,0,0,.22-1.13c-6.14-1.37-12.24-2.87-18.34-4.4-6.29-1.58-12.57-3.18-18.87-4.71-3.36-.82-6.73-1.62-10.11-2.37-.72-.16-.94,1-.21,1.14Z"/><path class="cls-3" d="M345.41,320.18a106,106,0,0,1,18.44-14.24c1.8-1.09,3.64-2.11,5.53-3a.61.61,0,0,0,.37-.73.59.59,0,0,0-.74-.36,92.62,92.62,0,0,0-19.64,13.24c-1.65,1.4-3.26,2.86-4.83,4.36a.58.58,0,0,0,.06.81.59.59,0,0,0,.81-.05Z"/><path class="cls-2" d="M246.12,307.42a63.81,63.81,0,0,1-1.83-36.18,40.26,40.26,0,0,1,7.33-15.89c3.7-4.57,9-8,14.81-8.77a3.29,3.29,0,0,0,2.34-.89,3.1,3.1,0,0,0,.45-1.78c.94-16.33,12-30.21,23.75-41.62,5.38-5.24,11.07-10.28,17.67-13.87s14.23-5.64,21.66-4.57a34.37,34.37,0,0,1,12.33,4.53c3.57,2.09,6.93,4.74,9,8.3,2.62,4.45,3,10,1.89,15A41.13,41.13,0,0,1,349,225.63a80.81,80.81,0,0,1-14.7,16.3,3.21,3.21,0,0,0-1.4,2c-.1,1.17,1,2,2,2.72,5,3.92,6.31,11.28,4.52,17.38s-6.13,11.13-10.81,15.43c-9.65,8.89-21.19,15.57-33.33,20.54a75.61,75.61,0,0,1-16.73,5c-4.35.69-8.76.8-13.15,1.12-5.61.4-13.66.57-19.24,1.3"/><path class="cls-3" d="M249.8,305.75q9-9.93,17.74-20.09t17.3-20.61q8.49-10.37,16.7-21t16.17-21.36q8-10.78,15.63-21.77c.65-.92,1.29-1.85,1.93-2.77.42-.61-.43-1.38-.86-.77q-7.64,11-15.55,21.81t-16.18,21.51q-8.19,10.6-16.64,21t-17.16,20.58q-8.72,10.19-17.67,20.14L248.94,305a.58.58,0,0,0,.86.77Z"/><path class="cls-3" d="M266.14,287.17c1.76-6.08,3.71-12.1,5.78-18.07s4.23-11.83,6.46-17.7q1.9-5,3.84-10a.6.6,0,0,0-.25-.78.59.59,0,0,0-.78.25c-2.29,5.93-4.57,11.85-6.77,17.81s-4.3,12-6.27,18q-1.65,5.08-3.14,10.22c-.2.71.93.94,1.13.23Z"/><path class="cls-3" d="M287,262.27q8.38-4,16.49-8.55c5.47-3.11,10.83-6.45,16-10.08q4.2-3,8.2-6.21a.6.6,0,0,0,.16-.8.58.58,0,0,0-.8-.16,156.85,156.85,0,0,1-15,10.76c-5.26,3.36-10.69,6.47-16.21,9.36-3,1.6-6.11,3.12-9.21,4.59a.58.58,0,1,0,.38,1.09Z"/><path class="cls-3" d="M309.23,234a147.15,147.15,0,0,1,3.86-14.3c1.52-4.73,3.25-9.4,5.11-14q1.57-3.85,3.26-7.65c.3-.68-.73-1.21-1-.53q-3,6.81-5.64,13.79c-1.75,4.71-3.34,9.49-4.69,14.33-.74,2.69-1.42,5.4-2,8.13a.58.58,0,0,0,1.13.23Z"/><path class="cls-2" d="M314.07,282.71a76.93,76.93,0,0,1,3.62-26.57c1.09-3.41,2.5-6.86,5.1-9.33,1.21-1.15,3.39-2,4.37-.61a3.11,3.11,0,0,1,.47,1.59c.43,5-1.14,9.85-2.87,14.51-2.78,7.47-7,13.35-10.69,20.41"/><path class="cls-2" d="M317.69,280.08A69.37,69.37,0,0,1,341.58,284c3.06,1.08,6.14,2.44,8.3,4.84,1,1.12,1.68,3.1.44,4a2.75,2.75,0,0,1-1.44.38c-4.48.27-8.86-1.27-13-2.94-6.67-2.69-11.87-6.64-18.16-10.15"/><path class="cls-2" d="M117.41,352.67c-1.31-12.06-3.82-24.3-10.25-34.58-2.47-3.94-5.57-7.61-9.61-9.9s-9.13-3.06-13.38-1.19a3.13,3.13,0,0,1-2.49.42,2.84,2.84,0,0,1-1.12-1.25c-4-6.75-9.65-12.3-15.65-17.31-12.46-10.39-27.4-19.06-43.62-19.38-7-.14-14.78,1.79-18.66,7.63s-2.67,13.62,0,20c4.45,10.61,12.48,19.43,21.71,26.29S44,335.33,54.57,340c18.29,8,42.85,12.94,62.84,12.71"/><path class="cls-3" d="M113.09,349.11c-7.12-3.62-14.23-7.23-21.29-11s-14-7.57-20.91-11.64-13.54-8.32-20-12.9-12.57-9.49-18.74-14.38a200.08,200.08,0,0,0-19-13.76c-.82-.51-1.65-1-2.48-1.49-.55-.32-.16-1.24.4-.91a169,169,0,0,1,19.19,13.39c6.18,4.84,12.25,9.84,18.61,14.46S62,320,68.76,324.07s13.83,8,20.88,11.8,14.14,7.39,21.26,11l2.58,1.31c.57.29.18,1.21-.39.92Z"/><path class="cls-3" d="M97.58,340.94l-11.1-11.66q-5.6-5.89-11.21-11.78L69.07,311a.49.49,0,0,1,.1-.69.51.51,0,0,1,.7.1L81,322q5.61,5.88,11.21,11.78l6.2,6.52a.5.5,0,1,1-.79.6Z"/><path class="cls-3" d="M68.5,325c-5.39-.67-10.79-1.23-16.19-1.76-5.58-.55-11.15-1.07-16.72-1.66-3-.32-6-.65-8.91-1a.5.5,0,0,1,.15-1c5.39.68,10.79,1.23,16.2,1.76,5.57.55,11.15,1.08,16.72,1.67,3,.31,5.94.64,8.91,1,.63.08.48,1.06-.16,1Z"/><path class="cls-3" d="M42.82,307.57A92.24,92.24,0,0,0,32,290.62c-1.15-1.41-2.35-2.78-3.63-4.07a.51.51,0,0,1-.08-.7.5.5,0,0,1,.7-.08,80,80,0,0,1,12.12,16.48q1.39,2.44,2.66,4.95a.5.5,0,1,1-.93.37Z"/><path class="cls-2" d="M117,284.73c-3.39-2.21-6.7-4.56-9.89-7.06s-6.31-5.14-9.3-7.9-5.8-5.6-8.51-8.57-5.36-6.13-7.83-9.36-4.8-6.54-7-10l-.8-1.28a.68.68,0,0,0-.93-.16.69.69,0,0,0-.17.94q3.25,5.19,6.94,10.09t7.7,9.41c2.74,3.06,5.61,6,8.59,8.84s6,5.47,9.21,8,6.47,4.93,9.86,7.19l1.26.83a.67.67,0,0,0,.86-1Z"/><path class="cls-2" d="M78.24,248.86a91.47,91.47,0,0,1-20.17-24.69c-2.08-3.73-3.93-7.75-4-12,0-2,1-4.53,3-4.3a3.73,3.73,0,0,1,1.75.88c4.66,3.65,7.65,9,10.3,14.27,4.25,8.47,5.94,16.9,9.08,25.85"/><path class="cls-2" d="M88.47,261.72a91.27,91.27,0,0,1-30.74-8.45c-3.85-1.83-7.69-4-10.19-7.49-1.17-1.61-1.77-4.3,0-5.25a3.65,3.65,0,0,1,1.94-.29c5.91.27,11.43,2.89,16.65,5.67,8.38,4.44,14.64,10.34,22.37,15.81"/><path class="cls-2" d="M85.3,258.48A91.38,91.38,0,0,1,75.83,228c-.53-4.23-.75-8.66.81-12.63.73-1.85,2.66-3.81,4.41-2.85A3.68,3.68,0,0,1,82.34,214c3,5.12,3.73,11.19,4.21,17.08.77,9.45-.81,17.9-1.25,27.37"/><path class="cls-2" d="M102.3,274.85a91.41,91.41,0,0,1-31.84-1.56c-4.16-1-8.39-2.27-11.58-5.1-1.49-1.31-2.67-3.8-1.17-5.11a3.62,3.62,0,0,1,1.83-.71c5.83-1,11.79.34,17.49,1.91,9.14,2.52,16.53,6.91,25.27,10.57"/><path class="cls-2" d="M112.2,282.23a77,77,0,0,1-26.44,4.41c-3.59,0-7.3-.37-10.43-2.12-1.46-.82-2.87-2.66-1.87-4a3.15,3.15,0,0,1,1.37-.91c4.61-1.87,9.75-1.83,14.71-1.55,8,.44,14.82,2.72,22.66,4.17"/><path class="cls-2" d="M100.09,272.65a91.37,91.37,0,0,1-9.46-30.44c-.54-4.23-.75-8.66.81-12.63.72-1.85,2.66-3.81,4.4-2.85a3.68,3.68,0,0,1,1.29,1.47c3,5.12,3.74,11.19,4.21,17.08.77,9.45-.81,17.9-1.25,27.37"/><path class="cls-2" d="M108.62,279.54a69.34,69.34,0,0,1-3.33-24c.12-3.24.51-6.58,2.16-9.36.78-1.3,2.47-2.53,3.66-1.6a2.83,2.83,0,0,1,.78,1.27c1.59,4.2,1.42,8.84,1,13.31-.59,7.18-2.82,13.31-4.32,20.35"/><path class="cls-4" d="M221.74,160.12c0-18.83-13.57-30.74-34.09-30.74-16.85,0-30.41,7.48-40.3,20.22a10.16,10.16,0,0,1-13.95,2.16l-22.16-15.83a10,10,0,0,1-2.63-13.66C126.19,95.56,154.25,79,193,79c47.36,0,80.19,25.75,80.19,71.1,0,57.12-45.76,67.15-52.27,100.94a10.1,10.1,0,0,1-9.9,8.21H183.29a10.08,10.08,0,0,1-10-11.43C179.61,203.56,221.74,191.05,221.74,160.12ZM166.18,320.77c0-19.6,12.63-29.67,30.31-29.67s30.3,10.07,30.3,29.67c0,19.22-12.62,30.75-30.3,30.75S166.18,340,166.18,320.77Z"/><path class="cls-5" d="M228.14,160c0-18.83-13.58-30.75-34.1-30.75-16.85,0-30.4,7.49-40.3,20.22a10.16,10.16,0,0,1-14,2.17l-22.16-15.83A10.05,10.05,0,0,1,115,122.1c17.59-26.71,45.64-43.24,84.41-43.24,47.35,0,80.18,25.75,80.18,71.1,0,57.12-45.76,67.15-52.27,100.94a10.09,10.09,0,0,1-9.9,8.21H189.69a10.07,10.07,0,0,1-10-11.43C186,203.39,228.14,190.88,228.14,160ZM172.57,320.6c0-19.6,12.63-29.68,30.31-29.68S233.19,301,233.19,320.6c0,19.21-12.63,30.75-30.31,30.75S172.57,339.81,172.57,320.6Z"/><path class="cls-5" d="M341.23,94.05c.9-3.63-1.15-6.56-5.1-7.53a9.77,9.77,0,0,0-8.7,2,2,2,0,0,1-2.79-.25l-3.51-4.09a2,2,0,0,1,.14-2.75c4.65-4.31,10.83-6.16,18.28-4.32,9.11,2.24,14.2,8.75,12.05,17.47-2.7,11-12,10.75-14.83,16.94a2,2,0,0,1-2.29,1.11l-5.34-1.32a2,2,0,0,1-1.38-2.67C331.07,100.4,339.77,100,341.23,94.05Zm-18.29,28.26c.93-3.77,3.83-5.11,7.23-4.27s5.36,3.37,4.43,7.14a6,6,0,1,1-11.66-2.87Z"/><path class="cls-5" d="M69.49,143.17c-1.8-3.27-5.3-4-8.85-2.06a9.78,9.78,0,0,0-5,7.36,2,2,0,0,1-2.21,1.71L48,149.56a2,2,0,0,1-1.77-2.11c.49-6.32,3.77-11.87,10.49-15.59,8.21-4.53,16.37-3.22,20.71,4.64,5.48,9.91-1.49,16,.62,22.51a2,2,0,0,1-.93,2.37L72.33,164a2,2,0,0,1-2.83-1C66.35,154.74,72.46,148.53,69.49,143.17Zm5.77,33.17c-1.88-3.4-.66-6.36,2.41-8.05s6.21-1.16,8.09,2.24a6,6,0,1,1-10.5,5.81Z"/><path class="cls-5" d="M205.35,25.54c.05-3-2.09-5-5.38-5a7.9,7.9,0,0,0-6.52,3.13,1.65,1.65,0,0,1-2.25.31l-3.51-2.61a1.6,1.6,0,0,1-.38-2.19c2.89-4.24,7.44-6.81,13.66-6.7,7.59.13,12.78,4.35,12.66,11.62-.16,9.16-7.53,10.64-8.67,16a1.61,1.61,0,0,1-1.61,1.29l-4.44-.08a1.62,1.62,0,0,1-1.58-1.86C198.47,32.39,205.26,30.5,205.35,25.54ZM196,51.15c.06-3.15,2.11-4.73,4.94-4.68s4.84,1.7,4.78,4.85a4.86,4.86,0,1,1-9.72-.17Z"/><path class="cls-6" d="M278.22,345.53a38.81,38.81,0,0,0-1.09,16.09s-7.61,4-15.07-1.09c0,0,6.2-4.71,4.25-17.36"/><path class="cls-7" d="M244.71,369.25a2.56,2.56,0,0,1,1-1.13c2.53-1.44,8.69-4.85,18-9.43a32.23,32.23,0,0,0,13.14.75,62,62,0,0,1,.74,9.5C272.78,369.15,254.06,369.9,244.71,369.25Z"/><path class="cls-8" d="M277.63,368.94c0,1.07-.06,2.09-.14,3H244.44v-1.55a2.46,2.46,0,0,1,.27-1.11C254.06,369.9,272.78,369.15,277.63,368.94Z"/><path class="cls-8" d="M255.64,364.1a.59.59,0,1,1-1.17,0,.59.59,0,0,1,1.17,0Z"/><path class="cls-8" d="M260,362.22a.59.59,0,1,1-.58-.58A.58.58,0,0,1,260,362.22Z"/><path class="cls-8" d="M264.34,359.94a.59.59,0,1,1-.58-.59A.58.58,0,0,1,264.34,359.94Z"/><path class="cls-6" d="M299,342s3.79,14.46,2.06,20.22c0,0,7.61,4,15.07-1.09,0,0-7.28-2.45-4.8-23"/><path class="cls-7" d="M333.48,369.83a2.56,2.56,0,0,0-1-1.13c-2.53-1.44-8.7-4.85-18-9.43a32.27,32.27,0,0,1-13.14.75,62.78,62.78,0,0,0-.75,9.5C305.4,369.73,324.12,370.48,333.48,369.83Z"/><path class="cls-8" d="M300.55,369.52c0,1.07.07,2.09.14,3h33.06v-1.55a2.6,2.6,0,0,0-.27-1.11C324.12,370.48,305.4,369.73,300.55,369.52Z"/><path class="cls-8" d="M315.7,360.89a.59.59,0,0,1-.59.59.59.59,0,0,1,0-1.17A.59.59,0,0,1,315.7,360.89Z"/><path class="cls-8" d="M325.7,365.72a.59.59,0,1,1-.59-.59A.58.58,0,0,1,325.7,365.72Z"/><path class="cls-8" d="M320.2,363.43a.59.59,0,1,1-1.17,0,.59.59,0,0,1,1.17,0Z"/><path class="cls-6" d="M274.15,112.5A18.2,18.2,0,0,1,276,125.74a35.19,35.19,0,0,1-5.92,12.44,34.25,34.25,0,0,0,17,5.62,14.37,14.37,0,0,0,7-1,15,15,0,0,1-4.08-7.2,38.83,38.83,0,0,1-1.33-15.92"/><path class="cls-9" d="M280.78,121.27a30.12,30.12,0,0,0,7.6,3,39,39,0,0,1,.29-4.58l-14.52-7.18a15.16,15.16,0,0,1,1.37,3A14.07,14.07,0,0,0,280.78,121.27Z"/><rect class="cls-10" x="296.7" y="101.27" width="4.41" height="0.66" transform="translate(-14.09 60.36) rotate(-11.27)"/><path class="cls-6" d="M282.24,89.76c4-1.1,8.5.45,11.51,3.36a21.56,21.56,0,0,1,5.89,11.53,37.84,37.84,0,0,1,.06,10.89,11.18,11.18,0,0,1-1.5,4.33,6,6,0,0,1-2.61,2,17.59,17.59,0,0,1-7.42.22c-4.11-.74-7.72-2-10.65-5s-3-5.78-2.49-9.92"/><path class="cls-6" d="M275.84,110.68a5.78,5.78,0,0,0-2-1.11,2.69,2.69,0,0,0-2.2.25,2.53,2.53,0,0,0-1.06,1.84,4,4,0,0,0,.4,2.13,4.2,4.2,0,0,0,2.84,2.47,2.68,2.68,0,0,0,3.09-1.76,4,4,0,0,0-.44-2.5"/><path class="cls-9" d="M274.85,111.5a2.12,2.12,0,0,0-.7-.4,1,1,0,0,0-.78.09.9.9,0,0,0-.38.65,1.44,1.44,0,0,0,.14.76,1.5,1.5,0,0,0,1,.88,1,1,0,0,0,1.1-.62,1.4,1.4,0,0,0-.16-.89"/><path class="cls-11" d="M270.73,96.84a15.8,15.8,0,0,1-4.29,0,9.44,9.44,0,0,1-3.53-1.09,7.78,7.78,0,0,1-3.59-5.33,10.75,10.75,0,0,1,1-6.45,8.51,8.51,0,0,1,3.76-4.09,9.43,9.43,0,0,1,5.9-.43c2.36.45,4.8,1.45,6.08,3.49,1.5,2.39,1,5.51.16,8.22"/><path class="cls-11" d="M299.29,97.64a14.3,14.3,0,0,0-9.42-10.82,17.47,17.47,0,0,0-14.48,1.75,38.46,38.46,0,0,0-3.95,2.85,17.88,17.88,0,0,0-3.1,2.85,11.18,11.18,0,0,0-2.24,7.14,19.32,19.32,0,0,0,1.82,7.37,3.91,3.91,0,0,0,1.46,2c1.53.86,3.36-.41,5.12-.57a.89.89,0,0,1,.58.09,1.06,1.06,0,0,1,.34.83,37.61,37.61,0,0,0,3.81,13.49,6.32,6.32,0,0,0,1.65,2.29,49.06,49.06,0,0,1-2.29-16s.07-.82.07-.84c.07-.86.28-2.34.34-2.64.56-2.69,1.14-3.58,1.7-6.28l1.53,3.29a1.32,1.32,0,0,0,.7.81,1.39,1.39,0,0,0,1-.26q2.93-1.69,5.87-3.37a1.21,1.21,0,0,0,.57-.52,1.29,1.29,0,0,0,.05-.65L290.08,97l3,2.89a1.41,1.41,0,0,0,.66.42,1.48,1.48,0,0,0,.74-.14l4.29-1.64a.81.81,0,0,0,.42-.27A.82.82,0,0,0,299.29,97.64Z"/><path class="cls-10" d="M267,97.63a37.12,37.12,0,0,1,10.27-10,1.53,1.53,0,0,0-1-2.81c-4.57.6-10.29,3.12-12,11.57A1.53,1.53,0,0,0,267,97.63Z"/><path class="cls-11" d="M289.11,102.83c-2,0-4.51.24-5.47,1.43-.48.59-1.11.51-.67-.13,1.34-2,3.3-2.27,6.18-2.53a.61.61,0,0,1,.58.66.59.59,0,0,1-.62.57Z"/><path class="cls-9" d="M283,112.69c.45,1.45,2.54,2.09,4.66,1.43s3.49-2.37,3-3.81-2.54-2.09-4.66-1.43S282.56,111.24,283,112.69Z"/><path class="cls-11" d="M296.32,102.2c.17.55.57.91.88.82s.44-.62.27-1.17-.57-.91-.88-.82S296.15,101.65,296.32,102.2Z"/><path class="cls-11" d="M287.21,105.86c.19.61.69,1,1.12.87s.63-.74.43-1.36-.69-1-1.12-.87S287,105.24,287.21,105.86Z"/><path class="cls-12" d="M295.12,108.45a2.75,2.75,0,0,0,.82-.77,5.18,5.18,0,0,1-2.69-3.49.39.39,0,0,1,.25-.48.38.38,0,0,1,.48.24,4.45,4.45,0,0,0,2.71,3.24.38.38,0,0,1,.17.51,3.65,3.65,0,0,1-1.31,1.39C295.13,109.34,294.7,108.7,295.12,108.45Z"/><path class="cls-13" d="M297.72,111.5a5.65,5.65,0,0,1-4.26,1.43S297.61,114.88,297.72,111.5Z"/><path class="cls-10" d="M287.31,110.75a4.43,4.43,0,0,1-2.17-.57,4.76,4.76,0,0,1-2.24-2.77,4.61,4.61,0,0,1,2.92-5.83,4.4,4.4,0,0,1,3.47.37,4.78,4.78,0,0,1,2.24,2.78,4.61,4.61,0,0,1-2.92,5.83A4.5,4.5,0,0,1,287.31,110.75Zm-.19-8.71a3.46,3.46,0,0,0-1.1.17,4,4,0,0,0-2.49,5,4.1,4.1,0,0,0,1.93,2.4,3.77,3.77,0,0,0,3,.32,4,4,0,0,0,2.49-5,4.08,4.08,0,0,0-1.93-2.39A3.74,3.74,0,0,0,287.12,102Z"/><path class="cls-10" d="M297.78,106.73a4.6,4.6,0,0,1-4.19-3.67c-.64-2.51.58-5,2.71-5.54a3.69,3.69,0,0,1,3.11.65,5.11,5.11,0,0,1,1.93,2.92h0a5.11,5.11,0,0,1-.3,3.48,3.72,3.72,0,0,1-2.41,2.06A3.53,3.53,0,0,1,297.78,106.73Zm-.62-8.66a2.72,2.72,0,0,0-.69.09c-1.79.45-2.79,2.58-2.24,4.74s2.45,3.55,4.24,3.09a3.06,3.06,0,0,0,2-1.71,4.47,4.47,0,0,0,.25-3h0A4.46,4.46,0,0,0,299,98.7,3.23,3.23,0,0,0,297.16,98.07Z"/><rect class="cls-10" x="278.84" y="107.41" width="4.41" height="0.66" transform="translate(-15.63 56.99) rotate(-11.27)"/><path class="cls-10" d="M291.3,104.56l-.52-.4c.07-.09,1.6-2,3.34-1.23l-.27.6C292.58,103,291.31,104.55,291.3,104.56Z"/><path class="cls-14" d="M260.48,188.72s-4.64,11.69-6.77,33.4-12.94,127.34-12.94,127.34,36.15,4.42,48.13,1.8c0,0-4.38-109.58-2.22-129.42l8.43,129s29,1.64,45.62-3.23c0,0-24.76-133.45-36-158.17"/><path class="cls-15" d="M286.1,237.55l-.39-2.39c-1.94,27-4,54.19-7,81.1-1,9.4-.11,22.76-9.72,28-4.29,2.35-9.26,3.08-14,3.87q-5.69,1-11.38,1.64c8.74,1,35.34,3.65,45.28,1.47C288.9,351.26,285.82,274.08,286.1,237.55Z"/><path class="cls-15" d="M269.23,196.68c11.67-1.93,24.82-1.61,35.46-7.28v-1.13l-44.21.45S258,195,255.83,206.84C258.74,201.79,262.76,197.75,269.23,196.68Z"/><path class="cls-15" d="M327.3,347.24c-5.94-.79-13-1.1-18.52-3.6-3.95-1.8-6.28-4.94-7.56-9-1.93-6.18-2.69-13-3.71-19.35-2.42-15.07-3.15-30.35-5.39-45.43-1-6.5-2.28-12.93-3.57-19.36l6.56,100.33s25.48,1.44,42.38-2.39C334,348.27,330.37,347.65,327.3,347.24Z"/><path class="cls-16" d="M250.86,349.4q-.2-15.88.34-31.78T253,285.88q1.28-15.75,3.29-31.44,2-15.85,4.82-31.6t6.25-31.11c.29-1.28.58-2.56.88-3.83.11-.48-.63-.69-.74-.2q-3.6,15.53-6.47,31.22t-4.95,31.26q-2.12,15.76-3.5,31.63t-2,31.72q-.65,16-.53,31.94c0,1.31,0,2.62,0,3.93a.38.38,0,0,0,.76,0Z"/><path class="cls-16" d="M274.59,185.84c0,10.67-.22,21.35-.64,32-.41,10.88-1,21.76-1.53,32.63s-1.1,21.78-1.47,32.68-.44,21.58-.45,32.37c0,10.47,0,21-.25,31.42l-.09,3.69a.39.39,0,0,0,.77,0c.26-10.32.3-20.65.32-31,0-10.82,0-21.64.34-32.46s.83-21.76,1.38-32.63,1.13-21.76,1.59-32.65c.44-10.7.77-21.41.8-32.13,0-1.32,0-2.64,0-4a.38.38,0,0,0-.76,0Z"/><path class="cls-16" d="M284.16,188q1.47,13.35,2.1,26.79c.11,2.53.2,5.07.27,7.6a.39.39,0,0,0,.77,0q-.37-13.41-1.6-26.79c-.24-2.54-.49-5.07-.77-7.6-.05-.48-.82-.49-.77,0Z"/><path class="cls-16" d="M292.38,189.23c2.35,10.33,4.11,20.79,5.47,31.3s2.3,21,3.07,31.59,1.34,21.08,1.93,31.62,1.22,21.19,2.07,31.77,1.89,20.87,3.37,31.24c.19,1.33.39,2.66.59,4,.07.49.81.28.74-.2C308,340,306.86,329.49,306,318.91s-1.54-21.17-2.15-31.76-1.16-21.09-1.89-31.62-1.62-21.11-2.89-31.62-2.87-20.72-5-30.95c-.28-1.31-.57-2.62-.87-3.94-.11-.48-.85-.27-.74.21Z"/><path class="cls-16" d="M301.05,188.55q3.94,15.48,7.48,31t6.64,31.22q3.12,15.65,5.82,31.37t5,31.49q2.29,15.88,4.16,31.82l.45,3.9c.05.49.82.49.76,0q-1.8-15.81-4-31.56t-4.87-31.52q-2.65-15.81-5.73-31.54t-6.57-31.39q-3.5-15.66-7.41-31.23l-1-3.81a.38.38,0,0,0-.74.2Z"/><path class="cls-17" d="M304.43,135.85a12.05,12.05,0,0,1,6.53,5.87,51.9,51.9,0,0,1,3.28,8.35c2.54,7.26,6.21,14.41,6.1,22.11a10.47,10.47,0,0,1-2.06,6.72c-1.71,2-4.42,2.83-7,3.54a11.32,11.32,0,0,1-4.19.62,7.33,7.33,0,0,1-5.26-3.65,16.23,16.23,0,0,1-2-6.3c-.8-5.81-.39-11.71,0-17.56s.86-11.75,3.44-17"/><path class="cls-17" d="M274.93,130.59c-5.27,1.47-12.5,4.08-17.11,7-.72.46-.29,1.44-.69,2.19-.87,1.66,1.23,2.77,1.94,4.49,1.94,4.74,1,10.12,1.71,15.18,1.07,7.59,5.86,14.58,5.37,22.23a3.48,3.48,0,0,0,.16,1.79c.48.95,1.73,1.15,2.8,1.23q14.28,1,28.59,1.4a2,2,0,0,0,2.44-2.14,52,52,0,0,1,3.14-10.8c1.45-3.52,3.3-7,3.8-10.73a31.63,31.63,0,0,0,.12-5.06q-.27-8.07-.52-16.16a5.62,5.62,0,0,0-.54-2.7,5.44,5.44,0,0,0-2.18-1.78,61.9,61.9,0,0,0-12.2-5.05,5.79,5.79,0,0,0-2.6-.33c-1.27.23-2.24,1.22-3.35,1.88-2.78,1.66-8.77-.21-10.88-2.66"/><path class="cls-6" d="M303.65,138.57a4.35,4.35,0,0,0-2.12-3.72c-1.23-.87-2.66-1.41-3.87-2.29a4.22,4.22,0,0,1-2-3.79,5.6,5.6,0,0,1,.71-1.74l1.84-3.36A7.15,7.15,0,0,0,299,122a7,7,0,0,0-.66-4c-.54-1.4-1.07-2.8-1.6-4.21a1,1,0,0,1-.09-.72c.23-.53,1-.3,1.51,0a36.52,36.52,0,0,1,4.75,3.94,17,17,0,0,1,4,5.55,46.55,46.55,0,0,1,1.33,4.69,63.4,63.4,0,0,0,3.31,8,127.66,127.66,0,0,1,5.11,14.94,50.55,50.55,0,0,1,2,8.55,49.12,49.12,0,0,1,.17,6.42,48.82,48.82,0,0,1-.91,10c-.43,1.9-1.56,4.11-3.5,4.08-1.47,0-2.55-1.35-3.31-2.6a45.36,45.36,0,0,1-5.85-17.19,177.49,177.49,0,0,1-1.59-21"/><path class="cls-6" d="M266.37,176.56c12.15-1.33,24.44,2.29,36.6,1,2.51-.27,5.4-.63,7.22,1.12,1.64,1.58,1.57,4.41.27,6.28a9,9,0,0,1-5.77,3.34,53.39,53.39,0,0,1-6.81.5c-2.89.18-5.75.71-8.64,1a46.3,46.3,0,0,1-21.34-3.16"/><path class="cls-18" d="M274.56,130.36s9.31,6.47,14.78.78a76.82,76.82,0,0,1,8,2.56s-4.27,8.37-12.68,1.15c0,0-8.05,10.6-16.17-1.95Z"/><path class="cls-19" d="M274.77,129.87s9.29,5.12,14,.21c0,0,3,1.4,6.36,2.72,0,0-3.68,7.22-10.94,1,0,0-6.94,9.15-13.94-1.68Z"/><path class="cls-17" d="M258.8,137.64s3.82,1.08,5.9,16.93,3.8,16.33,3.8,16.33S286.93,176,290,177.47l1.1,13.29s-26.47,1-35.2-2-3.84-41.19-3.84-41.19S253.78,136.72,258.8,137.64Z"/><path class="cls-16" d="M261.83,145.64a.39.39,0,0,0,0-.77.39.39,0,0,0,0,.77Z"/><path class="cls-16" d="M254.91,160.1a.38.38,0,0,0,0-.76.38.38,0,0,0,0,.76Z"/><path class="cls-16" d="M270.63,164.92a.38.38,0,0,0,0-.76.38.38,0,0,0,0,.76Z"/><path class="cls-16" d="M258.06,177.08a.39.39,0,0,0,0-.77.39.39,0,0,0,0,.77Z"/><path class="cls-16" d="M263.09,188.18a.38.38,0,0,0,0-.76.38.38,0,0,0,0,.76Z"/><path class="cls-16" d="M275.87,177.5a.39.39,0,0,0,0-.77.39.39,0,0,0,0,.77Z"/><path class="cls-16" d="M287.4,187.77a.39.39,0,0,0,0-.77.39.39,0,0,0,0,.77Z"/><path class="cls-16" d="M287.4,170.37a.39.39,0,0,0,0-.77.39.39,0,0,0,0,.77Z"/><path class="cls-16" d="M276.08,156.12a.39.39,0,0,0,0-.77.39.39,0,0,0,0,.77Z"/><path class="cls-16" d="M268.12,135.37a.39.39,0,0,0,0-.77.39.39,0,0,0,0,.77Z"/><path class="cls-16" d="M276.29,144.17a.38.38,0,0,0,0-.76.38.38,0,0,0,0,.76Z"/><path class="cls-16" d="M289.49,154.65a.38.38,0,0,0,0-.76.38.38,0,0,0,0,.76Z"/><path class="cls-16" d="M292.22,142.5a.39.39,0,0,0,0-.77.39.39,0,0,0,0,.77Z"/><path class="cls-16" d="M301.86,137.89a.39.39,0,0,0,0-.77.39.39,0,0,0,0,.77Z"/><path class="cls-16" d="M301.86,151.51a.39.39,0,0,0,0-.77.39.39,0,0,0,0,.77Z"/><path class="cls-16" d="M300.81,166.39a.39.39,0,0,0,0-.77.39.39,0,0,0,0,.77Z"/><path class="cls-16" d="M301.44,175.4a.39.39,0,0,0,0-.77.39.39,0,0,0,0,.77Z"/><path class="cls-16" d="M312.34,180.64a.39.39,0,0,0,0-.77.39.39,0,0,0,0,.77Z"/><path class="cls-18" d="M262.2,151.62q.38,4.83.74,9.64c.2,2.6.19,5.37,1,7.86a7.27,7.27,0,0,0,1.64,2.8,6.62,6.62,0,0,0,3.26,1.67,30,30,0,0,0,4.23.51c1.6.13,3.2.22,4.79.29,3.61.15,7.23.17,10.84.2a.39.39,0,0,0,0-.77,166.23,166.23,0,0,1-18.13-.72,8.25,8.25,0,0,1-3.78-1.17,5.5,5.5,0,0,1-2-2.63c-.89-2.29-.9-4.86-1.08-7.28l-.8-10.4c0-.49-.81-.49-.77,0Z"/><path class="cls-18" d="M260.05,170.93a33.49,33.49,0,0,1,3.87.23c.2,0,.38-.19.38-.38a.39.39,0,0,0-.38-.38,31.4,31.4,0,0,0-3.87-.23.38.38,0,0,0,0,.76Z"/><path class="cls-18" d="M299,152c1.37,6.47,2.74,13,2.69,19.66a38.73,38.73,0,0,1-.44,5.69c-.07.48.67.69.74.2,1-6.7.17-13.48-1.09-20.09q-.56-2.83-1.16-5.66c-.1-.48-.84-.28-.74.2Z"/><path class="cls-6" d="M120.05,343.88A38.81,38.81,0,0,0,119,360s-7.61,4-15.07-1.09c0,0,6.2-4.72,4.25-17.37"/><path class="cls-10" d="M86.54,367.59a2.61,2.61,0,0,1,1-1.13c2.53-1.43,8.69-4.85,18-9.42a32.27,32.27,0,0,0,13.14.75,61.78,61.78,0,0,1,.74,9.49C114.61,367.5,95.89,368.25,86.54,367.59Z"/><path class="cls-8" d="M119.46,367.28c0,1.07-.06,2.1-.13,3H86.27V368.7a2.67,2.67,0,0,1,.27-1.11C95.89,368.25,114.61,367.5,119.46,367.28Z"/><circle class="cls-8" cx="96.88" cy="362.45" r="0.59"/><path class="cls-8" d="M101.85,360.57a.59.59,0,0,1-1.17,0,.59.59,0,1,1,1.17,0Z"/><path class="cls-8" d="M106.18,358.28a.59.59,0,1,1-.59-.58A.59.59,0,0,1,106.18,358.28Z"/><path class="cls-6" d="M152.46,342.19s.66,12.77-1.07,18.52c0,0,7.61,4,15.07-1.09,0,0-5.33-1.84-2.86-22.38"/><path class="cls-10" d="M183.81,368.34a2.56,2.56,0,0,0-1-1.13c-2.53-1.44-8.69-4.85-18-9.43a32.23,32.23,0,0,1-13.14.75,62,62,0,0,0-.74,9.5C155.74,368.24,174.46,369,183.81,368.34Z"/><path class="cls-8" d="M150.89,368c0,1.07.06,2.09.14,3h33.05v-1.55a2.46,2.46,0,0,0-.27-1.11C174.46,369,155.74,368.24,150.89,368Z"/><path class="cls-8" d="M166,359.41a.59.59,0,1,1-.58-.59A.58.58,0,0,1,166,359.41Z"/><path class="cls-8" d="M176,364.23a.58.58,0,0,1-.58.58.59.59,0,0,1-.59-.58.6.6,0,0,1,.59-.59A.59.59,0,0,1,176,364.23Z"/><path class="cls-8" d="M170.53,361.94a.59.59,0,1,1-.58-.58A.58.58,0,0,1,170.53,361.94Z"/><path class="cls-6" d="M143,88.28c1.56,6.17.28,12.81-2.48,18.55a2.92,2.92,0,0,0-.42,2.25,2.55,2.55,0,0,0,1.25,1.17A16.28,16.28,0,0,0,157.3,110a.88.88,0,0,0,.38-.36c.14-.32-.14-.66-.38-.92-1.31-1.45-.63-3.17-1.2-5-2.44-8-.93-15.32,1.9-23"/><path class="cls-9" d="M143.63,95.59a20.67,20.67,0,0,0,7.26-3.67,13.89,13.89,0,0,0,4.41-5.3A4.09,4.09,0,0,1,156.55,85c.42-1.44.91-2.9,1.45-4.36l-15,7.61a35.79,35.79,0,0,1,.61,7.31S143.62,95.59,143.63,95.59Z"/><path class="cls-6" d="M147,57.6a7.56,7.56,0,0,0-4.77,1.22,17.9,17.9,0,0,0-8,9.85,27.26,27.26,0,0,0-1.06,5.06c-.54,4-1.11,5.58-.94,9.64a39.57,39.57,0,0,0,1.62,7.48,3.69,3.69,0,0,0,2.88,2.41c1.64.53,3.88.08,5.59-.18a18.49,18.49,0,0,0,15.12-22.91"/><path class="cls-11" d="M170.42,61a22.65,22.65,0,0,0-6.69,1.56c.25-.89,3.77-5.68,1.35-4.72-.23,1.29-4.29,6.07-2.18,6.15C163.85,62.64,172.77,62.27,170.42,61Z"/><path class="cls-9" d="M148.59,84.29c-.35,1.4-2.3,2.13-4.36,1.62s-3.45-2-3.1-3.46,2.29-2.13,4.35-1.62S148.93,82.89,148.59,84.29Z"/><path class="cls-11" d="M142.23,74.52c2.11-.1,4.8,0,5.9,1.18.54.6,1.2.47.7-.18-1.55-2-3.64-2.2-6.72-2.3a.65.65,0,0,0-.57.74c0,.31.36.65.69.56Z"/><path class="cls-11" d="M137,71.71a17.17,17.17,0,0,0-3.14-1.62l-.17.53c0,.16,0,.32,0,.47a17.82,17.82,0,0,1,2.59,1.6.59.59,0,0,0,.85-.09A.62.62,0,0,0,137,71.71Z"/><path class="cls-11" d="M135.32,75.05c-.13.53-.48.9-.79.82s-.45-.56-.32-1.09.49-.9.79-.83S135.45,74.52,135.32,75.05Z"/><path class="cls-11" d="M144.21,78c-.15.6-.61,1-1,.9a1,1,0,0,1-.49-1.27c.15-.6.6-1,1-.9S144.35,77.42,144.21,78Z"/><path class="cls-12" d="M136.81,80.93a2.84,2.84,0,0,1-.82-.68,5,5,0,0,0,2.37-3.48.37.37,0,0,0-.26-.44.36.36,0,0,0-.45.26,4.25,4.25,0,0,1-2.4,3.23.38.38,0,0,0-.13.5,3.37,3.37,0,0,0,1.33,1.24C136.86,81.78,137.23,81.15,136.81,80.93Z"/><path class="cls-13" d="M134.52,84a5.37,5.37,0,0,0,4.13,1.12S134.81,87.2,134.52,84Z"/><path class="cls-11" d="M168.07,72.22c-.27-3.81-.65-7.15-4-9l-.49-.54a9.73,9.73,0,0,0-3.53-5.89,15.86,15.86,0,0,0-4.14-2.41c-7.11-2.54-17.07,0-22.74,1.92l1.36,2.07a31.1,31.1,0,0,1-5.78-.4,24.34,24.34,0,0,0,4.33,9.45c2.62,3.23,6.39,4.56,10.35,5.82s6.45,2.6,10.57,3.16c.46.07-.22,5.85.18,6.1.67.42,2.88-3.26,3.06-2.49,1.05,4.56-3.41,7.86-2.22,12.38,3.46-1.09,8.45-5.69,10.36-9A20,20,0,0,0,168.07,72.22Z"/><path class="cls-6" d="M153.39,83.28a16,16,0,0,1,4.06-5.64,3,3,0,0,1,1.28-.54,1.41,1.41,0,0,1,1.27.44,1.88,1.88,0,0,1,.34,1,6.61,6.61,0,0,1-1,4.24,6.54,6.54,0,0,1-3.47,2.64,2,2,0,0,1-2.29-.4,2.34,2.34,0,0,1-.16-1.75"/><path class="cls-9" d="M154.88,81.67a2.15,2.15,0,0,0-.06.9.67.67,0,0,0,.57.52,1.66,1.66,0,0,0,1-.31,3.25,3.25,0,0,0,.82-.79,1.86,1.86,0,0,0,.45-1.57c-.16-.43-.78-.6-1.38-.28a3.19,3.19,0,0,0-1,.93"/><path class="cls-8" d="M164.36,172.08s10.82,16.73,12.23,36.26-2.88,144.42-2.88,144.42l-25.46.9s1.92-108.81-.5-122.31L123.68,352.77l-25.7-.7s21.56-165.34,30.08-178.7Z"/><g class="cls-20"><path class="cls-16" d="M142.45,193a59,59,0,0,0-.67,10.54c.09,3,.41,6.32,2.28,8.86a7.61,7.61,0,0,0,3.53,2.73.38.38,0,0,0,.47-.27c1.84-6.84,1-14,2.25-20.94.08-.48-.65-.69-.74-.21-1.23,6.93-.41,14.11-2.25,20.95l.48-.27c-2.6-.94-4.11-3.5-4.73-6.07a22.82,22.82,0,0,1-.52-4.59q-.08-2.46.06-4.92a55.53,55.53,0,0,1,.58-5.61c.07-.48-.66-.69-.74-.2Z"/></g><g class="cls-20"><path class="cls-16" d="M158.68,191.89c3.33,5.2,7,10.69,12.91,13.12.46.19.66-.55.21-.73-5.74-2.35-9.26-7.78-12.46-12.78-.27-.41-.93,0-.66.39Z"/></g><g class="cls-20"><path class="cls-16" d="M121.78,201.58a20.58,20.58,0,0,0,6.47-5.19,57.54,57.54,0,0,0,5.52-7.11c.28-.41-.39-.79-.66-.38a57.47,57.47,0,0,1-5.4,6.95,19.89,19.89,0,0,1-6.32,5.07c-.45.2-.06.86.39.66Z"/></g><g class="cls-20"><path class="cls-16" d="M149.38,236.44q2.73,22,4.08,44.15t1.32,44.09q0,12.44-.47,24.85a.39.39,0,0,0,.77,0q.79-22.15.22-44.33t-2.53-44q-1.1-12.38-2.62-24.72c-.06-.48-.83-.49-.77,0Z"/></g><g class="cls-20"><path class="cls-16" d="M116.51,346.71c.84-7.85,2.13-15.64,3.67-23.38s3.34-15.45,5.19-23.12c1.78-7.35,3.55-14.69,5.45-22s3.88-14.3,6.27-21.31a162.06,162.06,0,0,1,8.48-20.55c.42-.84.84-1.66,1.28-2.49.23-.43-.43-.82-.66-.39a156,156,0,0,0-8.85,20.39c-2.51,7-4.62,14.21-6.54,21.43s-3.73,14.68-5.51,22c-1.87,7.68-3.7,15.37-5.3,23.1s-3,15.5-3.91,23.34c-.11,1-.23,2-.33,2.95,0,.49.71.49.76,0Z"/></g><path class="cls-21" d="M128.78,106.23c-3.4,1.21-5.94,4.81-8.09,8.4a124.2,124.2,0,0,0-9.78,20.29,3.15,3.15,0,0,0-.28,1.7,2.43,2.43,0,0,0,.93,1.31q7.56,6.45,15.42,12.24c.28.2.62.41.9.21a1.36,1.36,0,0,0,.36-.84c2.38-13,1.95-26.64,1.5-40"/><path class="cls-21" d="M170.51,105.49c4.38,1.21,7.63,4.81,10.41,8.4a115.83,115.83,0,0,1,12.56,20.29,1.92,1.92,0,0,1-.84,3q-9.7,6.45-19.82,12.24c-.35.2-.79.41-1.15.21a1.18,1.18,0,0,1-.46-.84c-3.06-13.05-2.5-26.64-1.93-40"/><path class="cls-21" d="M142.64,101.1c2.68,1.08,8.14,1.56,10.85.54a6.32,6.32,0,0,1,2-.56,4.84,4.84,0,0,1,1.46.28l12.56,3.75a3.16,3.16,0,0,1,1.59.85,3.06,3.06,0,0,1,.53,1.71q.66,6.22,1.3,12.45c.38,3.65.76,7.3.81,11s-.24,7.3-.47,10.94c-.92,14.92-.81,29.89-1,44.84a2.08,2.08,0,0,1-.56,1.73,2,2,0,0,1-.91.3c-16.06,2.55-32.45.47-48.57-1.61a90.18,90.18,0,0,0,.35-11.5c-.2-3.58.61-17.69.34-21.25-.49-6.39-1.27-2.23-.61-8.6L126,109.81a5.39,5.39,0,0,1,.72-2.6,5.33,5.33,0,0,1,2.33-1.57,87.53,87.53,0,0,1,13.57-4.54"/><g class="cls-20"><path class="cls-22" d="M172.41,164.68c-.88,4.27-1.95,8.81-4.44,12.46-4.18,6.14-12.93,6.62-19.68,7s-16.32,1.06-21.74-3.93a17.16,17.16,0,0,1-4-5.72c0,.52,0,.95,0,1.3a90.18,90.18,0,0,1-.35,11.5c16.12,2.08,32.51,4.16,48.57,1.61a2,2,0,0,0,.91-.3,2.08,2.08,0,0,0,.56-1.73c.09-7.48.1-15,.21-22.44Z"/></g><g class="cls-20"><path class="cls-22" d="M193.48,134.18a114.76,114.76,0,0,0-10.59-17.65,51.62,51.62,0,0,1,1.89,11.72c.47,7.66-4.73,14.1-9.7,19.87,5.95-3.48,11.82-7.11,17.56-10.93a1.92,1.92,0,0,0,.84-3Z"/></g><path class="cls-22" d="M114,135.87a38.45,38.45,0,0,1,2.06-4.47c.24-.43-.42-.82-.66-.39a40,40,0,0,0-2.14,4.66.38.38,0,0,0,.26.47.4.4,0,0,0,.48-.27Z"/><path class="cls-22" d="M171.2,142q1.41,2.68,2.59,5.48a.37.37,0,0,0,.52.13.39.39,0,0,0,.14-.52c-.79-1.86-1.65-3.69-2.59-5.47-.23-.44-.89,0-.66.38Z"/><path class="cls-22" d="M175,139.55a48.75,48.75,0,0,1,2.8,5.3c.21.45.87.06.67-.38a50.79,50.79,0,0,0-2.81-5.31c-.25-.42-.92,0-.66.39Z"/><path class="cls-22" d="M179.22,136.37a34.39,34.39,0,0,0,2.34,5.31c.23.43.89,0,.66-.39a33,33,0,0,1-2.27-5.12c-.16-.46-.9-.27-.73.2Z"/><path class="cls-22" d="M183,134.07a42.88,42.88,0,0,1,2.38,4.56.38.38,0,0,0,.66-.39,41,41,0,0,0-2.38-4.55.38.38,0,0,0-.66.38Z"/><path class="cls-22" d="M187.78,131.57a36.32,36.32,0,0,1,2.12,4.23.4.4,0,0,0,.47.27.39.39,0,0,0,.27-.47,37.76,37.76,0,0,0-2.2-4.41.38.38,0,0,0-.66.38Z"/><path class="cls-22" d="M125.27,179.81q-.31,3.08-.65,6.14c-.05.49.71.49.77,0q.31-3.06.65-6.14c0-.49-.71-.48-.77,0Z"/><path class="cls-22" d="M130.48,186.17a39.81,39.81,0,0,0,.61-6.35.38.38,0,0,0-.76,0,40.77,40.77,0,0,1-.58,6.14c-.09.49.65.69.73.21Z"/><path class="cls-22" d="M135.89,186.64c.16-2.28.31-4.55.46-6.83,0-.49-.73-.49-.76,0-.16,2.28-.31,4.55-.46,6.83,0,.49.73.49.76,0Z"/><path class="cls-22" d="M142.45,187.09a21.66,21.66,0,0,1,.52-7c.11-.48-.62-.69-.74-.21a22.69,22.69,0,0,0-.55,7.16c0,.49.81.49.77,0Z"/><path class="cls-22" d="M148.24,187.89q.12-3.7,0-7.39c0-.49-.78-.5-.76,0q.14,3.69,0,7.39c0,.49.75.49.77,0Z"/><path class="cls-22" d="M155,187.55a38,38,0,0,0,.29-6.48c0-.49-.79-.5-.77,0a38,38,0,0,1-.28,6.48.37.37,0,0,0,.38.38.39.39,0,0,0,.38-.38Z"/><path class="cls-22" d="M160.55,188.12c.16-2.39.33-4.78.49-7.17,0-.49-.73-.49-.77,0l-.48,7.17c0,.49.73.49.76,0Z"/><path class="cls-22" d="M166.47,181v6.36c0,.41.76.42.76,0V181c0-.42-.76-.42-.76,0Z"/><path class="cls-22" d="M140,106.3a32.3,32.3,0,0,0,2.44-3.15.4.4,0,0,0-.14-.53.39.39,0,0,0-.52.14,30.74,30.74,0,0,1-2.32,3,.39.39,0,0,0,0,.54.38.38,0,0,0,.54,0Z"/><path class="cls-22" d="M144.75,104.78l-.45,3.75c0,.2.19.38.38.38a.38.38,0,0,0,.38-.38c.16-1.25.31-2.5.46-3.75a.4.4,0,0,0-.38-.39.4.4,0,0,0-.39.39Z"/><path class="cls-22" d="M148.79,105.21a24,24,0,0,1,.38,3.77.39.39,0,0,0,.77,0,24.09,24.09,0,0,0-.42-4,.38.38,0,1,0-.73.2Z"/><path class="cls-22" d="M152.65,104.29a26.1,26.1,0,0,1,1.79,3.54.38.38,0,1,0,.74-.2,27.07,27.07,0,0,0-1.87-3.73.38.38,0,0,0-.66.39Z"/><path class="cls-22" d="M156.07,102.74a22.18,22.18,0,0,1,3.74,3.17c.33.36.87-.18.54-.54a22.74,22.74,0,0,0-3.9-3.29c-.41-.27-.79.39-.38.66Z"/><path class="cls-6" d="M126.78,109.1c1.93-8,3.65-13,7.85-20.11.42-.72,1.27-1.54,2-1,.51.36.4,1.13.24,1.73-.52,1.91-1,3.82-1.55,5.73a3.89,3.89,0,0,0-.19,1.43c.17,1.32,1.6,2,2.79,2.6s2.5,1.7,2.14,3a3.36,3.36,0,0,1-1,1.35c-2.92,3.08-4.49,7.24-5.33,11.41s-2.91,14.18-3.48,18.39c-1.44,10.62-3.6,18.5-10.48,23.8a3.88,3.88,0,0,1-3.32.63,2.54,2.54,0,0,1-1.09-.86c-2.58-3-3.4-7.21-3.06-11.15a41.94,41.94,0,0,1,3.18-11.39c2.72-7,7.8-15.94,11.31-25.49"/><path class="cls-6" d="M194.67,159.46A103.64,103.64,0,0,0,188,140.08l-11.81,7.3q2.49,5.4,4.61,11a8.21,8.21,0,0,1-.53,9,196.44,196.44,0,0,1-17.2,25.19,2.42,2.42,0,0,0-.73,1.57,2.45,2.45,0,0,0,.53,1.2l3.22,4.7c.19.27.42.57.75.58s.55-.25.76-.49l15.43-18c3.77-4.4,7.58-8.83,10.38-13.91a12,12,0,0,0,1.72-4.84A13.12,13.12,0,0,0,194.67,159.46Z"/></g></g></svg>